M48
; DRILL file {KiCad 7.0.2-0} date 2024 November 24, Sunday 22:08:24
; FORMAT={-:-/ absolute / metric / decimal}
; #@! TF.CreationDate,2024-11-24T22:08:24+01:00
; #@! TF.GenerationSoftware,Kicad,Pcbnew,7.0.2-0
; #@! TF.FileFunction,Plated,1,2,PTH
FMAT,2
METRIC
; #@! TA.AperFunction,Plated,PTH,ViaDrill
T1C0.400
; #@! TA.AperFunction,Plated,PTH,ComponentDrill
T2C0.700
; #@! TA.AperFunction,Plated,PTH,ComponentDrill
T3C0.800
; #@! TA.AperFunction,Plated,PTH,ComponentDrill
T4C1.000
%
G90
G05
T1
X159.512Y-88.646
X170.942Y-114.046
X172.212Y-117.856
X173.761Y-116.84
X174.244Y-114.046
T2
X144.78Y-67.818
X144.78Y-72.898
X144.78Y-84.074
X144.78Y-89.154
X153.67Y-118.618
X153.67Y-123.698
X153.67Y-125.984
X153.67Y-131.064
X156.972Y-76.454
X156.972Y-78.994
X156.972Y-81.534
X156.972Y-84.074
X156.972Y-101.854
X156.972Y-104.394
X156.972Y-106.934
X156.972Y-109.474
X162.052Y-76.454
X162.052Y-78.994
X162.052Y-81.534
X162.052Y-84.074
X162.052Y-101.854
X162.052Y-104.394
X162.052Y-106.934
X162.052Y-109.474
X168.656Y-126.238
X168.656Y-131.318
X171.196Y-126.238
X171.196Y-131.318
X173.228Y-80.518
X173.228Y-82.804
X173.228Y-85.09
X173.228Y-87.376
X178.308Y-80.518
X178.308Y-82.804
X178.308Y-85.09
X178.308Y-87.376
T3
X156.972Y-63.754
X156.972Y-66.294
X156.972Y-68.834
X156.972Y-71.374
X156.972Y-89.154
X156.972Y-91.694
X156.972Y-94.234
X156.972Y-96.774
X156.972Y-118.364
X156.972Y-120.904
X156.972Y-123.444
X156.972Y-125.984
X156.972Y-128.524
X156.972Y-131.064
X156.972Y-133.604
X164.592Y-63.754
X164.592Y-66.294
X164.592Y-68.834
X164.592Y-71.374
X164.592Y-89.154
X164.592Y-91.694
X164.592Y-94.234
X164.592Y-96.774
X164.592Y-118.364
X164.592Y-120.904
X164.592Y-123.444
X164.592Y-125.984
X164.592Y-128.524
X164.592Y-131.064
X164.592Y-133.604
X168.402Y-117.094
X168.402Y-119.594
T4
X145.288Y-76.454
X145.288Y-92.964
X147.828Y-67.564
X147.828Y-72.644
X147.828Y-76.454
X147.828Y-83.918
X147.828Y-88.998
X147.828Y-92.964
X151.892Y-62.484
X151.892Y-65.024
X151.892Y-67.564
X151.892Y-70.104
X151.892Y-72.644
X151.892Y-75.184
X151.892Y-77.724
X151.892Y-80.264
X151.892Y-82.804
X151.892Y-85.344
X151.892Y-87.884
X151.892Y-90.424
X151.892Y-92.964
X151.892Y-95.504
X151.892Y-98.044
X151.892Y-100.584
X151.892Y-103.124
X151.892Y-105.664
X151.892Y-108.204
X151.892Y-110.744
X169.672Y-62.484
X169.672Y-65.024
X169.672Y-67.564
X169.672Y-70.104
X169.672Y-72.644
X169.672Y-75.184
X169.672Y-77.724
X169.672Y-80.264
X169.672Y-82.804
X169.672Y-85.344
X169.672Y-87.884
X169.672Y-90.424
X169.672Y-92.964
X169.672Y-95.504
X169.672Y-98.044
X169.672Y-100.584
X169.672Y-103.124
X169.672Y-105.664
X169.672Y-108.204
X169.672Y-110.744
X176.53Y-94.488
X176.53Y-97.028
X176.53Y-99.568
X176.53Y-102.108
X176.53Y-104.648
X176.53Y-107.188
X176.53Y-109.728
X176.53Y-112.268
X176.53Y-114.808
X176.53Y-117.348
X176.53Y-119.888
X176.53Y-122.428
T0
M30
