G04 #@! TF.GenerationSoftware,KiCad,Pcbnew,7.0.2-0*
G04 #@! TF.CreationDate,2024-11-24T22:08:16+01:00*
G04 #@! TF.ProjectId,MIDI Box,4d494449-2042-46f7-982e-6b696361645f,rev?*
G04 #@! TF.SameCoordinates,Original*
G04 #@! TF.FileFunction,Legend,Bot*
G04 #@! TF.FilePolarity,Positive*
%FSLAX46Y46*%
G04 Gerber Fmt 4.6, Leading zero omitted, Abs format (unit mm)*
G04 Created by KiCad (PCBNEW 7.0.2-0) date 2024-11-24 22:08:16*
%MOMM*%
%LPD*%
G01*
G04 APERTURE LIST*
%ADD10C,1.400000*%
%ADD11O,1.400000X1.400000*%
%ADD12R,1.600000X1.600000*%
%ADD13O,1.600000X1.600000*%
%ADD14R,1.700000X1.700000*%
%ADD15O,1.700000X1.700000*%
%ADD16C,2.100000*%
%ADD17R,2.000000X2.000000*%
%ADD18O,2.000000X2.000000*%
%ADD19C,1.600000*%
G04 APERTURE END LIST*
%LPC*%
D10*
X156972000Y-84074000D03*
D11*
X162052000Y-84074000D03*
D12*
X156972000Y-118364000D03*
D13*
X156972000Y-120904000D03*
X156972000Y-123444000D03*
X156972000Y-125984000D03*
X156972000Y-128524000D03*
X156972000Y-131064000D03*
X156972000Y-133604000D03*
X164592000Y-133604000D03*
X164592000Y-131064000D03*
X164592000Y-128524000D03*
X164592000Y-125984000D03*
X164592000Y-123444000D03*
X164592000Y-120904000D03*
X164592000Y-118364000D03*
D10*
X173228000Y-82804000D03*
D11*
X178308000Y-82804000D03*
D10*
X173228000Y-87376000D03*
D11*
X178308000Y-87376000D03*
D10*
X153670000Y-123698000D03*
D11*
X153670000Y-118618000D03*
D10*
X162052000Y-104394000D03*
D11*
X156972000Y-104394000D03*
D10*
X173228000Y-80518000D03*
D11*
X178308000Y-80518000D03*
D10*
X153670000Y-131064000D03*
D11*
X153670000Y-125984000D03*
D14*
X176530000Y-94488000D03*
D15*
X176530000Y-97028000D03*
X176530000Y-99568000D03*
X176530000Y-102108000D03*
X176530000Y-104648000D03*
X176530000Y-107188000D03*
X176530000Y-109728000D03*
X176530000Y-112268000D03*
X176530000Y-114808000D03*
X176530000Y-117348000D03*
X176530000Y-119888000D03*
X176530000Y-122428000D03*
D10*
X171196000Y-131318000D03*
D11*
X171196000Y-126238000D03*
D10*
X162052000Y-78994000D03*
D11*
X156972000Y-78994000D03*
D14*
X169672000Y-62484000D03*
D15*
X169672000Y-65024000D03*
X169672000Y-67564000D03*
X169672000Y-70104000D03*
X169672000Y-72644000D03*
X169672000Y-75184000D03*
X169672000Y-77724000D03*
X169672000Y-80264000D03*
X169672000Y-82804000D03*
X169672000Y-85344000D03*
X169672000Y-87884000D03*
X169672000Y-90424000D03*
X169672000Y-92964000D03*
X169672000Y-95504000D03*
X169672000Y-98044000D03*
X169672000Y-100584000D03*
X169672000Y-103124000D03*
X169672000Y-105664000D03*
X169672000Y-108204000D03*
X169672000Y-110744000D03*
D12*
X156972000Y-89154000D03*
D13*
X156972000Y-91694000D03*
X156972000Y-94234000D03*
X156972000Y-96774000D03*
X164592000Y-96774000D03*
X164592000Y-94234000D03*
X164592000Y-91694000D03*
X164592000Y-89154000D03*
D10*
X144780000Y-89154000D03*
D11*
X144780000Y-84074000D03*
D14*
X151892000Y-62484000D03*
D15*
X151892000Y-65024000D03*
X151892000Y-67564000D03*
X151892000Y-70104000D03*
X151892000Y-72644000D03*
X151892000Y-75184000D03*
X151892000Y-77724000D03*
X151892000Y-80264000D03*
X151892000Y-82804000D03*
X151892000Y-85344000D03*
X151892000Y-87884000D03*
X151892000Y-90424000D03*
X151892000Y-92964000D03*
X151892000Y-95504000D03*
X151892000Y-98044000D03*
X151892000Y-100584000D03*
X151892000Y-103124000D03*
X151892000Y-105664000D03*
X151892000Y-108204000D03*
X151892000Y-110744000D03*
D16*
X177800000Y-134112000D03*
D10*
X156972000Y-81534000D03*
D11*
X162052000Y-81534000D03*
D12*
X156972000Y-63754000D03*
D13*
X156972000Y-66294000D03*
X156972000Y-68834000D03*
X156972000Y-71374000D03*
X164592000Y-71374000D03*
X164592000Y-68834000D03*
X164592000Y-66294000D03*
X164592000Y-63754000D03*
D14*
X145288000Y-92964000D03*
D15*
X147828000Y-92964000D03*
D17*
X147828000Y-83918315D03*
D18*
X147828000Y-88998315D03*
D16*
X145288000Y-134112000D03*
D10*
X162052000Y-76454000D03*
D11*
X156972000Y-76454000D03*
D16*
X145288000Y-63754000D03*
D10*
X173228000Y-85090000D03*
D11*
X178308000Y-85090000D03*
D10*
X162052000Y-101854000D03*
D11*
X156972000Y-101854000D03*
D10*
X156972000Y-109474000D03*
D11*
X162052000Y-109474000D03*
D17*
X147828000Y-67564000D03*
D18*
X147828000Y-72644000D03*
D10*
X144780000Y-72898000D03*
D11*
X144780000Y-67818000D03*
D19*
X168402000Y-117094000D03*
X168402000Y-119594000D03*
D16*
X177800000Y-63754000D03*
D14*
X145288000Y-76454000D03*
D15*
X147828000Y-76454000D03*
D10*
X168656000Y-131318000D03*
D11*
X168656000Y-126238000D03*
D10*
X156972000Y-106934000D03*
D11*
X162052000Y-106934000D03*
%LPD*%
M02*
