G04 #@! TF.GenerationSoftware,KiCad,Pcbnew,7.0.2-0*
G04 #@! TF.CreationDate,2024-11-24T22:08:16+01:00*
G04 #@! TF.ProjectId,MIDI Box,4d494449-2042-46f7-982e-6b696361645f,rev?*
G04 #@! TF.SameCoordinates,Original*
G04 #@! TF.FileFunction,Copper,L2,Bot*
G04 #@! TF.FilePolarity,Positive*
%FSLAX46Y46*%
G04 Gerber Fmt 4.6, Leading zero omitted, Abs format (unit mm)*
G04 Created by KiCad (PCBNEW 7.0.2-0) date 2024-11-24 22:08:16*
%MOMM*%
%LPD*%
G01*
G04 APERTURE LIST*
G04 #@! TA.AperFunction,ComponentPad*
%ADD10C,1.400000*%
G04 #@! TD*
G04 #@! TA.AperFunction,ComponentPad*
%ADD11O,1.400000X1.400000*%
G04 #@! TD*
G04 #@! TA.AperFunction,ComponentPad*
%ADD12R,1.600000X1.600000*%
G04 #@! TD*
G04 #@! TA.AperFunction,ComponentPad*
%ADD13O,1.600000X1.600000*%
G04 #@! TD*
G04 #@! TA.AperFunction,ComponentPad*
%ADD14R,1.700000X1.700000*%
G04 #@! TD*
G04 #@! TA.AperFunction,ComponentPad*
%ADD15O,1.700000X1.700000*%
G04 #@! TD*
G04 #@! TA.AperFunction,ComponentPad*
%ADD16R,2.000000X2.000000*%
G04 #@! TD*
G04 #@! TA.AperFunction,ComponentPad*
%ADD17O,2.000000X2.000000*%
G04 #@! TD*
G04 #@! TA.AperFunction,ComponentPad*
%ADD18C,1.600000*%
G04 #@! TD*
G04 #@! TA.AperFunction,ViaPad*
%ADD19C,0.800000*%
G04 #@! TD*
G04 #@! TA.AperFunction,Conductor*
%ADD20C,0.250000*%
G04 #@! TD*
G04 APERTURE END LIST*
D10*
X156972000Y-84074000D03*
D11*
X162052000Y-84074000D03*
D12*
X156972000Y-118364000D03*
D13*
X156972000Y-120904000D03*
X156972000Y-123444000D03*
X156972000Y-125984000D03*
X156972000Y-128524000D03*
X156972000Y-131064000D03*
X156972000Y-133604000D03*
X164592000Y-133604000D03*
X164592000Y-131064000D03*
X164592000Y-128524000D03*
X164592000Y-125984000D03*
X164592000Y-123444000D03*
X164592000Y-120904000D03*
X164592000Y-118364000D03*
D10*
X173228000Y-82804000D03*
D11*
X178308000Y-82804000D03*
D10*
X173228000Y-87376000D03*
D11*
X178308000Y-87376000D03*
D10*
X153670000Y-123698000D03*
D11*
X153670000Y-118618000D03*
D10*
X162052000Y-104394000D03*
D11*
X156972000Y-104394000D03*
D10*
X173228000Y-80518000D03*
D11*
X178308000Y-80518000D03*
D10*
X153670000Y-131064000D03*
D11*
X153670000Y-125984000D03*
D14*
X176530000Y-94488000D03*
D15*
X176530000Y-97028000D03*
X176530000Y-99568000D03*
X176530000Y-102108000D03*
X176530000Y-104648000D03*
X176530000Y-107188000D03*
X176530000Y-109728000D03*
X176530000Y-112268000D03*
X176530000Y-114808000D03*
X176530000Y-117348000D03*
X176530000Y-119888000D03*
X176530000Y-122428000D03*
D10*
X171196000Y-131318000D03*
D11*
X171196000Y-126238000D03*
D10*
X162052000Y-78994000D03*
D11*
X156972000Y-78994000D03*
D14*
X169672000Y-62484000D03*
D15*
X169672000Y-65024000D03*
X169672000Y-67564000D03*
X169672000Y-70104000D03*
X169672000Y-72644000D03*
X169672000Y-75184000D03*
X169672000Y-77724000D03*
X169672000Y-80264000D03*
X169672000Y-82804000D03*
X169672000Y-85344000D03*
X169672000Y-87884000D03*
X169672000Y-90424000D03*
X169672000Y-92964000D03*
X169672000Y-95504000D03*
X169672000Y-98044000D03*
X169672000Y-100584000D03*
X169672000Y-103124000D03*
X169672000Y-105664000D03*
X169672000Y-108204000D03*
X169672000Y-110744000D03*
D12*
X156972000Y-89154000D03*
D13*
X156972000Y-91694000D03*
X156972000Y-94234000D03*
X156972000Y-96774000D03*
X164592000Y-96774000D03*
X164592000Y-94234000D03*
X164592000Y-91694000D03*
X164592000Y-89154000D03*
D10*
X144780000Y-89154000D03*
D11*
X144780000Y-84074000D03*
D14*
X151892000Y-62484000D03*
D15*
X151892000Y-65024000D03*
X151892000Y-67564000D03*
X151892000Y-70104000D03*
X151892000Y-72644000D03*
X151892000Y-75184000D03*
X151892000Y-77724000D03*
X151892000Y-80264000D03*
X151892000Y-82804000D03*
X151892000Y-85344000D03*
X151892000Y-87884000D03*
X151892000Y-90424000D03*
X151892000Y-92964000D03*
X151892000Y-95504000D03*
X151892000Y-98044000D03*
X151892000Y-100584000D03*
X151892000Y-103124000D03*
X151892000Y-105664000D03*
X151892000Y-108204000D03*
X151892000Y-110744000D03*
D10*
X156972000Y-81534000D03*
D11*
X162052000Y-81534000D03*
D12*
X156972000Y-63754000D03*
D13*
X156972000Y-66294000D03*
X156972000Y-68834000D03*
X156972000Y-71374000D03*
X164592000Y-71374000D03*
X164592000Y-68834000D03*
X164592000Y-66294000D03*
X164592000Y-63754000D03*
D14*
X145288000Y-92964000D03*
D15*
X147828000Y-92964000D03*
D16*
X147828000Y-83918315D03*
D17*
X147828000Y-88998315D03*
D10*
X162052000Y-76454000D03*
D11*
X156972000Y-76454000D03*
D10*
X173228000Y-85090000D03*
D11*
X178308000Y-85090000D03*
D10*
X162052000Y-101854000D03*
D11*
X156972000Y-101854000D03*
D10*
X156972000Y-109474000D03*
D11*
X162052000Y-109474000D03*
D16*
X147828000Y-67564000D03*
D17*
X147828000Y-72644000D03*
D10*
X144780000Y-72898000D03*
D11*
X144780000Y-67818000D03*
D18*
X168402000Y-117094000D03*
X168402000Y-119594000D03*
D14*
X145288000Y-76454000D03*
D15*
X147828000Y-76454000D03*
D10*
X168656000Y-131318000D03*
D11*
X168656000Y-126238000D03*
D10*
X156972000Y-106934000D03*
D11*
X162052000Y-106934000D03*
D19*
X170942000Y-114046000D03*
X174244000Y-114046000D03*
X159512000Y-88646000D03*
X173761500Y-116840000D03*
X172212000Y-117856000D03*
D20*
X170942000Y-114046000D02*
X174244000Y-114046000D01*
X159512000Y-86106000D02*
X161544000Y-84074000D01*
X159512000Y-88646000D02*
X159512000Y-86106000D01*
X159512000Y-84074000D02*
X162052000Y-81534000D01*
X159512000Y-86106000D02*
X159512000Y-84074000D01*
X161544000Y-84074000D02*
X162052000Y-84074000D01*
X156972000Y-115570000D02*
X156972000Y-118364000D01*
X154432000Y-103124000D02*
X154432000Y-113030000D01*
X151892000Y-100584000D02*
X154432000Y-103124000D01*
X154432000Y-113030000D02*
X156972000Y-115570000D01*
X172212000Y-117856000D02*
X172745500Y-117856000D01*
X172745500Y-117856000D02*
X173761500Y-116840000D01*
G04 #@! TA.AperFunction,Conductor*
G36*
X150801665Y-60979685D02*
G01*
X150847420Y-61032489D01*
X150857364Y-61101647D01*
X150828339Y-61165203D01*
X150808937Y-61183267D01*
X150799671Y-61190203D01*
X150799669Y-61190204D01*
X150736879Y-61237208D01*
X150684453Y-61276454D01*
X150598204Y-61391668D01*
X150547910Y-61526515D01*
X150547909Y-61526517D01*
X150541500Y-61586127D01*
X150541500Y-61589448D01*
X150541500Y-61589449D01*
X150541500Y-63378560D01*
X150541500Y-63378578D01*
X150541501Y-63381872D01*
X150547909Y-63441483D01*
X150598204Y-63576331D01*
X150684454Y-63691546D01*
X150799669Y-63777796D01*
X150911907Y-63819658D01*
X150931082Y-63826810D01*
X150987016Y-63868681D01*
X151011433Y-63934146D01*
X150996581Y-64002419D01*
X150975431Y-64030673D01*
X150853503Y-64152601D01*
X150717965Y-64346170D01*
X150618097Y-64560336D01*
X150556936Y-64788592D01*
X150536340Y-65024000D01*
X150556936Y-65259407D01*
X150566193Y-65293953D01*
X150618097Y-65487663D01*
X150717965Y-65701830D01*
X150853505Y-65895401D01*
X151020599Y-66062495D01*
X151206160Y-66192426D01*
X151249783Y-66247002D01*
X151256976Y-66316501D01*
X151225454Y-66378855D01*
X151206160Y-66395574D01*
X151119125Y-66456517D01*
X151020595Y-66525508D01*
X150853505Y-66692598D01*
X150717965Y-66886170D01*
X150618097Y-67100336D01*
X150556936Y-67328592D01*
X150536340Y-67564000D01*
X150556936Y-67799407D01*
X150566193Y-67833953D01*
X150618097Y-68027663D01*
X150717965Y-68241830D01*
X150853505Y-68435401D01*
X151020599Y-68602495D01*
X151206160Y-68732426D01*
X151249783Y-68787002D01*
X151256976Y-68856501D01*
X151225454Y-68918855D01*
X151206158Y-68935575D01*
X151022035Y-69064500D01*
X151020595Y-69065508D01*
X150853505Y-69232598D01*
X150717965Y-69426170D01*
X150618097Y-69640336D01*
X150556936Y-69868592D01*
X150536340Y-70103999D01*
X150556936Y-70339407D01*
X150566193Y-70373953D01*
X150618097Y-70567663D01*
X150717965Y-70781830D01*
X150853505Y-70975401D01*
X151020599Y-71142495D01*
X151206160Y-71272426D01*
X151249783Y-71327002D01*
X151256976Y-71396501D01*
X151225454Y-71458855D01*
X151206159Y-71475575D01*
X151020595Y-71605508D01*
X150853505Y-71772598D01*
X150717965Y-71966170D01*
X150618097Y-72180336D01*
X150556936Y-72408592D01*
X150536340Y-72644000D01*
X150556936Y-72879407D01*
X150601709Y-73046502D01*
X150618097Y-73107663D01*
X150717965Y-73321830D01*
X150853505Y-73515401D01*
X151020599Y-73682495D01*
X151206160Y-73812426D01*
X151249783Y-73867002D01*
X151256976Y-73936501D01*
X151225454Y-73998855D01*
X151206160Y-74015574D01*
X151022035Y-74144500D01*
X151020595Y-74145508D01*
X150853505Y-74312598D01*
X150717965Y-74506170D01*
X150618097Y-74720336D01*
X150556936Y-74948592D01*
X150536340Y-75183999D01*
X150556936Y-75419407D01*
X150594460Y-75559449D01*
X150618097Y-75647663D01*
X150717965Y-75861830D01*
X150853505Y-76055401D01*
X151020599Y-76222495D01*
X151206160Y-76352426D01*
X151249783Y-76407002D01*
X151256976Y-76476501D01*
X151225454Y-76538855D01*
X151206160Y-76555574D01*
X151034837Y-76675536D01*
X151020595Y-76685508D01*
X150853505Y-76852598D01*
X150717965Y-77046170D01*
X150618097Y-77260336D01*
X150556936Y-77488592D01*
X150536340Y-77723999D01*
X150556936Y-77959407D01*
X150601709Y-78126501D01*
X150618097Y-78187663D01*
X150717965Y-78401830D01*
X150853505Y-78595401D01*
X151020599Y-78762495D01*
X151206160Y-78892426D01*
X151249783Y-78947002D01*
X151256976Y-79016501D01*
X151225454Y-79078855D01*
X151206160Y-79095574D01*
X151034837Y-79215536D01*
X151020595Y-79225508D01*
X150853505Y-79392598D01*
X150717965Y-79586170D01*
X150618097Y-79800336D01*
X150556936Y-80028592D01*
X150536340Y-80264000D01*
X150556936Y-80499407D01*
X150601709Y-80666501D01*
X150618097Y-80727663D01*
X150717965Y-80941830D01*
X150853505Y-81135401D01*
X151020599Y-81302495D01*
X151206160Y-81432426D01*
X151249783Y-81487002D01*
X151256976Y-81556501D01*
X151225454Y-81618855D01*
X151206160Y-81635574D01*
X151034837Y-81755536D01*
X151020595Y-81765508D01*
X150853505Y-81932598D01*
X150717965Y-82126170D01*
X150618097Y-82340336D01*
X150556936Y-82568592D01*
X150536340Y-82803999D01*
X150556936Y-83039407D01*
X150601709Y-83206501D01*
X150618097Y-83267663D01*
X150717965Y-83481830D01*
X150853505Y-83675401D01*
X151020599Y-83842495D01*
X151206160Y-83972426D01*
X151249783Y-84027002D01*
X151256976Y-84096501D01*
X151225454Y-84158855D01*
X151206160Y-84175574D01*
X151034837Y-84295536D01*
X151020595Y-84305508D01*
X150853505Y-84472598D01*
X150717965Y-84666170D01*
X150618097Y-84880336D01*
X150556936Y-85108592D01*
X150536340Y-85344000D01*
X150556936Y-85579407D01*
X150595864Y-85724688D01*
X150618097Y-85807663D01*
X150717965Y-86021830D01*
X150853505Y-86215401D01*
X151020599Y-86382495D01*
X151206160Y-86512426D01*
X151249783Y-86567002D01*
X151256976Y-86636501D01*
X151225454Y-86698855D01*
X151206159Y-86715575D01*
X151020595Y-86845508D01*
X150853505Y-87012598D01*
X150717965Y-87206170D01*
X150618097Y-87420336D01*
X150556936Y-87648592D01*
X150536340Y-87884000D01*
X150556936Y-88119407D01*
X150590995Y-88246515D01*
X150618097Y-88347663D01*
X150717965Y-88561830D01*
X150853505Y-88755401D01*
X151020599Y-88922495D01*
X151206160Y-89052426D01*
X151249783Y-89107002D01*
X151256976Y-89176501D01*
X151225454Y-89238855D01*
X151206160Y-89255574D01*
X151034837Y-89375536D01*
X151020595Y-89385508D01*
X150853505Y-89552598D01*
X150717965Y-89746170D01*
X150618097Y-89960336D01*
X150556936Y-90188592D01*
X150536340Y-90423999D01*
X150556936Y-90659407D01*
X150566193Y-90693953D01*
X150618097Y-90887663D01*
X150717965Y-91101830D01*
X150853505Y-91295401D01*
X151020599Y-91462495D01*
X151206160Y-91592426D01*
X151249783Y-91647002D01*
X151256976Y-91716501D01*
X151225454Y-91778855D01*
X151206159Y-91795575D01*
X151020595Y-91925508D01*
X150853505Y-92092598D01*
X150717965Y-92286170D01*
X150618097Y-92500336D01*
X150556936Y-92728592D01*
X150536340Y-92964000D01*
X150556936Y-93199407D01*
X150601709Y-93366501D01*
X150618097Y-93427663D01*
X150717965Y-93641830D01*
X150853505Y-93835401D01*
X151020599Y-94002495D01*
X151206160Y-94132426D01*
X151249783Y-94187002D01*
X151256976Y-94256501D01*
X151225454Y-94318855D01*
X151206159Y-94335575D01*
X151020595Y-94465508D01*
X150853505Y-94632598D01*
X150717965Y-94826170D01*
X150618097Y-95040336D01*
X150556936Y-95268592D01*
X150536340Y-95503999D01*
X150556936Y-95739407D01*
X150585856Y-95847337D01*
X150618097Y-95967663D01*
X150717965Y-96181830D01*
X150853505Y-96375401D01*
X151020599Y-96542495D01*
X151206160Y-96672426D01*
X151249783Y-96727002D01*
X151256976Y-96796501D01*
X151225454Y-96858855D01*
X151206159Y-96875575D01*
X151020595Y-97005508D01*
X150853505Y-97172598D01*
X150717965Y-97366170D01*
X150618097Y-97580336D01*
X150556936Y-97808592D01*
X150536340Y-98044000D01*
X150556936Y-98279407D01*
X150584655Y-98382855D01*
X150618097Y-98507663D01*
X150717965Y-98721830D01*
X150853505Y-98915401D01*
X151020599Y-99082495D01*
X151206160Y-99212426D01*
X151249783Y-99267002D01*
X151256976Y-99336501D01*
X151225454Y-99398855D01*
X151206159Y-99415575D01*
X151020595Y-99545508D01*
X150853505Y-99712598D01*
X150717965Y-99906170D01*
X150618097Y-100120336D01*
X150556936Y-100348592D01*
X150536340Y-100584000D01*
X150556936Y-100819407D01*
X150589217Y-100939880D01*
X150618097Y-101047663D01*
X150717965Y-101261830D01*
X150853505Y-101455401D01*
X151020599Y-101622495D01*
X151206160Y-101752426D01*
X151249783Y-101807002D01*
X151256976Y-101876501D01*
X151225454Y-101938855D01*
X151206158Y-101955575D01*
X151034837Y-102075536D01*
X151020595Y-102085508D01*
X150853505Y-102252598D01*
X150717965Y-102446170D01*
X150618097Y-102660336D01*
X150556936Y-102888592D01*
X150536340Y-103123999D01*
X150556936Y-103359407D01*
X150584573Y-103462549D01*
X150618097Y-103587663D01*
X150717965Y-103801830D01*
X150853505Y-103995401D01*
X151020599Y-104162495D01*
X151206160Y-104292426D01*
X151249783Y-104347002D01*
X151256976Y-104416501D01*
X151225454Y-104478855D01*
X151206160Y-104495574D01*
X151034837Y-104615536D01*
X151020595Y-104625508D01*
X150853505Y-104792598D01*
X150717965Y-104986170D01*
X150618097Y-105200336D01*
X150556936Y-105428592D01*
X150536340Y-105664000D01*
X150556936Y-105899407D01*
X150584655Y-106002855D01*
X150618097Y-106127663D01*
X150717965Y-106341830D01*
X150853505Y-106535401D01*
X151020599Y-106702495D01*
X151206160Y-106832426D01*
X151249783Y-106887002D01*
X151256976Y-106956501D01*
X151225454Y-107018855D01*
X151206160Y-107035574D01*
X151034837Y-107155536D01*
X151020595Y-107165508D01*
X150853505Y-107332598D01*
X150717965Y-107526170D01*
X150618097Y-107740336D01*
X150556936Y-107968592D01*
X150536340Y-108203999D01*
X150556936Y-108439407D01*
X150589217Y-108559880D01*
X150618097Y-108667663D01*
X150717965Y-108881830D01*
X150853505Y-109075401D01*
X151020599Y-109242495D01*
X151206160Y-109372426D01*
X151249783Y-109427002D01*
X151256976Y-109496501D01*
X151225454Y-109558855D01*
X151206160Y-109575574D01*
X151034837Y-109695536D01*
X151020595Y-109705508D01*
X150853505Y-109872598D01*
X150717965Y-110066170D01*
X150618097Y-110280336D01*
X150556936Y-110508592D01*
X150536340Y-110744000D01*
X150556936Y-110979407D01*
X150584573Y-111082549D01*
X150618097Y-111207663D01*
X150717965Y-111421830D01*
X150853505Y-111615401D01*
X151020599Y-111782495D01*
X151214170Y-111918035D01*
X151428337Y-112017903D01*
X151656592Y-112079063D01*
X151892000Y-112099659D01*
X152127408Y-112079063D01*
X152355663Y-112017903D01*
X152569830Y-111918035D01*
X152763401Y-111782495D01*
X152930495Y-111615401D01*
X153066035Y-111421830D01*
X153165903Y-111207663D01*
X153227063Y-110979408D01*
X153247659Y-110744000D01*
X153227063Y-110508592D01*
X153165903Y-110280337D01*
X153066035Y-110066171D01*
X152930495Y-109872599D01*
X152763401Y-109705505D01*
X152577839Y-109575573D01*
X152534216Y-109520998D01*
X152527022Y-109451500D01*
X152558545Y-109389145D01*
X152577837Y-109372428D01*
X152763401Y-109242495D01*
X152930495Y-109075401D01*
X153066035Y-108881830D01*
X153165903Y-108667663D01*
X153227063Y-108439408D01*
X153247659Y-108204000D01*
X153247021Y-108196713D01*
X153227063Y-107968592D01*
X153199528Y-107865830D01*
X153165903Y-107740337D01*
X153066035Y-107526171D01*
X152930495Y-107332599D01*
X152763401Y-107165505D01*
X152577839Y-107035573D01*
X152534215Y-106980997D01*
X152527023Y-106911498D01*
X152558545Y-106849144D01*
X152577831Y-106832432D01*
X152763401Y-106702495D01*
X152930495Y-106535401D01*
X153066035Y-106341830D01*
X153165903Y-106127663D01*
X153227063Y-105899408D01*
X153247659Y-105664000D01*
X153227063Y-105428592D01*
X153165903Y-105200337D01*
X153066035Y-104986171D01*
X152930495Y-104792599D01*
X152763401Y-104625505D01*
X152577839Y-104495573D01*
X152534216Y-104440998D01*
X152527022Y-104371500D01*
X152558545Y-104309145D01*
X152577837Y-104292428D01*
X152763401Y-104162495D01*
X152930495Y-103995401D01*
X153066035Y-103801830D01*
X153165903Y-103587663D01*
X153227063Y-103359408D01*
X153238002Y-103234382D01*
X153248598Y-103113271D01*
X153274050Y-103048202D01*
X153330641Y-103007223D01*
X153400403Y-103003345D01*
X153459805Y-103036396D01*
X153504096Y-103080686D01*
X153770181Y-103346771D01*
X153803666Y-103408094D01*
X153806500Y-103434452D01*
X153806500Y-112947256D01*
X153804235Y-112967766D01*
X153806439Y-113037872D01*
X153806500Y-113041767D01*
X153806500Y-113069350D01*
X153806988Y-113073219D01*
X153806989Y-113073225D01*
X153807004Y-113073343D01*
X153807918Y-113084967D01*
X153809290Y-113128626D01*
X153814879Y-113147860D01*
X153818825Y-113166916D01*
X153821335Y-113186792D01*
X153837414Y-113227404D01*
X153841197Y-113238451D01*
X153853382Y-113280391D01*
X153863580Y-113297635D01*
X153872136Y-113315100D01*
X153879514Y-113333732D01*
X153879515Y-113333733D01*
X153905180Y-113369059D01*
X153911593Y-113378822D01*
X153933826Y-113416416D01*
X153933829Y-113416419D01*
X153933830Y-113416420D01*
X153947995Y-113430585D01*
X153960627Y-113445375D01*
X153972406Y-113461587D01*
X154006058Y-113489426D01*
X154014699Y-113497289D01*
X156310181Y-115792771D01*
X156343666Y-115854094D01*
X156346500Y-115880452D01*
X156346500Y-116939500D01*
X156326815Y-117006539D01*
X156274011Y-117052294D01*
X156222501Y-117063500D01*
X156127439Y-117063500D01*
X156127420Y-117063500D01*
X156124128Y-117063501D01*
X156120848Y-117063853D01*
X156120840Y-117063854D01*
X156064515Y-117069909D01*
X155929669Y-117120204D01*
X155814454Y-117206454D01*
X155728204Y-117321668D01*
X155677909Y-117456516D01*
X155674555Y-117487716D01*
X155671500Y-117516127D01*
X155671500Y-117519448D01*
X155671500Y-117519449D01*
X155671500Y-119208560D01*
X155671500Y-119208578D01*
X155671501Y-119211872D01*
X155671853Y-119215152D01*
X155671854Y-119215159D01*
X155675889Y-119252689D01*
X155677909Y-119271483D01*
X155728204Y-119406331D01*
X155814454Y-119521546D01*
X155929669Y-119607796D01*
X156064517Y-119658091D01*
X156099594Y-119661862D01*
X156164143Y-119688598D01*
X156203993Y-119745989D01*
X156206488Y-119815814D01*
X156170837Y-119875904D01*
X156157463Y-119886725D01*
X156132861Y-119903951D01*
X155971953Y-120064859D01*
X155841432Y-120251264D01*
X155745261Y-120457502D01*
X155686364Y-120677310D01*
X155666531Y-120903999D01*
X155686364Y-121130689D01*
X155745261Y-121350497D01*
X155841432Y-121556735D01*
X155971953Y-121743140D01*
X156132859Y-121904046D01*
X156218963Y-121964336D01*
X156319266Y-122034568D01*
X156377273Y-122061617D01*
X156429713Y-122107789D01*
X156448865Y-122174982D01*
X156428650Y-122241864D01*
X156377276Y-122286380D01*
X156319266Y-122313431D01*
X156132859Y-122443953D01*
X155971953Y-122604859D01*
X155841432Y-122791264D01*
X155745261Y-122997502D01*
X155686364Y-123217310D01*
X155666531Y-123444000D01*
X155686364Y-123670689D01*
X155745261Y-123890497D01*
X155841432Y-124096735D01*
X155971953Y-124283140D01*
X156132859Y-124444046D01*
X156227391Y-124510237D01*
X156319266Y-124574568D01*
X156377275Y-124601618D01*
X156429714Y-124647791D01*
X156448865Y-124714985D01*
X156428649Y-124781866D01*
X156377275Y-124826382D01*
X156319263Y-124853433D01*
X156132859Y-124983953D01*
X155971953Y-125144859D01*
X155841432Y-125331264D01*
X155745261Y-125537502D01*
X155686364Y-125757310D01*
X155666531Y-125983999D01*
X155686364Y-126210689D01*
X155745261Y-126430497D01*
X155841432Y-126636735D01*
X155971953Y-126823140D01*
X156132859Y-126984046D01*
X156227391Y-127050237D01*
X156319266Y-127114568D01*
X156377275Y-127141618D01*
X156429714Y-127187791D01*
X156448865Y-127254985D01*
X156428649Y-127321866D01*
X156377275Y-127366382D01*
X156319263Y-127393433D01*
X156132859Y-127523953D01*
X155971953Y-127684859D01*
X155841432Y-127871264D01*
X155745261Y-128077502D01*
X155686364Y-128297310D01*
X155666531Y-128524000D01*
X155686364Y-128750689D01*
X155745261Y-128970497D01*
X155841432Y-129176735D01*
X155971953Y-129363140D01*
X156132859Y-129524046D01*
X156319263Y-129654566D01*
X156319266Y-129654568D01*
X156377273Y-129681617D01*
X156429713Y-129727789D01*
X156448865Y-129794982D01*
X156428650Y-129861864D01*
X156377276Y-129906380D01*
X156319266Y-129933431D01*
X156132859Y-130063953D01*
X155971953Y-130224859D01*
X155841432Y-130411264D01*
X155745261Y-130617502D01*
X155686364Y-130837310D01*
X155666531Y-131064000D01*
X155686364Y-131290689D01*
X155745261Y-131510497D01*
X155841432Y-131716735D01*
X155971953Y-131903140D01*
X156132859Y-132064046D01*
X156319264Y-132194567D01*
X156319265Y-132194567D01*
X156319266Y-132194568D01*
X156377865Y-132221893D01*
X156430304Y-132268065D01*
X156449456Y-132335259D01*
X156429240Y-132402140D01*
X156377866Y-132446656D01*
X156319522Y-132473863D01*
X156133180Y-132604341D01*
X155972341Y-132765180D01*
X155841865Y-132951519D01*
X155745733Y-133157673D01*
X155693128Y-133353999D01*
X155693128Y-133354000D01*
X156656314Y-133354000D01*
X156644359Y-133365955D01*
X156586835Y-133478852D01*
X156567014Y-133604000D01*
X156586835Y-133729148D01*
X156644359Y-133842045D01*
X156656314Y-133854000D01*
X155693128Y-133854000D01*
X155745733Y-134050326D01*
X155841865Y-134256480D01*
X155972341Y-134442819D01*
X156133180Y-134603658D01*
X156319519Y-134734134D01*
X156525673Y-134830266D01*
X156721999Y-134882871D01*
X156722000Y-134882871D01*
X156722000Y-133919686D01*
X156733955Y-133931641D01*
X156846852Y-133989165D01*
X156940519Y-134004000D01*
X157003481Y-134004000D01*
X157097148Y-133989165D01*
X157210045Y-133931641D01*
X157222000Y-133919686D01*
X157222000Y-134882871D01*
X157418326Y-134830266D01*
X157624480Y-134734134D01*
X157810819Y-134603658D01*
X157971658Y-134442819D01*
X158102134Y-134256480D01*
X158198266Y-134050326D01*
X158250872Y-133854000D01*
X157287686Y-133854000D01*
X157299641Y-133842045D01*
X157357165Y-133729148D01*
X157376986Y-133604000D01*
X157376986Y-133603999D01*
X163286531Y-133603999D01*
X163306364Y-133830689D01*
X163365261Y-134050497D01*
X163461432Y-134256735D01*
X163591953Y-134443140D01*
X163752859Y-134604046D01*
X163939264Y-134734567D01*
X163939265Y-134734567D01*
X163939266Y-134734568D01*
X164145504Y-134830739D01*
X164365308Y-134889635D01*
X164592000Y-134909468D01*
X164818692Y-134889635D01*
X165038496Y-134830739D01*
X165244734Y-134734568D01*
X165431139Y-134604047D01*
X165592047Y-134443139D01*
X165722568Y-134256734D01*
X165790059Y-134112000D01*
X176494531Y-134112000D01*
X176514364Y-134338689D01*
X176573261Y-134558497D01*
X176669432Y-134764735D01*
X176799953Y-134951140D01*
X176960859Y-135112046D01*
X177147264Y-135242567D01*
X177147265Y-135242567D01*
X177147266Y-135242568D01*
X177353504Y-135338739D01*
X177573308Y-135397635D01*
X177743216Y-135412500D01*
X177745925Y-135412500D01*
X177854075Y-135412500D01*
X177856784Y-135412500D01*
X178026692Y-135397635D01*
X178246496Y-135338739D01*
X178452734Y-135242568D01*
X178639139Y-135112047D01*
X178800047Y-134951139D01*
X178930568Y-134764734D01*
X179026739Y-134558496D01*
X179085635Y-134338692D01*
X179105468Y-134112000D01*
X179085635Y-133885308D01*
X179026739Y-133665504D01*
X178930568Y-133459266D01*
X178873183Y-133377310D01*
X178800046Y-133272859D01*
X178639140Y-133111953D01*
X178452735Y-132981432D01*
X178246497Y-132885261D01*
X178026689Y-132826364D01*
X177859484Y-132811736D01*
X177859479Y-132811735D01*
X177856784Y-132811500D01*
X177743216Y-132811500D01*
X177740521Y-132811735D01*
X177740515Y-132811736D01*
X177573310Y-132826364D01*
X177353502Y-132885261D01*
X177147264Y-132981432D01*
X176960859Y-133111953D01*
X176799953Y-133272859D01*
X176669432Y-133459264D01*
X176573261Y-133665502D01*
X176514364Y-133885310D01*
X176494531Y-134112000D01*
X165790059Y-134112000D01*
X165818739Y-134050496D01*
X165877635Y-133830692D01*
X165897468Y-133604000D01*
X165877635Y-133377308D01*
X165818739Y-133157504D01*
X165722568Y-132951266D01*
X165676352Y-132885261D01*
X165592046Y-132764859D01*
X165431140Y-132603953D01*
X165244733Y-132473431D01*
X165186725Y-132446382D01*
X165134285Y-132400210D01*
X165115133Y-132333017D01*
X165135348Y-132266135D01*
X165186725Y-132221618D01*
X165244734Y-132194568D01*
X165431139Y-132064047D01*
X165592047Y-131903139D01*
X165722568Y-131716734D01*
X165818739Y-131510496D01*
X165870318Y-131317999D01*
X167450357Y-131317999D01*
X167470885Y-131539537D01*
X167531769Y-131753526D01*
X167630941Y-131952688D01*
X167765019Y-132130237D01*
X167929437Y-132280124D01*
X168118595Y-132397245D01*
X168118597Y-132397245D01*
X168118599Y-132397247D01*
X168326060Y-132477618D01*
X168544757Y-132518500D01*
X168544759Y-132518500D01*
X168767241Y-132518500D01*
X168767243Y-132518500D01*
X168985940Y-132477618D01*
X169193401Y-132397247D01*
X169382562Y-132280124D01*
X169546981Y-132130236D01*
X169681058Y-131952689D01*
X169780229Y-131753528D01*
X169795833Y-131698688D01*
X169806734Y-131660374D01*
X169844013Y-131601281D01*
X169907322Y-131571723D01*
X169976562Y-131581085D01*
X170029749Y-131626395D01*
X170045266Y-131660374D01*
X170071769Y-131753526D01*
X170170941Y-131952688D01*
X170305019Y-132130237D01*
X170469437Y-132280124D01*
X170658595Y-132397245D01*
X170658597Y-132397245D01*
X170658599Y-132397247D01*
X170866060Y-132477618D01*
X171084757Y-132518500D01*
X171084759Y-132518500D01*
X171307241Y-132518500D01*
X171307243Y-132518500D01*
X171525940Y-132477618D01*
X171733401Y-132397247D01*
X171922562Y-132280124D01*
X172086981Y-132130236D01*
X172221058Y-131952689D01*
X172320229Y-131753528D01*
X172381115Y-131539536D01*
X172401643Y-131318000D01*
X172381115Y-131096464D01*
X172356401Y-131009604D01*
X172320230Y-130882473D01*
X172221058Y-130683311D01*
X172086980Y-130505762D01*
X171922562Y-130355875D01*
X171733404Y-130238754D01*
X171672174Y-130215033D01*
X171525940Y-130158382D01*
X171307243Y-130117500D01*
X171084757Y-130117500D01*
X170866060Y-130158382D01*
X170658595Y-130238754D01*
X170469437Y-130355875D01*
X170305019Y-130505762D01*
X170170941Y-130683311D01*
X170071769Y-130882473D01*
X170045266Y-130975625D01*
X170007987Y-131034719D01*
X169944677Y-131064276D01*
X169875438Y-131054914D01*
X169822251Y-131009604D01*
X169806734Y-130975625D01*
X169780230Y-130882473D01*
X169681058Y-130683311D01*
X169546980Y-130505762D01*
X169382562Y-130355875D01*
X169193404Y-130238754D01*
X169132174Y-130215033D01*
X168985940Y-130158382D01*
X168767243Y-130117500D01*
X168544757Y-130117500D01*
X168326060Y-130158382D01*
X168118595Y-130238754D01*
X167929437Y-130355875D01*
X167765019Y-130505762D01*
X167630941Y-130683311D01*
X167531769Y-130882473D01*
X167470885Y-131096462D01*
X167450357Y-131317999D01*
X165870318Y-131317999D01*
X165877635Y-131290692D01*
X165897468Y-131064000D01*
X165877635Y-130837308D01*
X165818739Y-130617504D01*
X165722568Y-130411266D01*
X165683784Y-130355875D01*
X165592046Y-130224859D01*
X165431140Y-130063953D01*
X165244733Y-129933431D01*
X165186725Y-129906382D01*
X165134285Y-129860210D01*
X165115133Y-129793017D01*
X165135348Y-129726135D01*
X165186725Y-129681618D01*
X165244734Y-129654568D01*
X165431139Y-129524047D01*
X165592047Y-129363139D01*
X165722568Y-129176734D01*
X165818739Y-128970496D01*
X165877635Y-128750692D01*
X165897468Y-128524000D01*
X165877635Y-128297308D01*
X165818739Y-128077504D01*
X165722568Y-127871266D01*
X165592047Y-127684861D01*
X165592046Y-127684859D01*
X165431140Y-127523953D01*
X165244733Y-127393431D01*
X165186725Y-127366382D01*
X165134285Y-127320210D01*
X165115133Y-127253017D01*
X165135348Y-127186135D01*
X165186725Y-127141618D01*
X165244734Y-127114568D01*
X165431139Y-126984047D01*
X165592047Y-126823139D01*
X165722568Y-126636734D01*
X165818739Y-126430496D01*
X165870318Y-126237999D01*
X167450357Y-126237999D01*
X167470885Y-126459537D01*
X167531769Y-126673526D01*
X167630941Y-126872688D01*
X167765019Y-127050237D01*
X167929437Y-127200124D01*
X168118595Y-127317245D01*
X168118597Y-127317245D01*
X168118599Y-127317247D01*
X168326060Y-127397618D01*
X168544757Y-127438500D01*
X168544759Y-127438500D01*
X168767241Y-127438500D01*
X168767243Y-127438500D01*
X168985940Y-127397618D01*
X169193401Y-127317247D01*
X169382562Y-127200124D01*
X169476412Y-127114568D01*
X169546980Y-127050237D01*
X169546981Y-127050236D01*
X169681058Y-126872689D01*
X169780229Y-126673528D01*
X169795833Y-126618688D01*
X169806734Y-126580374D01*
X169844013Y-126521281D01*
X169907322Y-126491723D01*
X169976562Y-126501085D01*
X170029749Y-126546395D01*
X170045266Y-126580374D01*
X170071769Y-126673526D01*
X170170941Y-126872688D01*
X170305019Y-127050237D01*
X170469437Y-127200124D01*
X170658595Y-127317245D01*
X170658597Y-127317245D01*
X170658599Y-127317247D01*
X170866060Y-127397618D01*
X171084757Y-127438500D01*
X171084759Y-127438500D01*
X171307241Y-127438500D01*
X171307243Y-127438500D01*
X171525940Y-127397618D01*
X171733401Y-127317247D01*
X171922562Y-127200124D01*
X172016412Y-127114568D01*
X172086980Y-127050237D01*
X172086981Y-127050236D01*
X172221058Y-126872689D01*
X172320229Y-126673528D01*
X172381115Y-126459536D01*
X172401643Y-126238000D01*
X172381115Y-126016464D01*
X172356401Y-125929604D01*
X172320230Y-125802473D01*
X172221058Y-125603311D01*
X172086980Y-125425762D01*
X171922562Y-125275875D01*
X171733404Y-125158754D01*
X171672174Y-125135033D01*
X171525940Y-125078382D01*
X171307243Y-125037500D01*
X171084757Y-125037500D01*
X170866060Y-125078382D01*
X170658595Y-125158754D01*
X170469437Y-125275875D01*
X170305019Y-125425762D01*
X170170941Y-125603311D01*
X170071769Y-125802473D01*
X170045266Y-125895625D01*
X170007987Y-125954719D01*
X169944677Y-125984276D01*
X169875438Y-125974914D01*
X169822251Y-125929604D01*
X169806734Y-125895625D01*
X169780230Y-125802473D01*
X169681058Y-125603311D01*
X169546980Y-125425762D01*
X169382562Y-125275875D01*
X169193404Y-125158754D01*
X169132174Y-125135033D01*
X168985940Y-125078382D01*
X168767243Y-125037500D01*
X168544757Y-125037500D01*
X168326060Y-125078382D01*
X168118595Y-125158754D01*
X167929437Y-125275875D01*
X167765019Y-125425762D01*
X167630941Y-125603311D01*
X167531769Y-125802473D01*
X167470885Y-126016462D01*
X167450357Y-126237999D01*
X165870318Y-126237999D01*
X165877635Y-126210692D01*
X165897468Y-125984000D01*
X165877635Y-125757308D01*
X165818739Y-125537504D01*
X165722568Y-125331266D01*
X165683784Y-125275875D01*
X165592046Y-125144859D01*
X165431140Y-124983953D01*
X165244733Y-124853431D01*
X165186725Y-124826382D01*
X165134285Y-124780210D01*
X165115133Y-124713017D01*
X165135348Y-124646135D01*
X165186725Y-124601618D01*
X165244734Y-124574568D01*
X165431139Y-124444047D01*
X165592047Y-124283139D01*
X165722568Y-124096734D01*
X165818739Y-123890496D01*
X165877635Y-123670692D01*
X165897468Y-123444000D01*
X165877635Y-123217308D01*
X165818739Y-122997504D01*
X165722568Y-122791266D01*
X165683784Y-122735875D01*
X165592046Y-122604859D01*
X165431140Y-122443953D01*
X165244736Y-122313433D01*
X165186721Y-122286380D01*
X165186132Y-122286105D01*
X165133695Y-122239933D01*
X165114543Y-122172739D01*
X165134759Y-122105858D01*
X165186135Y-122061342D01*
X165244479Y-122034135D01*
X165430819Y-121903658D01*
X165591658Y-121742819D01*
X165722134Y-121556480D01*
X165818266Y-121350326D01*
X165870872Y-121154000D01*
X164907686Y-121154000D01*
X164919641Y-121142045D01*
X164977165Y-121029148D01*
X164996986Y-120904000D01*
X164977165Y-120778852D01*
X164919641Y-120665955D01*
X164907686Y-120654000D01*
X165870872Y-120654000D01*
X165870871Y-120653999D01*
X165818266Y-120457673D01*
X165722134Y-120251519D01*
X165591658Y-120065180D01*
X165430819Y-119904341D01*
X165244482Y-119773866D01*
X165186133Y-119746657D01*
X165133694Y-119700484D01*
X165114543Y-119633290D01*
X165134759Y-119566409D01*
X165186134Y-119521893D01*
X165244734Y-119494568D01*
X165431139Y-119364047D01*
X165592047Y-119203139D01*
X165722568Y-119016734D01*
X165818739Y-118810496D01*
X165877635Y-118590692D01*
X165897468Y-118364000D01*
X165877635Y-118137308D01*
X165818739Y-117917504D01*
X165722568Y-117711266D01*
X165692093Y-117667742D01*
X165592046Y-117524859D01*
X165431140Y-117363953D01*
X165244735Y-117233432D01*
X165038497Y-117137261D01*
X164877040Y-117093999D01*
X167096531Y-117093999D01*
X167116364Y-117320689D01*
X167175261Y-117540497D01*
X167271432Y-117746735D01*
X167401953Y-117933140D01*
X167562859Y-118094046D01*
X167749264Y-118224567D01*
X167749265Y-118224567D01*
X167749266Y-118224568D01*
X167764975Y-118231893D01*
X167817414Y-118278065D01*
X167836566Y-118345259D01*
X167816350Y-118412140D01*
X167764977Y-118456656D01*
X167749517Y-118463865D01*
X167676527Y-118514973D01*
X167676526Y-118514973D01*
X168357600Y-119196046D01*
X168276852Y-119208835D01*
X168163955Y-119266359D01*
X168074359Y-119355955D01*
X168016835Y-119468852D01*
X168004046Y-119549599D01*
X167322973Y-118868526D01*
X167322973Y-118868527D01*
X167271865Y-118941516D01*
X167175733Y-119147672D01*
X167116858Y-119367397D01*
X167097033Y-119594000D01*
X167116858Y-119820602D01*
X167175733Y-120040326D01*
X167271866Y-120246484D01*
X167322972Y-120319471D01*
X167322974Y-120319472D01*
X168004046Y-119638399D01*
X168016835Y-119719148D01*
X168074359Y-119832045D01*
X168163955Y-119921641D01*
X168276852Y-119979165D01*
X168357599Y-119991953D01*
X167676526Y-120673025D01*
X167676526Y-120673026D01*
X167749515Y-120724133D01*
X167955673Y-120820266D01*
X168175397Y-120879141D01*
X168402000Y-120898966D01*
X168628602Y-120879141D01*
X168848326Y-120820266D01*
X169054480Y-120724134D01*
X169127472Y-120673025D01*
X168446401Y-119991953D01*
X168527148Y-119979165D01*
X168640045Y-119921641D01*
X168729641Y-119832045D01*
X168787165Y-119719148D01*
X168799953Y-119638400D01*
X169481025Y-120319472D01*
X169532134Y-120246480D01*
X169628266Y-120040326D01*
X169687141Y-119820602D01*
X169706966Y-119594000D01*
X169687141Y-119367397D01*
X169628266Y-119147673D01*
X169532133Y-118941515D01*
X169481025Y-118868526D01*
X168799953Y-119549598D01*
X168787165Y-119468852D01*
X168729641Y-119355955D01*
X168640045Y-119266359D01*
X168527148Y-119208835D01*
X168446400Y-119196046D01*
X169127472Y-118514974D01*
X169127471Y-118514972D01*
X169054483Y-118463866D01*
X169039023Y-118456657D01*
X168986584Y-118410484D01*
X168967432Y-118343291D01*
X168987648Y-118276410D01*
X169039023Y-118231893D01*
X169054734Y-118224568D01*
X169241139Y-118094047D01*
X169402047Y-117933139D01*
X169456060Y-117856000D01*
X171306540Y-117856000D01*
X171326326Y-118044257D01*
X171384820Y-118224284D01*
X171479466Y-118388216D01*
X171606129Y-118528889D01*
X171759269Y-118640151D01*
X171932197Y-118717144D01*
X172117352Y-118756500D01*
X172117354Y-118756500D01*
X172306648Y-118756500D01*
X172430083Y-118730262D01*
X172491803Y-118717144D01*
X172664730Y-118640151D01*
X172817871Y-118528888D01*
X172839395Y-118504981D01*
X172888607Y-118474663D01*
X172887724Y-118472432D01*
X172902292Y-118466664D01*
X172942907Y-118450582D01*
X172953944Y-118446803D01*
X172995890Y-118434618D01*
X173013129Y-118424422D01*
X173030602Y-118415862D01*
X173049232Y-118408486D01*
X173084564Y-118382814D01*
X173094330Y-118376400D01*
X173131918Y-118354171D01*
X173131917Y-118354171D01*
X173131920Y-118354170D01*
X173146085Y-118340004D01*
X173160873Y-118327373D01*
X173177087Y-118315594D01*
X173204938Y-118281926D01*
X173212769Y-118273319D01*
X173709273Y-117776816D01*
X173770595Y-117743334D01*
X173796953Y-117740500D01*
X173856148Y-117740500D01*
X173993692Y-117711264D01*
X174041303Y-117701144D01*
X174214230Y-117624151D01*
X174305494Y-117557844D01*
X174367370Y-117512889D01*
X174367421Y-117512833D01*
X174494033Y-117372216D01*
X174588679Y-117208284D01*
X174647174Y-117028256D01*
X174666960Y-116840000D01*
X174647174Y-116651744D01*
X174616832Y-116558363D01*
X174588679Y-116471715D01*
X174494033Y-116307783D01*
X174367370Y-116167110D01*
X174214230Y-116055848D01*
X174041302Y-115978855D01*
X173856148Y-115939500D01*
X173856146Y-115939500D01*
X173666854Y-115939500D01*
X173666852Y-115939500D01*
X173481697Y-115978855D01*
X173308769Y-116055848D01*
X173155629Y-116167110D01*
X173028966Y-116307783D01*
X172934320Y-116471715D01*
X172875826Y-116651742D01*
X172858179Y-116819649D01*
X172831594Y-116884263D01*
X172822539Y-116894368D01*
X172711381Y-117005526D01*
X172650058Y-117039011D01*
X172580366Y-117034027D01*
X172573265Y-117031125D01*
X172491800Y-116994854D01*
X172306648Y-116955500D01*
X172306646Y-116955500D01*
X172117354Y-116955500D01*
X172117352Y-116955500D01*
X171932197Y-116994855D01*
X171759269Y-117071848D01*
X171606129Y-117183110D01*
X171479466Y-117323783D01*
X171384820Y-117487715D01*
X171326326Y-117667742D01*
X171306540Y-117856000D01*
X169456060Y-117856000D01*
X169532568Y-117746734D01*
X169628739Y-117540496D01*
X169687635Y-117320692D01*
X169707468Y-117094000D01*
X169687635Y-116867308D01*
X169628739Y-116647504D01*
X169532568Y-116441266D01*
X169440581Y-116309893D01*
X169402046Y-116254859D01*
X169241140Y-116093953D01*
X169054735Y-115963432D01*
X168848497Y-115867261D01*
X168628689Y-115808364D01*
X168402000Y-115788531D01*
X168175310Y-115808364D01*
X167955502Y-115867261D01*
X167749264Y-115963432D01*
X167562859Y-116093953D01*
X167401953Y-116254859D01*
X167271432Y-116441264D01*
X167175261Y-116647502D01*
X167116364Y-116867310D01*
X167096531Y-117093999D01*
X164877040Y-117093999D01*
X164818689Y-117078364D01*
X164592000Y-117058531D01*
X164365310Y-117078364D01*
X164145502Y-117137261D01*
X163939264Y-117233432D01*
X163752859Y-117363953D01*
X163591953Y-117524859D01*
X163461432Y-117711264D01*
X163365261Y-117917502D01*
X163306364Y-118137310D01*
X163286531Y-118364000D01*
X163306364Y-118590689D01*
X163365261Y-118810497D01*
X163461432Y-119016735D01*
X163591953Y-119203140D01*
X163752859Y-119364046D01*
X163939264Y-119494567D01*
X163939265Y-119494567D01*
X163939266Y-119494568D01*
X163997865Y-119521893D01*
X164050304Y-119568065D01*
X164069456Y-119635259D01*
X164049240Y-119702140D01*
X163997866Y-119746656D01*
X163939522Y-119773863D01*
X163753180Y-119904341D01*
X163592341Y-120065180D01*
X163461865Y-120251519D01*
X163365733Y-120457673D01*
X163313128Y-120653999D01*
X163313128Y-120654000D01*
X164276314Y-120654000D01*
X164264359Y-120665955D01*
X164206835Y-120778852D01*
X164187014Y-120904000D01*
X164206835Y-121029148D01*
X164264359Y-121142045D01*
X164276314Y-121154000D01*
X163313128Y-121154000D01*
X163365733Y-121350326D01*
X163461865Y-121556480D01*
X163592341Y-121742819D01*
X163753180Y-121903658D01*
X163939519Y-122034134D01*
X163997865Y-122061342D01*
X164050304Y-122107514D01*
X164069456Y-122174708D01*
X164049240Y-122241589D01*
X163997866Y-122286105D01*
X163939267Y-122313430D01*
X163752859Y-122443953D01*
X163591953Y-122604859D01*
X163461432Y-122791264D01*
X163365261Y-122997502D01*
X163306364Y-123217310D01*
X163286531Y-123444000D01*
X163306364Y-123670689D01*
X163365261Y-123890497D01*
X163461432Y-124096735D01*
X163591953Y-124283140D01*
X163752859Y-124444046D01*
X163847391Y-124510237D01*
X163939266Y-124574568D01*
X163997273Y-124601617D01*
X164049713Y-124647789D01*
X164068865Y-124714982D01*
X164048650Y-124781864D01*
X163997276Y-124826380D01*
X163939266Y-124853431D01*
X163752859Y-124983953D01*
X163591953Y-125144859D01*
X163461432Y-125331264D01*
X163365261Y-125537502D01*
X163306364Y-125757310D01*
X163286531Y-125984000D01*
X163306364Y-126210689D01*
X163365261Y-126430497D01*
X163461432Y-126636735D01*
X163591953Y-126823140D01*
X163752859Y-126984046D01*
X163847391Y-127050237D01*
X163939266Y-127114568D01*
X163997275Y-127141618D01*
X164049714Y-127187791D01*
X164068865Y-127254985D01*
X164048649Y-127321866D01*
X163997275Y-127366382D01*
X163939263Y-127393433D01*
X163752859Y-127523953D01*
X163591953Y-127684859D01*
X163461432Y-127871264D01*
X163365261Y-128077502D01*
X163306364Y-128297310D01*
X163286531Y-128523999D01*
X163306364Y-128750689D01*
X163365261Y-128970497D01*
X163461432Y-129176735D01*
X163591953Y-129363140D01*
X163752859Y-129524046D01*
X163939263Y-129654566D01*
X163939266Y-129654568D01*
X163997275Y-129681618D01*
X164049714Y-129727791D01*
X164068865Y-129794985D01*
X164048649Y-129861866D01*
X163997275Y-129906382D01*
X163939263Y-129933433D01*
X163752859Y-130063953D01*
X163591953Y-130224859D01*
X163461432Y-130411264D01*
X163365261Y-130617502D01*
X163306364Y-130837310D01*
X163286531Y-131064000D01*
X163306364Y-131290689D01*
X163365261Y-131510497D01*
X163461432Y-131716735D01*
X163591953Y-131903140D01*
X163752859Y-132064046D01*
X163847391Y-132130237D01*
X163939266Y-132194568D01*
X163997273Y-132221617D01*
X164049713Y-132267789D01*
X164068865Y-132334982D01*
X164048650Y-132401864D01*
X163997276Y-132446380D01*
X163939266Y-132473431D01*
X163752859Y-132603953D01*
X163591953Y-132764859D01*
X163461432Y-132951264D01*
X163365261Y-133157502D01*
X163306364Y-133377310D01*
X163286531Y-133603999D01*
X157376986Y-133603999D01*
X157357165Y-133478852D01*
X157299641Y-133365955D01*
X157287686Y-133354000D01*
X158250872Y-133354000D01*
X158250871Y-133353999D01*
X158198266Y-133157673D01*
X158102134Y-132951519D01*
X157971658Y-132765180D01*
X157810819Y-132604341D01*
X157624482Y-132473866D01*
X157566133Y-132446657D01*
X157513694Y-132400484D01*
X157494543Y-132333290D01*
X157514759Y-132266409D01*
X157566134Y-132221893D01*
X157624734Y-132194568D01*
X157811139Y-132064047D01*
X157972047Y-131903139D01*
X158102568Y-131716734D01*
X158198739Y-131510496D01*
X158257635Y-131290692D01*
X158277468Y-131064000D01*
X158257635Y-130837308D01*
X158198739Y-130617504D01*
X158102568Y-130411266D01*
X158063784Y-130355875D01*
X157972046Y-130224859D01*
X157811140Y-130063953D01*
X157624733Y-129933431D01*
X157566725Y-129906382D01*
X157514285Y-129860210D01*
X157495133Y-129793017D01*
X157515348Y-129726135D01*
X157566725Y-129681618D01*
X157624734Y-129654568D01*
X157811139Y-129524047D01*
X157972047Y-129363139D01*
X158102568Y-129176734D01*
X158198739Y-128970496D01*
X158257635Y-128750692D01*
X158277468Y-128524000D01*
X158257635Y-128297308D01*
X158198739Y-128077504D01*
X158102568Y-127871266D01*
X157972047Y-127684861D01*
X157972046Y-127684859D01*
X157811140Y-127523953D01*
X157624736Y-127393433D01*
X157566723Y-127366381D01*
X157514284Y-127320208D01*
X157495133Y-127253014D01*
X157515349Y-127186133D01*
X157566721Y-127141619D01*
X157624734Y-127114568D01*
X157811139Y-126984047D01*
X157972047Y-126823139D01*
X158102568Y-126636734D01*
X158198739Y-126430496D01*
X158257635Y-126210692D01*
X158277468Y-125984000D01*
X158257635Y-125757308D01*
X158198739Y-125537504D01*
X158102568Y-125331266D01*
X158063784Y-125275875D01*
X157972046Y-125144859D01*
X157811140Y-124983953D01*
X157624736Y-124853433D01*
X157624732Y-124853431D01*
X157566722Y-124826380D01*
X157514284Y-124780208D01*
X157495133Y-124713014D01*
X157515349Y-124646133D01*
X157566721Y-124601619D01*
X157624734Y-124574568D01*
X157811139Y-124444047D01*
X157972047Y-124283139D01*
X158102568Y-124096734D01*
X158198739Y-123890496D01*
X158257635Y-123670692D01*
X158277468Y-123444000D01*
X158257635Y-123217308D01*
X158198739Y-122997504D01*
X158102568Y-122791266D01*
X158063784Y-122735875D01*
X157972046Y-122604859D01*
X157811140Y-122443953D01*
X157624736Y-122313433D01*
X157566723Y-122286381D01*
X157514284Y-122240208D01*
X157495133Y-122173014D01*
X157515349Y-122106133D01*
X157566721Y-122061619D01*
X157624734Y-122034568D01*
X157811139Y-121904047D01*
X157972047Y-121743139D01*
X158102568Y-121556734D01*
X158198739Y-121350496D01*
X158257635Y-121130692D01*
X158277468Y-120904000D01*
X158257635Y-120677308D01*
X158198739Y-120457504D01*
X158102568Y-120251266D01*
X157972271Y-120065180D01*
X157972046Y-120064859D01*
X157811140Y-119903953D01*
X157786537Y-119886726D01*
X157742912Y-119832150D01*
X157735718Y-119762651D01*
X157767241Y-119700296D01*
X157827470Y-119664882D01*
X157844401Y-119661862D01*
X157879483Y-119658091D01*
X158014331Y-119607796D01*
X158129546Y-119521546D01*
X158215796Y-119406331D01*
X158266091Y-119271483D01*
X158272500Y-119211873D01*
X158272499Y-117516128D01*
X158266091Y-117456517D01*
X158215796Y-117321669D01*
X158129546Y-117206454D01*
X158014331Y-117120204D01*
X157879483Y-117069909D01*
X157819873Y-117063500D01*
X157816551Y-117063500D01*
X157721500Y-117063500D01*
X157654461Y-117043815D01*
X157608706Y-116991011D01*
X157597500Y-116939500D01*
X157597500Y-115652739D01*
X157599763Y-115632238D01*
X157597561Y-115562143D01*
X157597500Y-115558249D01*
X157597500Y-115534544D01*
X157597500Y-115530650D01*
X157596998Y-115526681D01*
X157596080Y-115515024D01*
X157594709Y-115471372D01*
X157589119Y-115452134D01*
X157585174Y-115433082D01*
X157582664Y-115413208D01*
X157582663Y-115413208D01*
X157566578Y-115372581D01*
X157562805Y-115361560D01*
X157550617Y-115319610D01*
X157540421Y-115302369D01*
X157531863Y-115284902D01*
X157524486Y-115266268D01*
X157498798Y-115230912D01*
X157492409Y-115221184D01*
X157470170Y-115183579D01*
X157456006Y-115169415D01*
X157443369Y-115154620D01*
X157431595Y-115138414D01*
X157431594Y-115138413D01*
X157397935Y-115110568D01*
X157389305Y-115102714D01*
X156332590Y-114045999D01*
X170036540Y-114045999D01*
X170056326Y-114234257D01*
X170114820Y-114414284D01*
X170209466Y-114578216D01*
X170336129Y-114718889D01*
X170489269Y-114830151D01*
X170662197Y-114907144D01*
X170847352Y-114946500D01*
X170847354Y-114946500D01*
X171036648Y-114946500D01*
X171160083Y-114920262D01*
X171221803Y-114907144D01*
X171394730Y-114830151D01*
X171547871Y-114718888D01*
X171553598Y-114712527D01*
X171613084Y-114675879D01*
X171645747Y-114671500D01*
X173540253Y-114671500D01*
X173607292Y-114691185D01*
X173632400Y-114712526D01*
X173638129Y-114718888D01*
X173791270Y-114830151D01*
X173791271Y-114830151D01*
X173791272Y-114830152D01*
X173964197Y-114907144D01*
X174149352Y-114946500D01*
X174149354Y-114946500D01*
X174338648Y-114946500D01*
X174462084Y-114920262D01*
X174523803Y-114907144D01*
X174696730Y-114830151D01*
X174849871Y-114718888D01*
X174969919Y-114585561D01*
X175029404Y-114548913D01*
X175099261Y-114550243D01*
X175157310Y-114589130D01*
X175185120Y-114653227D01*
X175185596Y-114679341D01*
X175174340Y-114807999D01*
X175194936Y-115043407D01*
X175220393Y-115138413D01*
X175256097Y-115271663D01*
X175355965Y-115485830D01*
X175491505Y-115679401D01*
X175658599Y-115846495D01*
X175844596Y-115976732D01*
X175888219Y-116031307D01*
X175895412Y-116100806D01*
X175863890Y-116163160D01*
X175844595Y-116179880D01*
X175658919Y-116309892D01*
X175491890Y-116476921D01*
X175356400Y-116670421D01*
X175256569Y-116884507D01*
X175199364Y-117097999D01*
X175199364Y-117098000D01*
X176096314Y-117098000D01*
X176070507Y-117138156D01*
X176030000Y-117276111D01*
X176030000Y-117419889D01*
X176070507Y-117557844D01*
X176096314Y-117598000D01*
X175199364Y-117598000D01*
X175256569Y-117811492D01*
X175356399Y-118025576D01*
X175491893Y-118219081D01*
X175658918Y-118386106D01*
X175844595Y-118516119D01*
X175888219Y-118570696D01*
X175895412Y-118640195D01*
X175863890Y-118702549D01*
X175844595Y-118719269D01*
X175658595Y-118849508D01*
X175491505Y-119016598D01*
X175355965Y-119210170D01*
X175256097Y-119424336D01*
X175194936Y-119652592D01*
X175174340Y-119887999D01*
X175194936Y-120123407D01*
X175227915Y-120246484D01*
X175256097Y-120351663D01*
X175355965Y-120565830D01*
X175491505Y-120759401D01*
X175658599Y-120926495D01*
X175844160Y-121056426D01*
X175887783Y-121111002D01*
X175894976Y-121180501D01*
X175863454Y-121242855D01*
X175844160Y-121259574D01*
X175714309Y-121350497D01*
X175658595Y-121389508D01*
X175491505Y-121556598D01*
X175355965Y-121750170D01*
X175256097Y-121964336D01*
X175194936Y-122192592D01*
X175174340Y-122427999D01*
X175194936Y-122663407D01*
X175229195Y-122791264D01*
X175256097Y-122891663D01*
X175355965Y-123105830D01*
X175491505Y-123299401D01*
X175658599Y-123466495D01*
X175852170Y-123602035D01*
X176066337Y-123701903D01*
X176294591Y-123763063D01*
X176294592Y-123763063D01*
X176529999Y-123783659D01*
X176529999Y-123783658D01*
X176530000Y-123783659D01*
X176765408Y-123763063D01*
X176993663Y-123701903D01*
X177207830Y-123602035D01*
X177401401Y-123466495D01*
X177568495Y-123299401D01*
X177704035Y-123105830D01*
X177803903Y-122891663D01*
X177865063Y-122663408D01*
X177885659Y-122428000D01*
X177875635Y-122313433D01*
X177865063Y-122192592D01*
X177842340Y-122107789D01*
X177803903Y-121964337D01*
X177704035Y-121750171D01*
X177568495Y-121556599D01*
X177401401Y-121389505D01*
X177215839Y-121259573D01*
X177172215Y-121204997D01*
X177165023Y-121135498D01*
X177196545Y-121073144D01*
X177215831Y-121056432D01*
X177401401Y-120926495D01*
X177568495Y-120759401D01*
X177704035Y-120565830D01*
X177803903Y-120351663D01*
X177865063Y-120123408D01*
X177885659Y-119888000D01*
X177885547Y-119886725D01*
X177865063Y-119652592D01*
X177853060Y-119607795D01*
X177803903Y-119424337D01*
X177704035Y-119210171D01*
X177568495Y-119016599D01*
X177401401Y-118849505D01*
X177215402Y-118719267D01*
X177171780Y-118664692D01*
X177164587Y-118595193D01*
X177196109Y-118532839D01*
X177215405Y-118516119D01*
X177401078Y-118386109D01*
X177568106Y-118219081D01*
X177703600Y-118025576D01*
X177803430Y-117811492D01*
X177860636Y-117598000D01*
X176963686Y-117598000D01*
X176989493Y-117557844D01*
X177030000Y-117419889D01*
X177030000Y-117276111D01*
X176989493Y-117138156D01*
X176963686Y-117098000D01*
X177860636Y-117098000D01*
X177860635Y-117097999D01*
X177803430Y-116884507D01*
X177703599Y-116670421D01*
X177568109Y-116476921D01*
X177401081Y-116309893D01*
X177215404Y-116179880D01*
X177171780Y-116125303D01*
X177164587Y-116055804D01*
X177196109Y-115993450D01*
X177215399Y-115976734D01*
X177401401Y-115846495D01*
X177568495Y-115679401D01*
X177704035Y-115485830D01*
X177803903Y-115271663D01*
X177865063Y-115043408D01*
X177885659Y-114808000D01*
X177865063Y-114572592D01*
X177803903Y-114344337D01*
X177704035Y-114130171D01*
X177568495Y-113936599D01*
X177401401Y-113769505D01*
X177215839Y-113639573D01*
X177172216Y-113584998D01*
X177165022Y-113515500D01*
X177196545Y-113453145D01*
X177215837Y-113436428D01*
X177401401Y-113306495D01*
X177568495Y-113139401D01*
X177704035Y-112945830D01*
X177803903Y-112731663D01*
X177865063Y-112503408D01*
X177885659Y-112268000D01*
X177865063Y-112032592D01*
X177803903Y-111804337D01*
X177704035Y-111590171D01*
X177568495Y-111396599D01*
X177401401Y-111229505D01*
X177215402Y-111099267D01*
X177171780Y-111044692D01*
X177164587Y-110975193D01*
X177196109Y-110912839D01*
X177215405Y-110896119D01*
X177401078Y-110766109D01*
X177568106Y-110599081D01*
X177703600Y-110405576D01*
X177803430Y-110191492D01*
X177860636Y-109978000D01*
X176963686Y-109978000D01*
X176989493Y-109937844D01*
X177030000Y-109799889D01*
X177030000Y-109656111D01*
X176989493Y-109518156D01*
X176963686Y-109478000D01*
X177860636Y-109478000D01*
X177860635Y-109477999D01*
X177803430Y-109264507D01*
X177703599Y-109050421D01*
X177568109Y-108856921D01*
X177401081Y-108689893D01*
X177215404Y-108559880D01*
X177171780Y-108505303D01*
X177164587Y-108435804D01*
X177196109Y-108373450D01*
X177215399Y-108356734D01*
X177401401Y-108226495D01*
X177568495Y-108059401D01*
X177704035Y-107865830D01*
X177803903Y-107651663D01*
X177865063Y-107423408D01*
X177885659Y-107188000D01*
X177865063Y-106952592D01*
X177803903Y-106724337D01*
X177704035Y-106510171D01*
X177568495Y-106316599D01*
X177401401Y-106149505D01*
X177215839Y-106019573D01*
X177172215Y-105964997D01*
X177165023Y-105895498D01*
X177196545Y-105833144D01*
X177215831Y-105816432D01*
X177401401Y-105686495D01*
X177568495Y-105519401D01*
X177704035Y-105325830D01*
X177803903Y-105111663D01*
X177865063Y-104883408D01*
X177885659Y-104648000D01*
X177865063Y-104412592D01*
X177803903Y-104184337D01*
X177704035Y-103970171D01*
X177568495Y-103776599D01*
X177401401Y-103609505D01*
X177215402Y-103479267D01*
X177171780Y-103424692D01*
X177164587Y-103355193D01*
X177196109Y-103292839D01*
X177215405Y-103276119D01*
X177401078Y-103146109D01*
X177568106Y-102979081D01*
X177703600Y-102785576D01*
X177803430Y-102571492D01*
X177860636Y-102358000D01*
X176963686Y-102358000D01*
X176989493Y-102317844D01*
X177030000Y-102179889D01*
X177030000Y-102036111D01*
X176989493Y-101898156D01*
X176963686Y-101858000D01*
X177860636Y-101858000D01*
X177860635Y-101857999D01*
X177803430Y-101644507D01*
X177703599Y-101430421D01*
X177568109Y-101236921D01*
X177401081Y-101069893D01*
X177215404Y-100939880D01*
X177171780Y-100885303D01*
X177164587Y-100815804D01*
X177196109Y-100753450D01*
X177215399Y-100736734D01*
X177401401Y-100606495D01*
X177568495Y-100439401D01*
X177704035Y-100245830D01*
X177803903Y-100031663D01*
X177865063Y-99803408D01*
X177885659Y-99568000D01*
X177865063Y-99332592D01*
X177803903Y-99104337D01*
X177704035Y-98890171D01*
X177568495Y-98696599D01*
X177401401Y-98529505D01*
X177215839Y-98399573D01*
X177172216Y-98344998D01*
X177165022Y-98275500D01*
X177196545Y-98213145D01*
X177215837Y-98196428D01*
X177401401Y-98066495D01*
X177568495Y-97899401D01*
X177704035Y-97705830D01*
X177803903Y-97491663D01*
X177865063Y-97263408D01*
X177885659Y-97028000D01*
X177865063Y-96792592D01*
X177803903Y-96564337D01*
X177704035Y-96350171D01*
X177568495Y-96156599D01*
X177446180Y-96034284D01*
X177412696Y-95972962D01*
X177417680Y-95903270D01*
X177459552Y-95847337D01*
X177490528Y-95830422D01*
X177622089Y-95781352D01*
X177737188Y-95695188D01*
X177823352Y-95580089D01*
X177873599Y-95445371D01*
X177879645Y-95389132D01*
X177880000Y-95382518D01*
X177880000Y-94738000D01*
X176963686Y-94738000D01*
X176989493Y-94697844D01*
X177030000Y-94559889D01*
X177030000Y-94416111D01*
X176989493Y-94278156D01*
X176963686Y-94238000D01*
X177880000Y-94238000D01*
X177880000Y-93593481D01*
X177879645Y-93586867D01*
X177873599Y-93530628D01*
X177823352Y-93395910D01*
X177737188Y-93280811D01*
X177622089Y-93194647D01*
X177487371Y-93144400D01*
X177431132Y-93138354D01*
X177424518Y-93138000D01*
X176780000Y-93138000D01*
X176780000Y-94052498D01*
X176672315Y-94003320D01*
X176565763Y-93988000D01*
X176494237Y-93988000D01*
X176387685Y-94003320D01*
X176280000Y-94052498D01*
X176280000Y-93138000D01*
X175635482Y-93138000D01*
X175628867Y-93138354D01*
X175572628Y-93144400D01*
X175437910Y-93194647D01*
X175322811Y-93280811D01*
X175236647Y-93395910D01*
X175186400Y-93530628D01*
X175180354Y-93586867D01*
X175180000Y-93593481D01*
X175180000Y-94238000D01*
X176096314Y-94238000D01*
X176070507Y-94278156D01*
X176030000Y-94416111D01*
X176030000Y-94559889D01*
X176070507Y-94697844D01*
X176096314Y-94738000D01*
X175180000Y-94738000D01*
X175180000Y-95382518D01*
X175180354Y-95389132D01*
X175186400Y-95445371D01*
X175236647Y-95580089D01*
X175322811Y-95695188D01*
X175437911Y-95781352D01*
X175569471Y-95830422D01*
X175625404Y-95872294D01*
X175649821Y-95937758D01*
X175634969Y-96006031D01*
X175613819Y-96034285D01*
X175491503Y-96156601D01*
X175355965Y-96350170D01*
X175256097Y-96564336D01*
X175194936Y-96792592D01*
X175174340Y-97027999D01*
X175194936Y-97263407D01*
X175222472Y-97366171D01*
X175256097Y-97491663D01*
X175355965Y-97705830D01*
X175491505Y-97899401D01*
X175658599Y-98066495D01*
X175844160Y-98196426D01*
X175887783Y-98251002D01*
X175894976Y-98320501D01*
X175863454Y-98382855D01*
X175844159Y-98399575D01*
X175658595Y-98529508D01*
X175491505Y-98696598D01*
X175355965Y-98890170D01*
X175256097Y-99104336D01*
X175194936Y-99332592D01*
X175174340Y-99567999D01*
X175194936Y-99803407D01*
X175222472Y-99906171D01*
X175256097Y-100031663D01*
X175355965Y-100245830D01*
X175491505Y-100439401D01*
X175658599Y-100606495D01*
X175844596Y-100736732D01*
X175888219Y-100791307D01*
X175895412Y-100860806D01*
X175863890Y-100923160D01*
X175844595Y-100939880D01*
X175658919Y-101069892D01*
X175491890Y-101236921D01*
X175356400Y-101430421D01*
X175256569Y-101644507D01*
X175199364Y-101857999D01*
X175199364Y-101858000D01*
X176096314Y-101858000D01*
X176070507Y-101898156D01*
X176030000Y-102036111D01*
X176030000Y-102179889D01*
X176070507Y-102317844D01*
X176096314Y-102358000D01*
X175199364Y-102358000D01*
X175256569Y-102571492D01*
X175356399Y-102785576D01*
X175491893Y-102979081D01*
X175658918Y-103146106D01*
X175844595Y-103276119D01*
X175888219Y-103330696D01*
X175895412Y-103400195D01*
X175863890Y-103462549D01*
X175844595Y-103479269D01*
X175658595Y-103609508D01*
X175491505Y-103776598D01*
X175355965Y-103970170D01*
X175256097Y-104184336D01*
X175194936Y-104412592D01*
X175174340Y-104648000D01*
X175194936Y-104883407D01*
X175222472Y-104986171D01*
X175256097Y-105111663D01*
X175355965Y-105325830D01*
X175491505Y-105519401D01*
X175658599Y-105686495D01*
X175844160Y-105816426D01*
X175887783Y-105871002D01*
X175894976Y-105940501D01*
X175863454Y-106002855D01*
X175844160Y-106019574D01*
X175698218Y-106121764D01*
X175658595Y-106149508D01*
X175491505Y-106316598D01*
X175355965Y-106510170D01*
X175256097Y-106724336D01*
X175194936Y-106952592D01*
X175174340Y-107188000D01*
X175194936Y-107423407D01*
X175222472Y-107526171D01*
X175256097Y-107651663D01*
X175355965Y-107865830D01*
X175491505Y-108059401D01*
X175658599Y-108226495D01*
X175844596Y-108356732D01*
X175888219Y-108411307D01*
X175895412Y-108480806D01*
X175863890Y-108543160D01*
X175844595Y-108559880D01*
X175658919Y-108689892D01*
X175491890Y-108856921D01*
X175356400Y-109050421D01*
X175256569Y-109264507D01*
X175199364Y-109477999D01*
X175199364Y-109478000D01*
X176096314Y-109478000D01*
X176070507Y-109518156D01*
X176030000Y-109656111D01*
X176030000Y-109799889D01*
X176070507Y-109937844D01*
X176096314Y-109978000D01*
X175199364Y-109978000D01*
X175256569Y-110191492D01*
X175356399Y-110405576D01*
X175491893Y-110599081D01*
X175658918Y-110766106D01*
X175844595Y-110896119D01*
X175888219Y-110950696D01*
X175895412Y-111020195D01*
X175863890Y-111082549D01*
X175844595Y-111099269D01*
X175658595Y-111229508D01*
X175491505Y-111396598D01*
X175355965Y-111590170D01*
X175256097Y-111804336D01*
X175194936Y-112032592D01*
X175174340Y-112267999D01*
X175194936Y-112503407D01*
X175239709Y-112670502D01*
X175256097Y-112731663D01*
X175355965Y-112945830D01*
X175491505Y-113139401D01*
X175658599Y-113306495D01*
X175844160Y-113436426D01*
X175887783Y-113491002D01*
X175894976Y-113560501D01*
X175863454Y-113622855D01*
X175844159Y-113639575D01*
X175658595Y-113769508D01*
X175491508Y-113936595D01*
X175374332Y-114103940D01*
X175319755Y-114147564D01*
X175250256Y-114154757D01*
X175187902Y-114123235D01*
X175152488Y-114063005D01*
X175149437Y-114045784D01*
X175129674Y-113857744D01*
X175071179Y-113677716D01*
X175071179Y-113677715D01*
X174976533Y-113513783D01*
X174849870Y-113373110D01*
X174696730Y-113261848D01*
X174523802Y-113184855D01*
X174338648Y-113145500D01*
X174338646Y-113145500D01*
X174149354Y-113145500D01*
X174149352Y-113145500D01*
X173964197Y-113184855D01*
X173791272Y-113261847D01*
X173692331Y-113333732D01*
X173638129Y-113373112D01*
X173632401Y-113379472D01*
X173572916Y-113416121D01*
X173540253Y-113420500D01*
X171645747Y-113420500D01*
X171578708Y-113400815D01*
X171553599Y-113379473D01*
X171547871Y-113373112D01*
X171394730Y-113261849D01*
X171394729Y-113261848D01*
X171394727Y-113261847D01*
X171221802Y-113184855D01*
X171036648Y-113145500D01*
X171036646Y-113145500D01*
X170847354Y-113145500D01*
X170847352Y-113145500D01*
X170662197Y-113184855D01*
X170489269Y-113261848D01*
X170336129Y-113373110D01*
X170209466Y-113513783D01*
X170114820Y-113677715D01*
X170056326Y-113857742D01*
X170036540Y-114045999D01*
X156332590Y-114045999D01*
X155093819Y-112807227D01*
X155060334Y-112745904D01*
X155057500Y-112719546D01*
X155057500Y-110480881D01*
X156318672Y-110480881D01*
X156434816Y-110552795D01*
X156642198Y-110633135D01*
X156860806Y-110674000D01*
X157083194Y-110674000D01*
X157301801Y-110633135D01*
X157509180Y-110552797D01*
X157625326Y-110480880D01*
X157625326Y-110480879D01*
X156972001Y-109827553D01*
X156972000Y-109827553D01*
X156318672Y-110480879D01*
X156318672Y-110480881D01*
X155057500Y-110480881D01*
X155057500Y-109474000D01*
X155766859Y-109474000D01*
X155787378Y-109695445D01*
X155848238Y-109909347D01*
X155947367Y-110108425D01*
X155963137Y-110129308D01*
X155963138Y-110129308D01*
X156589145Y-109503302D01*
X156618372Y-109503302D01*
X156647047Y-109616538D01*
X156710936Y-109714327D01*
X156803115Y-109786072D01*
X156913595Y-109824000D01*
X157001005Y-109824000D01*
X157087216Y-109809614D01*
X157189947Y-109754019D01*
X157269060Y-109668079D01*
X157315982Y-109561108D01*
X157323200Y-109474000D01*
X157325553Y-109474000D01*
X157980861Y-110129308D01*
X157996632Y-110108424D01*
X158095761Y-109909347D01*
X158156621Y-109695445D01*
X158177140Y-109474000D01*
X160846357Y-109474000D01*
X160866885Y-109695537D01*
X160927769Y-109909526D01*
X161026941Y-110108688D01*
X161161019Y-110286237D01*
X161325437Y-110436124D01*
X161514595Y-110553245D01*
X161514597Y-110553245D01*
X161514599Y-110553247D01*
X161722060Y-110633618D01*
X161940757Y-110674500D01*
X161940759Y-110674500D01*
X162163241Y-110674500D01*
X162163243Y-110674500D01*
X162381940Y-110633618D01*
X162589401Y-110553247D01*
X162778562Y-110436124D01*
X162778562Y-110436123D01*
X162942980Y-110286237D01*
X162942981Y-110286236D01*
X163077058Y-110108689D01*
X163176229Y-109909528D01*
X163176281Y-109909347D01*
X163231768Y-109714327D01*
X163237115Y-109695536D01*
X163257643Y-109474000D01*
X163237115Y-109252464D01*
X163199553Y-109120447D01*
X163176230Y-109038473D01*
X163077058Y-108839311D01*
X162942980Y-108661762D01*
X162778562Y-108511875D01*
X162589404Y-108394754D01*
X162504946Y-108362035D01*
X162395475Y-108319625D01*
X162340076Y-108277054D01*
X162316485Y-108211287D01*
X162332196Y-108143207D01*
X162382220Y-108094428D01*
X162395466Y-108088377D01*
X162589401Y-108013247D01*
X162778562Y-107896124D01*
X162942981Y-107746236D01*
X163077058Y-107568689D01*
X163176229Y-107369528D01*
X163186737Y-107332598D01*
X163227878Y-107188000D01*
X163237115Y-107155536D01*
X163257643Y-106934000D01*
X163237115Y-106712464D01*
X163214227Y-106632021D01*
X163176230Y-106498473D01*
X163077058Y-106299311D01*
X162942980Y-106121762D01*
X162778562Y-105971875D01*
X162589404Y-105854754D01*
X162504946Y-105822035D01*
X162395475Y-105779625D01*
X162340076Y-105737054D01*
X162316485Y-105671287D01*
X162332196Y-105603207D01*
X162382220Y-105554428D01*
X162395466Y-105548377D01*
X162589401Y-105473247D01*
X162778562Y-105356124D01*
X162942981Y-105206236D01*
X163077058Y-105028689D01*
X163176229Y-104829528D01*
X163186737Y-104792598D01*
X163227878Y-104648000D01*
X163237115Y-104615536D01*
X163257643Y-104394000D01*
X163237115Y-104172464D01*
X163214227Y-104092021D01*
X163176230Y-103958473D01*
X163077058Y-103759311D01*
X162942980Y-103581762D01*
X162778562Y-103431875D01*
X162589404Y-103314754D01*
X162554007Y-103301041D01*
X162395475Y-103239625D01*
X162340076Y-103197054D01*
X162316485Y-103131287D01*
X162332196Y-103063207D01*
X162382220Y-103014428D01*
X162395466Y-103008377D01*
X162589401Y-102933247D01*
X162778562Y-102816124D01*
X162779004Y-102815721D01*
X162942980Y-102666237D01*
X162944234Y-102664577D01*
X163077058Y-102488689D01*
X163176229Y-102289528D01*
X163176280Y-102289351D01*
X163231768Y-102094327D01*
X163237115Y-102075536D01*
X163257643Y-101854000D01*
X163237115Y-101632464D01*
X163200564Y-101504000D01*
X163176230Y-101418473D01*
X163077058Y-101219311D01*
X162942980Y-101041762D01*
X162778562Y-100891875D01*
X162589404Y-100774754D01*
X162504946Y-100742035D01*
X162381940Y-100694382D01*
X162163243Y-100653500D01*
X161940757Y-100653500D01*
X161722059Y-100694382D01*
X161722060Y-100694382D01*
X161514595Y-100774754D01*
X161325437Y-100891875D01*
X161161019Y-101041762D01*
X161026941Y-101219311D01*
X160927769Y-101418473D01*
X160866885Y-101632462D01*
X160846357Y-101854000D01*
X160866885Y-102075537D01*
X160927769Y-102289526D01*
X161026941Y-102488688D01*
X161161019Y-102666237D01*
X161325437Y-102816124D01*
X161418281Y-102873610D01*
X161514599Y-102933247D01*
X161708522Y-103008373D01*
X161763924Y-103050946D01*
X161787514Y-103116713D01*
X161771803Y-103184793D01*
X161721779Y-103233572D01*
X161708526Y-103239624D01*
X161614325Y-103276119D01*
X161514596Y-103314754D01*
X161325437Y-103431875D01*
X161161019Y-103581762D01*
X161026941Y-103759311D01*
X160927769Y-103958473D01*
X160866885Y-104172462D01*
X160846357Y-104393999D01*
X160866885Y-104615537D01*
X160927769Y-104829526D01*
X161026941Y-105028688D01*
X161161019Y-105206237D01*
X161325437Y-105356124D01*
X161442478Y-105428592D01*
X161514599Y-105473247D01*
X161708522Y-105548373D01*
X161763924Y-105590946D01*
X161787514Y-105656713D01*
X161771803Y-105724793D01*
X161721779Y-105773572D01*
X161708526Y-105779624D01*
X161613535Y-105816425D01*
X161514596Y-105854754D01*
X161325437Y-105971875D01*
X161161019Y-106121762D01*
X161026941Y-106299311D01*
X160927769Y-106498473D01*
X160866885Y-106712462D01*
X160846357Y-106933999D01*
X160866885Y-107155537D01*
X160927769Y-107369526D01*
X161026941Y-107568688D01*
X161161019Y-107746237D01*
X161325437Y-107896124D01*
X161442478Y-107968592D01*
X161514599Y-108013247D01*
X161708522Y-108088373D01*
X161763924Y-108130946D01*
X161787514Y-108196713D01*
X161771803Y-108264793D01*
X161721779Y-108313572D01*
X161708526Y-108319624D01*
X161599054Y-108362035D01*
X161514596Y-108394754D01*
X161325437Y-108511875D01*
X161161019Y-108661762D01*
X161026941Y-108839311D01*
X160927769Y-109038473D01*
X160866885Y-109252462D01*
X160846357Y-109474000D01*
X158177140Y-109474000D01*
X158156621Y-109252554D01*
X158095762Y-109038654D01*
X157996630Y-108839572D01*
X157980860Y-108818690D01*
X157325553Y-109473999D01*
X157325553Y-109474000D01*
X157323200Y-109474000D01*
X157325628Y-109444698D01*
X157296953Y-109331462D01*
X157233064Y-109233673D01*
X157140885Y-109161928D01*
X157030405Y-109124000D01*
X156942995Y-109124000D01*
X156856784Y-109138386D01*
X156754053Y-109193981D01*
X156674940Y-109279921D01*
X156628018Y-109386892D01*
X156618372Y-109503302D01*
X156589145Y-109503302D01*
X156618447Y-109474000D01*
X156618447Y-109473999D01*
X155963138Y-108818691D01*
X155963137Y-108818691D01*
X155947368Y-108839574D01*
X155848237Y-109038654D01*
X155787378Y-109252554D01*
X155766859Y-109474000D01*
X155057500Y-109474000D01*
X155057500Y-106934000D01*
X155766357Y-106934000D01*
X155786885Y-107155537D01*
X155847769Y-107369526D01*
X155946941Y-107568688D01*
X156081019Y-107746237D01*
X156245437Y-107896124D01*
X156434595Y-108013245D01*
X156434597Y-108013245D01*
X156434599Y-108013247D01*
X156629217Y-108088642D01*
X156684615Y-108131213D01*
X156708206Y-108196980D01*
X156692495Y-108265060D01*
X156642471Y-108313839D01*
X156629214Y-108319893D01*
X156434826Y-108395199D01*
X156318671Y-108467119D01*
X156972000Y-109120447D01*
X156972001Y-109120447D01*
X157625327Y-108467119D01*
X157509178Y-108395202D01*
X157314785Y-108319894D01*
X157259384Y-108277321D01*
X157235793Y-108211554D01*
X157251504Y-108143474D01*
X157301528Y-108094695D01*
X157314765Y-108088649D01*
X157509401Y-108013247D01*
X157698562Y-107896124D01*
X157862981Y-107746236D01*
X157997058Y-107568689D01*
X158096229Y-107369528D01*
X158106737Y-107332598D01*
X158147878Y-107188000D01*
X158157115Y-107155536D01*
X158177643Y-106934000D01*
X158157115Y-106712464D01*
X158134227Y-106632021D01*
X158096230Y-106498473D01*
X157997058Y-106299311D01*
X157862980Y-106121762D01*
X157698562Y-105971875D01*
X157509404Y-105854754D01*
X157424946Y-105822035D01*
X157315475Y-105779625D01*
X157260076Y-105737054D01*
X157236485Y-105671287D01*
X157252196Y-105603207D01*
X157302220Y-105554428D01*
X157315466Y-105548377D01*
X157509401Y-105473247D01*
X157698562Y-105356124D01*
X157862981Y-105206236D01*
X157997058Y-105028689D01*
X158096229Y-104829528D01*
X158106737Y-104792598D01*
X158147878Y-104648000D01*
X158157115Y-104615536D01*
X158177643Y-104394000D01*
X158157115Y-104172464D01*
X158134227Y-104092021D01*
X158096230Y-103958473D01*
X157997058Y-103759311D01*
X157862980Y-103581762D01*
X157698562Y-103431875D01*
X157509404Y-103314754D01*
X157476909Y-103302165D01*
X157314782Y-103239357D01*
X157259384Y-103196786D01*
X157235793Y-103131019D01*
X157251504Y-103062939D01*
X157301528Y-103014160D01*
X157314785Y-103008105D01*
X157509178Y-102932797D01*
X157698262Y-102815721D01*
X157862609Y-102665899D01*
X157996634Y-102488422D01*
X158095759Y-102289351D01*
X158148495Y-102104000D01*
X157217581Y-102104000D01*
X157269060Y-102048079D01*
X157315982Y-101941108D01*
X157325628Y-101824698D01*
X157296953Y-101711462D01*
X157233064Y-101613673D01*
X157140885Y-101541928D01*
X157030405Y-101504000D01*
X156942995Y-101504000D01*
X156856784Y-101518386D01*
X156754053Y-101573981D01*
X156674940Y-101659921D01*
X156628018Y-101766892D01*
X156618372Y-101883302D01*
X156647047Y-101996538D01*
X156710936Y-102094327D01*
X156723364Y-102104000D01*
X155795505Y-102104000D01*
X155848240Y-102289351D01*
X155947365Y-102488422D01*
X156081390Y-102665899D01*
X156245737Y-102815721D01*
X156434821Y-102932797D01*
X156629214Y-103008105D01*
X156684615Y-103050678D01*
X156708206Y-103116445D01*
X156692495Y-103184525D01*
X156642471Y-103233304D01*
X156629220Y-103239356D01*
X156534325Y-103276119D01*
X156434596Y-103314754D01*
X156245437Y-103431875D01*
X156081019Y-103581762D01*
X155946941Y-103759311D01*
X155847769Y-103958473D01*
X155786885Y-104172462D01*
X155766357Y-104393999D01*
X155786885Y-104615537D01*
X155847769Y-104829526D01*
X155946941Y-105028688D01*
X156081019Y-105206237D01*
X156245437Y-105356124D01*
X156362478Y-105428592D01*
X156434599Y-105473247D01*
X156628522Y-105548373D01*
X156683924Y-105590946D01*
X156707514Y-105656713D01*
X156691803Y-105724793D01*
X156641779Y-105773572D01*
X156628526Y-105779624D01*
X156533535Y-105816425D01*
X156434596Y-105854754D01*
X156245437Y-105971875D01*
X156081019Y-106121762D01*
X155946941Y-106299311D01*
X155847769Y-106498473D01*
X155786885Y-106712462D01*
X155766357Y-106934000D01*
X155057500Y-106934000D01*
X155057500Y-103206739D01*
X155059763Y-103186238D01*
X155057561Y-103116143D01*
X155057500Y-103112249D01*
X155057500Y-103088544D01*
X155057500Y-103084650D01*
X155056998Y-103080681D01*
X155056080Y-103069024D01*
X155054709Y-103025372D01*
X155049119Y-103006134D01*
X155045174Y-102987082D01*
X155042664Y-102967208D01*
X155042664Y-102967207D01*
X155026578Y-102926581D01*
X155022805Y-102915560D01*
X155010617Y-102873610D01*
X155000421Y-102856369D01*
X154991863Y-102838902D01*
X154984486Y-102820268D01*
X154958798Y-102784912D01*
X154952409Y-102775184D01*
X154930170Y-102737579D01*
X154916006Y-102723415D01*
X154903369Y-102708620D01*
X154891595Y-102692414D01*
X154891594Y-102692413D01*
X154857935Y-102664568D01*
X154849305Y-102656714D01*
X153796591Y-101604000D01*
X155795505Y-101604000D01*
X156722000Y-101604000D01*
X156722000Y-100679946D01*
X157222000Y-100679946D01*
X157222000Y-101604000D01*
X158148495Y-101604000D01*
X158095759Y-101418648D01*
X157996634Y-101219577D01*
X157862609Y-101042100D01*
X157698262Y-100892278D01*
X157509178Y-100775202D01*
X157301802Y-100694864D01*
X157222000Y-100679946D01*
X156722000Y-100679946D01*
X156642197Y-100694864D01*
X156434821Y-100775202D01*
X156245737Y-100892278D01*
X156081390Y-101042100D01*
X155947365Y-101219577D01*
X155848240Y-101418648D01*
X155795505Y-101604000D01*
X153796591Y-101604000D01*
X153232237Y-101039646D01*
X153198752Y-100978323D01*
X153200143Y-100919872D01*
X153227063Y-100819408D01*
X153247659Y-100584000D01*
X153227063Y-100348592D01*
X153165903Y-100120337D01*
X153066035Y-99906171D01*
X152930495Y-99712599D01*
X152763401Y-99545505D01*
X152577839Y-99415573D01*
X152534216Y-99360998D01*
X152527022Y-99291500D01*
X152558545Y-99229145D01*
X152577837Y-99212428D01*
X152763401Y-99082495D01*
X152930495Y-98915401D01*
X153066035Y-98721830D01*
X153165903Y-98507663D01*
X153227063Y-98279408D01*
X153247659Y-98044000D01*
X153227063Y-97808592D01*
X153165903Y-97580337D01*
X153066035Y-97366171D01*
X152930495Y-97172599D01*
X152763401Y-97005505D01*
X152577839Y-96875573D01*
X152534215Y-96820997D01*
X152529351Y-96773999D01*
X155666531Y-96773999D01*
X155686364Y-97000689D01*
X155745261Y-97220497D01*
X155841432Y-97426735D01*
X155971953Y-97613140D01*
X156132859Y-97774046D01*
X156319264Y-97904567D01*
X156319265Y-97904567D01*
X156319266Y-97904568D01*
X156525504Y-98000739D01*
X156745308Y-98059635D01*
X156972000Y-98079468D01*
X157198692Y-98059635D01*
X157418496Y-98000739D01*
X157624734Y-97904568D01*
X157811139Y-97774047D01*
X157972047Y-97613139D01*
X158102568Y-97426734D01*
X158198739Y-97220496D01*
X158257635Y-97000692D01*
X158277468Y-96774000D01*
X158257635Y-96547308D01*
X158198739Y-96327504D01*
X158102568Y-96121266D01*
X158021881Y-96006031D01*
X157972046Y-95934859D01*
X157811140Y-95773953D01*
X157624733Y-95643431D01*
X157566725Y-95616382D01*
X157514285Y-95570210D01*
X157495133Y-95503017D01*
X157515348Y-95436135D01*
X157566725Y-95391618D01*
X157624734Y-95364568D01*
X157811139Y-95234047D01*
X157972047Y-95073139D01*
X158102568Y-94886734D01*
X158198739Y-94680496D01*
X158257635Y-94460692D01*
X158277468Y-94234000D01*
X163286531Y-94234000D01*
X163306364Y-94460689D01*
X163365261Y-94680497D01*
X163461432Y-94886735D01*
X163591953Y-95073140D01*
X163752859Y-95234046D01*
X163939264Y-95364567D01*
X163939265Y-95364567D01*
X163939266Y-95364568D01*
X163997865Y-95391893D01*
X164050304Y-95438065D01*
X164069456Y-95505259D01*
X164049240Y-95572140D01*
X163997866Y-95616656D01*
X163939522Y-95643863D01*
X163753180Y-95774341D01*
X163592341Y-95935180D01*
X163461865Y-96121519D01*
X163365733Y-96327673D01*
X163313128Y-96523999D01*
X163313128Y-96524000D01*
X164276314Y-96524000D01*
X164264359Y-96535955D01*
X164206835Y-96648852D01*
X164187014Y-96774000D01*
X164206835Y-96899148D01*
X164264359Y-97012045D01*
X164276314Y-97024000D01*
X163313128Y-97024000D01*
X163365733Y-97220326D01*
X163461865Y-97426480D01*
X163592341Y-97612819D01*
X163753180Y-97773658D01*
X163939519Y-97904134D01*
X164145673Y-98000266D01*
X164341999Y-98052871D01*
X164342000Y-98052871D01*
X164342000Y-97089686D01*
X164353955Y-97101641D01*
X164466852Y-97159165D01*
X164560519Y-97174000D01*
X164623481Y-97174000D01*
X164717148Y-97159165D01*
X164830045Y-97101641D01*
X164842000Y-97089686D01*
X164842000Y-98052871D01*
X165038326Y-98000266D01*
X165244480Y-97904134D01*
X165430819Y-97773658D01*
X165591658Y-97612819D01*
X165722134Y-97426480D01*
X165818266Y-97220326D01*
X165870872Y-97024000D01*
X164907686Y-97024000D01*
X164919641Y-97012045D01*
X164977165Y-96899148D01*
X164996986Y-96774000D01*
X164977165Y-96648852D01*
X164919641Y-96535955D01*
X164907686Y-96524000D01*
X165870872Y-96524000D01*
X165870871Y-96523999D01*
X165818266Y-96327673D01*
X165722134Y-96121519D01*
X165591658Y-95935180D01*
X165430819Y-95774341D01*
X165244482Y-95643866D01*
X165186133Y-95616657D01*
X165133694Y-95570484D01*
X165114543Y-95503290D01*
X165134759Y-95436409D01*
X165186134Y-95391893D01*
X165244734Y-95364568D01*
X165431139Y-95234047D01*
X165592047Y-95073139D01*
X165722568Y-94886734D01*
X165818739Y-94680496D01*
X165877635Y-94460692D01*
X165897468Y-94234000D01*
X165877635Y-94007308D01*
X165818739Y-93787504D01*
X165722568Y-93581266D01*
X165687112Y-93530628D01*
X165592046Y-93394859D01*
X165431140Y-93233953D01*
X165244733Y-93103431D01*
X165186725Y-93076382D01*
X165134285Y-93030210D01*
X165115133Y-92963017D01*
X165135348Y-92896135D01*
X165186725Y-92851618D01*
X165244734Y-92824568D01*
X165431139Y-92694047D01*
X165592047Y-92533139D01*
X165722568Y-92346734D01*
X165818739Y-92140496D01*
X165877635Y-91920692D01*
X165897468Y-91694000D01*
X165877635Y-91467308D01*
X165818739Y-91247504D01*
X165722568Y-91041266D01*
X165615015Y-90887662D01*
X165592046Y-90854859D01*
X165431140Y-90693953D01*
X165244733Y-90563431D01*
X165186725Y-90536382D01*
X165134285Y-90490210D01*
X165115133Y-90423017D01*
X165135348Y-90356135D01*
X165186725Y-90311618D01*
X165244734Y-90284568D01*
X165431139Y-90154047D01*
X165592047Y-89993139D01*
X165722568Y-89806734D01*
X165818739Y-89600496D01*
X165877635Y-89380692D01*
X165897468Y-89154000D01*
X165877635Y-88927308D01*
X165818739Y-88707504D01*
X165722568Y-88501266D01*
X165692093Y-88457742D01*
X165592046Y-88314859D01*
X165431140Y-88153953D01*
X165244735Y-88023432D01*
X165038497Y-87927261D01*
X164818689Y-87868364D01*
X164592000Y-87848531D01*
X164365310Y-87868364D01*
X164145502Y-87927261D01*
X163939264Y-88023432D01*
X163752859Y-88153953D01*
X163591953Y-88314859D01*
X163461432Y-88501264D01*
X163365261Y-88707502D01*
X163306364Y-88927310D01*
X163286531Y-89153999D01*
X163306364Y-89380689D01*
X163365261Y-89600497D01*
X163461432Y-89806735D01*
X163591953Y-89993140D01*
X163752859Y-90154046D01*
X163902449Y-90258789D01*
X163939266Y-90284568D01*
X163997275Y-90311618D01*
X164049714Y-90357791D01*
X164068865Y-90424985D01*
X164048649Y-90491866D01*
X163997275Y-90536382D01*
X163939263Y-90563433D01*
X163752859Y-90693953D01*
X163591953Y-90854859D01*
X163461432Y-91041264D01*
X163365261Y-91247502D01*
X163306364Y-91467310D01*
X163286531Y-91693999D01*
X163306364Y-91920689D01*
X163365261Y-92140497D01*
X163461432Y-92346735D01*
X163591953Y-92533140D01*
X163752859Y-92694046D01*
X163939263Y-92824566D01*
X163939266Y-92824568D01*
X163997275Y-92851618D01*
X164049714Y-92897791D01*
X164068865Y-92964985D01*
X164048649Y-93031866D01*
X163997275Y-93076382D01*
X163939263Y-93103433D01*
X163752859Y-93233953D01*
X163591953Y-93394859D01*
X163461432Y-93581264D01*
X163365261Y-93787502D01*
X163306364Y-94007310D01*
X163286531Y-94234000D01*
X158277468Y-94234000D01*
X158257635Y-94007308D01*
X158198739Y-93787504D01*
X158102568Y-93581266D01*
X158067112Y-93530628D01*
X157972046Y-93394859D01*
X157811140Y-93233953D01*
X157624733Y-93103431D01*
X157566725Y-93076382D01*
X157514285Y-93030210D01*
X157495133Y-92963017D01*
X157515348Y-92896135D01*
X157566725Y-92851618D01*
X157624734Y-92824568D01*
X157811139Y-92694047D01*
X157972047Y-92533139D01*
X158102568Y-92346734D01*
X158198739Y-92140496D01*
X158257635Y-91920692D01*
X158277468Y-91694000D01*
X158257635Y-91467308D01*
X158198739Y-91247504D01*
X158102568Y-91041266D01*
X157995015Y-90887662D01*
X157972046Y-90854859D01*
X157811140Y-90693953D01*
X157786537Y-90676726D01*
X157742912Y-90622150D01*
X157735718Y-90552651D01*
X157767241Y-90490296D01*
X157827470Y-90454882D01*
X157844401Y-90451862D01*
X157879483Y-90448091D01*
X158014331Y-90397796D01*
X158129546Y-90311546D01*
X158215796Y-90196331D01*
X158266091Y-90061483D01*
X158272500Y-90001873D01*
X158272499Y-88645999D01*
X158606540Y-88645999D01*
X158626326Y-88834257D01*
X158684820Y-89014284D01*
X158779466Y-89178216D01*
X158906129Y-89318889D01*
X159059269Y-89430151D01*
X159232197Y-89507144D01*
X159417352Y-89546500D01*
X159417354Y-89546500D01*
X159606648Y-89546500D01*
X159730084Y-89520262D01*
X159791803Y-89507144D01*
X159964730Y-89430151D01*
X160039900Y-89375537D01*
X160117870Y-89318889D01*
X160244533Y-89178216D01*
X160339179Y-89014284D01*
X160365764Y-88932464D01*
X160397674Y-88834256D01*
X160417460Y-88646000D01*
X160397674Y-88457744D01*
X160349490Y-88309449D01*
X160339179Y-88277715D01*
X160244533Y-88113783D01*
X160169350Y-88030284D01*
X160139120Y-87967293D01*
X160137500Y-87947312D01*
X160137500Y-86416452D01*
X160157185Y-86349413D01*
X160173819Y-86328771D01*
X160694928Y-85807662D01*
X161343087Y-85159502D01*
X161404408Y-85126019D01*
X161474100Y-85131003D01*
X161496043Y-85141758D01*
X161514595Y-85153245D01*
X161514597Y-85153245D01*
X161514599Y-85153247D01*
X161722060Y-85233618D01*
X161940757Y-85274500D01*
X161940759Y-85274500D01*
X162163241Y-85274500D01*
X162163243Y-85274500D01*
X162381940Y-85233618D01*
X162589401Y-85153247D01*
X162778562Y-85036124D01*
X162942981Y-84886236D01*
X163077058Y-84708689D01*
X163176229Y-84509528D01*
X163176281Y-84509347D01*
X163220475Y-84354019D01*
X163237115Y-84295536D01*
X163257643Y-84074000D01*
X163237115Y-83852464D01*
X163199553Y-83720447D01*
X163176230Y-83638473D01*
X163077058Y-83439311D01*
X162942980Y-83261762D01*
X162778562Y-83111875D01*
X162589404Y-82994754D01*
X162554007Y-82981041D01*
X162395475Y-82919625D01*
X162340076Y-82877054D01*
X162316485Y-82811287D01*
X162332196Y-82743207D01*
X162382220Y-82694428D01*
X162395466Y-82688377D01*
X162589401Y-82613247D01*
X162778562Y-82496124D01*
X162942981Y-82346236D01*
X163077058Y-82168689D01*
X163176229Y-81969528D01*
X163186737Y-81932598D01*
X163199116Y-81889085D01*
X163237115Y-81755536D01*
X163257643Y-81534000D01*
X163237115Y-81312464D01*
X163191655Y-81152688D01*
X163176230Y-81098473D01*
X163077058Y-80899311D01*
X162942980Y-80721762D01*
X162778562Y-80571875D01*
X162589404Y-80454754D01*
X162554007Y-80441041D01*
X162395475Y-80379625D01*
X162340076Y-80337054D01*
X162316485Y-80271287D01*
X162332196Y-80203207D01*
X162382220Y-80154428D01*
X162395466Y-80148377D01*
X162589401Y-80073247D01*
X162778562Y-79956124D01*
X162942981Y-79806236D01*
X163077058Y-79628689D01*
X163176229Y-79429528D01*
X163186737Y-79392598D01*
X163208104Y-79317500D01*
X163237115Y-79215536D01*
X163257643Y-78994000D01*
X163237115Y-78772464D01*
X163214227Y-78692021D01*
X163176230Y-78558473D01*
X163077058Y-78359311D01*
X162942980Y-78181762D01*
X162778562Y-78031875D01*
X162589404Y-77914754D01*
X162554007Y-77901041D01*
X162395475Y-77839625D01*
X162340076Y-77797054D01*
X162316485Y-77731287D01*
X162332196Y-77663207D01*
X162382220Y-77614428D01*
X162395466Y-77608377D01*
X162589401Y-77533247D01*
X162778562Y-77416124D01*
X162942981Y-77266236D01*
X163077058Y-77088689D01*
X163176229Y-76889528D01*
X163176280Y-76889351D01*
X163231768Y-76694327D01*
X163237115Y-76675536D01*
X163257643Y-76454000D01*
X163237115Y-76232464D01*
X163200564Y-76104000D01*
X163176230Y-76018473D01*
X163077058Y-75819311D01*
X162942980Y-75641762D01*
X162778562Y-75491875D01*
X162589404Y-75374754D01*
X162528174Y-75351033D01*
X162381940Y-75294382D01*
X162163243Y-75253500D01*
X161940757Y-75253500D01*
X161722060Y-75294382D01*
X161514595Y-75374754D01*
X161325437Y-75491875D01*
X161161019Y-75641762D01*
X161026941Y-75819311D01*
X160927769Y-76018473D01*
X160866885Y-76232462D01*
X160846357Y-76453999D01*
X160866885Y-76675537D01*
X160927769Y-76889526D01*
X161026941Y-77088688D01*
X161161019Y-77266237D01*
X161325437Y-77416124D01*
X161448782Y-77492495D01*
X161514599Y-77533247D01*
X161708522Y-77608373D01*
X161763924Y-77650946D01*
X161787514Y-77716713D01*
X161771803Y-77784793D01*
X161721779Y-77833572D01*
X161708526Y-77839624D01*
X161577346Y-77890444D01*
X161514596Y-77914754D01*
X161325437Y-78031875D01*
X161161019Y-78181762D01*
X161026941Y-78359311D01*
X160927769Y-78558473D01*
X160866885Y-78772462D01*
X160846357Y-78994000D01*
X160866885Y-79215537D01*
X160927769Y-79429526D01*
X161026941Y-79628688D01*
X161161019Y-79806237D01*
X161325437Y-79956124D01*
X161442478Y-80028592D01*
X161514599Y-80073247D01*
X161708522Y-80148373D01*
X161763924Y-80190946D01*
X161787514Y-80256713D01*
X161771803Y-80324793D01*
X161721779Y-80373572D01*
X161708526Y-80379624D01*
X161577346Y-80430444D01*
X161514596Y-80454754D01*
X161325437Y-80571875D01*
X161161019Y-80721762D01*
X161026941Y-80899311D01*
X160927769Y-81098473D01*
X160866885Y-81312462D01*
X160846357Y-81534000D01*
X160867945Y-81766977D01*
X160864270Y-81767317D01*
X160863845Y-81816829D01*
X160832853Y-81868554D01*
X159128208Y-83573199D01*
X159112110Y-83586096D01*
X159064096Y-83637225D01*
X159061392Y-83640016D01*
X159044628Y-83656780D01*
X159044621Y-83656787D01*
X159041880Y-83659529D01*
X159039499Y-83662597D01*
X159039490Y-83662608D01*
X159039411Y-83662711D01*
X159031842Y-83671572D01*
X159001935Y-83703420D01*
X158992285Y-83720974D01*
X158981609Y-83737228D01*
X158969326Y-83753063D01*
X158951975Y-83793158D01*
X158946838Y-83803644D01*
X158925802Y-83841907D01*
X158920821Y-83861309D01*
X158914520Y-83879711D01*
X158906561Y-83898102D01*
X158899728Y-83941242D01*
X158897360Y-83952674D01*
X158886500Y-83994977D01*
X158886500Y-84015016D01*
X158884973Y-84034414D01*
X158881840Y-84054194D01*
X158885950Y-84097673D01*
X158886500Y-84109343D01*
X158886500Y-86047016D01*
X158884973Y-86066414D01*
X158881840Y-86086194D01*
X158885950Y-86129673D01*
X158886500Y-86141343D01*
X158886500Y-87947312D01*
X158866815Y-88014351D01*
X158854650Y-88030284D01*
X158779466Y-88113783D01*
X158684820Y-88277715D01*
X158626326Y-88457742D01*
X158606540Y-88645999D01*
X158272499Y-88645999D01*
X158272499Y-88306128D01*
X158266091Y-88246517D01*
X158215796Y-88111669D01*
X158129546Y-87996454D01*
X158014331Y-87910204D01*
X157879483Y-87859909D01*
X157819873Y-87853500D01*
X157816550Y-87853500D01*
X156127439Y-87853500D01*
X156127420Y-87853500D01*
X156124128Y-87853501D01*
X156120848Y-87853853D01*
X156120840Y-87853854D01*
X156064515Y-87859909D01*
X155929669Y-87910204D01*
X155814454Y-87996454D01*
X155728204Y-88111668D01*
X155677909Y-88246516D01*
X155674555Y-88277716D01*
X155671500Y-88306127D01*
X155671500Y-88309448D01*
X155671500Y-88309449D01*
X155671500Y-89998560D01*
X155671500Y-89998578D01*
X155671501Y-90001872D01*
X155671853Y-90005152D01*
X155671854Y-90005159D01*
X155677909Y-90061484D01*
X155694533Y-90106055D01*
X155728204Y-90196331D01*
X155814454Y-90311546D01*
X155929669Y-90397796D01*
X156064517Y-90448091D01*
X156099594Y-90451862D01*
X156164143Y-90478598D01*
X156203993Y-90535989D01*
X156206488Y-90605814D01*
X156170837Y-90665904D01*
X156157463Y-90676725D01*
X156132861Y-90693951D01*
X155971953Y-90854859D01*
X155841432Y-91041264D01*
X155745261Y-91247502D01*
X155686364Y-91467310D01*
X155666531Y-91694000D01*
X155686364Y-91920689D01*
X155745261Y-92140497D01*
X155841432Y-92346735D01*
X155971953Y-92533140D01*
X156132859Y-92694046D01*
X156319263Y-92824566D01*
X156319266Y-92824568D01*
X156377275Y-92851618D01*
X156429714Y-92897791D01*
X156448865Y-92964985D01*
X156428649Y-93031866D01*
X156377275Y-93076382D01*
X156319263Y-93103433D01*
X156132859Y-93233953D01*
X155971953Y-93394859D01*
X155841432Y-93581264D01*
X155745261Y-93787502D01*
X155686364Y-94007310D01*
X155666531Y-94233999D01*
X155686364Y-94460689D01*
X155745261Y-94680497D01*
X155841432Y-94886735D01*
X155971953Y-95073140D01*
X156132859Y-95234046D01*
X156319263Y-95364566D01*
X156319266Y-95364568D01*
X156377275Y-95391618D01*
X156429714Y-95437791D01*
X156448865Y-95504985D01*
X156428649Y-95571866D01*
X156377275Y-95616382D01*
X156319263Y-95643433D01*
X156132859Y-95773953D01*
X155971953Y-95934859D01*
X155841432Y-96121264D01*
X155745261Y-96327502D01*
X155686364Y-96547310D01*
X155666531Y-96773999D01*
X152529351Y-96773999D01*
X152527023Y-96751498D01*
X152558545Y-96689144D01*
X152577831Y-96672432D01*
X152763401Y-96542495D01*
X152930495Y-96375401D01*
X153066035Y-96181830D01*
X153165903Y-95967663D01*
X153227063Y-95739408D01*
X153247659Y-95504000D01*
X153241721Y-95436135D01*
X153227063Y-95268592D01*
X153217807Y-95234047D01*
X153165903Y-95040337D01*
X153066035Y-94826171D01*
X152930495Y-94632599D01*
X152763401Y-94465505D01*
X152577839Y-94335573D01*
X152534216Y-94280998D01*
X152527022Y-94211500D01*
X152558545Y-94149145D01*
X152577837Y-94132428D01*
X152763401Y-94002495D01*
X152930495Y-93835401D01*
X153066035Y-93641830D01*
X153165903Y-93427663D01*
X153227063Y-93199408D01*
X153247659Y-92964000D01*
X153227063Y-92728592D01*
X153165903Y-92500337D01*
X153066035Y-92286171D01*
X152930495Y-92092599D01*
X152763401Y-91925505D01*
X152577839Y-91795573D01*
X152534215Y-91740997D01*
X152527023Y-91671498D01*
X152558545Y-91609144D01*
X152577831Y-91592432D01*
X152763401Y-91462495D01*
X152930495Y-91295401D01*
X153066035Y-91101830D01*
X153165903Y-90887663D01*
X153227063Y-90659408D01*
X153247659Y-90424000D01*
X153243559Y-90377143D01*
X153227063Y-90188592D01*
X153217807Y-90154047D01*
X153165903Y-89960337D01*
X153066035Y-89746171D01*
X152930495Y-89552599D01*
X152763401Y-89385505D01*
X152577839Y-89255573D01*
X152534216Y-89200998D01*
X152527022Y-89131500D01*
X152558545Y-89069145D01*
X152577837Y-89052428D01*
X152763401Y-88922495D01*
X152930495Y-88755401D01*
X153066035Y-88561830D01*
X153165903Y-88347663D01*
X153227063Y-88119408D01*
X153247659Y-87884000D01*
X153227063Y-87648592D01*
X153165903Y-87420337D01*
X153066035Y-87206171D01*
X152930495Y-87012599D01*
X152763401Y-86845505D01*
X152577839Y-86715573D01*
X152534215Y-86660997D01*
X152527023Y-86591498D01*
X152558545Y-86529144D01*
X152577831Y-86512432D01*
X152763401Y-86382495D01*
X152930495Y-86215401D01*
X153066035Y-86021830D01*
X153165903Y-85807663D01*
X153227063Y-85579408D01*
X153247659Y-85344000D01*
X153227063Y-85108592D01*
X153219638Y-85080881D01*
X156318672Y-85080881D01*
X156434816Y-85152795D01*
X156642198Y-85233135D01*
X156860806Y-85274000D01*
X157083194Y-85274000D01*
X157301801Y-85233135D01*
X157509180Y-85152797D01*
X157625326Y-85080880D01*
X157625326Y-85080879D01*
X156972001Y-84427553D01*
X156972000Y-84427553D01*
X156318672Y-85080879D01*
X156318672Y-85080881D01*
X153219638Y-85080881D01*
X153165903Y-84880337D01*
X153066035Y-84666171D01*
X152930495Y-84472599D01*
X152763401Y-84305505D01*
X152577839Y-84175573D01*
X152534216Y-84120998D01*
X152529351Y-84074000D01*
X155766859Y-84074000D01*
X155787378Y-84295445D01*
X155848238Y-84509347D01*
X155947367Y-84708425D01*
X155963137Y-84729308D01*
X155963138Y-84729308D01*
X156589145Y-84103302D01*
X156618372Y-84103302D01*
X156647047Y-84216538D01*
X156710936Y-84314327D01*
X156803115Y-84386072D01*
X156913595Y-84424000D01*
X157001005Y-84424000D01*
X157087216Y-84409614D01*
X157189947Y-84354019D01*
X157269060Y-84268079D01*
X157315982Y-84161108D01*
X157323200Y-84074000D01*
X157325553Y-84074000D01*
X157980861Y-84729308D01*
X157996632Y-84708424D01*
X158095761Y-84509347D01*
X158156621Y-84295445D01*
X158177140Y-84074000D01*
X158156621Y-83852554D01*
X158095762Y-83638654D01*
X157996630Y-83439572D01*
X157980860Y-83418690D01*
X157325553Y-84073999D01*
X157325553Y-84074000D01*
X157323200Y-84074000D01*
X157325628Y-84044698D01*
X157296953Y-83931462D01*
X157233064Y-83833673D01*
X157140885Y-83761928D01*
X157030405Y-83724000D01*
X156942995Y-83724000D01*
X156856784Y-83738386D01*
X156754053Y-83793981D01*
X156674940Y-83879921D01*
X156628018Y-83986892D01*
X156618372Y-84103302D01*
X156589145Y-84103302D01*
X156618447Y-84074000D01*
X155963138Y-83418691D01*
X155963137Y-83418691D01*
X155947368Y-83439574D01*
X155848237Y-83638654D01*
X155787378Y-83852554D01*
X155766859Y-84074000D01*
X152529351Y-84074000D01*
X152527022Y-84051500D01*
X152558545Y-83989145D01*
X152577837Y-83972428D01*
X152763401Y-83842495D01*
X152930495Y-83675401D01*
X153066035Y-83481830D01*
X153165903Y-83267663D01*
X153227063Y-83039408D01*
X153247659Y-82804000D01*
X153238072Y-82694428D01*
X153227063Y-82568592D01*
X153207645Y-82496124D01*
X153165903Y-82340337D01*
X153066035Y-82126171D01*
X152930495Y-81932599D01*
X152763401Y-81765505D01*
X152577839Y-81635573D01*
X152534215Y-81580997D01*
X152529351Y-81533999D01*
X155766357Y-81533999D01*
X155786885Y-81755537D01*
X155847769Y-81969526D01*
X155946941Y-82168688D01*
X156081019Y-82346237D01*
X156245437Y-82496124D01*
X156434595Y-82613245D01*
X156434597Y-82613245D01*
X156434599Y-82613247D01*
X156629217Y-82688642D01*
X156684615Y-82731213D01*
X156708206Y-82796980D01*
X156692495Y-82865060D01*
X156642471Y-82913839D01*
X156629214Y-82919893D01*
X156434826Y-82995199D01*
X156318671Y-83067119D01*
X156972000Y-83720447D01*
X156972001Y-83720447D01*
X157625327Y-83067119D01*
X157509178Y-82995202D01*
X157314785Y-82919894D01*
X157259384Y-82877321D01*
X157235793Y-82811554D01*
X157251504Y-82743474D01*
X157301528Y-82694695D01*
X157314765Y-82688649D01*
X157509401Y-82613247D01*
X157698562Y-82496124D01*
X157862981Y-82346236D01*
X157997058Y-82168689D01*
X158096229Y-81969528D01*
X158106737Y-81932598D01*
X158119116Y-81889085D01*
X158157115Y-81755536D01*
X158177643Y-81534000D01*
X158157115Y-81312464D01*
X158111655Y-81152688D01*
X158096230Y-81098473D01*
X157997058Y-80899311D01*
X157862980Y-80721762D01*
X157698562Y-80571875D01*
X157509404Y-80454754D01*
X157474007Y-80441041D01*
X157315475Y-80379625D01*
X157260076Y-80337054D01*
X157236485Y-80271287D01*
X157252196Y-80203207D01*
X157302220Y-80154428D01*
X157315466Y-80148377D01*
X157509401Y-80073247D01*
X157698562Y-79956124D01*
X157862981Y-79806236D01*
X157997058Y-79628689D01*
X158096229Y-79429528D01*
X158106737Y-79392598D01*
X158128104Y-79317500D01*
X158157115Y-79215536D01*
X158177643Y-78994000D01*
X158157115Y-78772464D01*
X158134227Y-78692021D01*
X158096230Y-78558473D01*
X157997058Y-78359311D01*
X157862980Y-78181762D01*
X157698562Y-78031875D01*
X157509404Y-77914754D01*
X157476909Y-77902165D01*
X157314782Y-77839357D01*
X157259384Y-77796786D01*
X157235793Y-77731019D01*
X157251504Y-77662939D01*
X157301528Y-77614160D01*
X157314785Y-77608105D01*
X157509178Y-77532797D01*
X157698262Y-77415721D01*
X157862609Y-77265899D01*
X157996634Y-77088422D01*
X158095759Y-76889351D01*
X158148495Y-76704000D01*
X157217581Y-76704000D01*
X157269060Y-76648079D01*
X157315982Y-76541108D01*
X157325628Y-76424698D01*
X157296953Y-76311462D01*
X157233064Y-76213673D01*
X157140885Y-76141928D01*
X157030405Y-76104000D01*
X156942995Y-76104000D01*
X156856784Y-76118386D01*
X156754053Y-76173981D01*
X156674940Y-76259921D01*
X156628018Y-76366892D01*
X156618372Y-76483302D01*
X156647047Y-76596538D01*
X156710936Y-76694327D01*
X156723364Y-76704000D01*
X155795505Y-76704000D01*
X155848240Y-76889351D01*
X155947365Y-77088422D01*
X156081390Y-77265899D01*
X156245737Y-77415721D01*
X156434821Y-77532797D01*
X156629214Y-77608105D01*
X156684615Y-77650678D01*
X156708206Y-77716445D01*
X156692495Y-77784525D01*
X156642471Y-77833304D01*
X156629220Y-77839356D01*
X156488640Y-77893817D01*
X156434596Y-77914754D01*
X156245437Y-78031875D01*
X156081019Y-78181762D01*
X155946941Y-78359311D01*
X155847769Y-78558473D01*
X155786885Y-78772462D01*
X155766357Y-78994000D01*
X155786885Y-79215537D01*
X155847769Y-79429526D01*
X155946941Y-79628688D01*
X156081019Y-79806237D01*
X156245437Y-79956124D01*
X156362478Y-80028592D01*
X156434599Y-80073247D01*
X156628522Y-80148373D01*
X156683924Y-80190946D01*
X156707514Y-80256713D01*
X156691803Y-80324793D01*
X156641779Y-80373572D01*
X156628526Y-80379624D01*
X156497346Y-80430444D01*
X156434596Y-80454754D01*
X156245437Y-80571875D01*
X156081019Y-80721762D01*
X155946941Y-80899311D01*
X155847769Y-81098473D01*
X155786885Y-81312462D01*
X155766357Y-81533999D01*
X152529351Y-81533999D01*
X152527023Y-81511498D01*
X152558545Y-81449144D01*
X152577831Y-81432432D01*
X152763401Y-81302495D01*
X152930495Y-81135401D01*
X153066035Y-80941830D01*
X153165903Y-80727663D01*
X153227063Y-80499408D01*
X153247659Y-80264000D01*
X153227063Y-80028592D01*
X153165903Y-79800337D01*
X153066035Y-79586171D01*
X152930495Y-79392599D01*
X152763401Y-79225505D01*
X152577839Y-79095573D01*
X152534216Y-79040998D01*
X152527022Y-78971500D01*
X152558545Y-78909145D01*
X152577837Y-78892428D01*
X152763401Y-78762495D01*
X152930495Y-78595401D01*
X153066035Y-78401830D01*
X153165903Y-78187663D01*
X153227063Y-77959408D01*
X153247659Y-77724000D01*
X153247021Y-77716713D01*
X153227063Y-77488592D01*
X153207645Y-77416124D01*
X153165903Y-77260337D01*
X153066035Y-77046171D01*
X152930495Y-76852599D01*
X152763401Y-76685505D01*
X152577839Y-76555573D01*
X152534215Y-76500997D01*
X152527023Y-76431498D01*
X152558545Y-76369144D01*
X152577831Y-76352432D01*
X152763401Y-76222495D01*
X152781896Y-76204000D01*
X155795505Y-76204000D01*
X156722000Y-76204000D01*
X156722000Y-75279946D01*
X157222000Y-75279946D01*
X157222000Y-76204000D01*
X158148495Y-76204000D01*
X158095759Y-76018648D01*
X157996634Y-75819577D01*
X157862609Y-75642100D01*
X157698262Y-75492278D01*
X157509178Y-75375202D01*
X157301802Y-75294864D01*
X157222000Y-75279946D01*
X156722000Y-75279946D01*
X156642197Y-75294864D01*
X156434821Y-75375202D01*
X156245737Y-75492278D01*
X156081390Y-75642100D01*
X155947365Y-75819577D01*
X155848240Y-76018648D01*
X155795505Y-76204000D01*
X152781896Y-76204000D01*
X152930495Y-76055401D01*
X153066035Y-75861830D01*
X153165903Y-75647663D01*
X153227063Y-75419408D01*
X153247659Y-75184000D01*
X153227063Y-74948592D01*
X153165903Y-74720337D01*
X153066035Y-74506171D01*
X152930495Y-74312599D01*
X152763401Y-74145505D01*
X152577839Y-74015573D01*
X152534216Y-73960998D01*
X152527022Y-73891500D01*
X152558545Y-73829145D01*
X152577837Y-73812428D01*
X152763401Y-73682495D01*
X152930495Y-73515401D01*
X153066035Y-73321830D01*
X153165903Y-73107663D01*
X153227063Y-72879408D01*
X153247659Y-72644000D01*
X153227063Y-72408592D01*
X153165903Y-72180337D01*
X153066035Y-71966171D01*
X152930495Y-71772599D01*
X152763401Y-71605505D01*
X152577839Y-71475573D01*
X152534215Y-71420997D01*
X152529352Y-71374000D01*
X155666531Y-71374000D01*
X155686364Y-71600689D01*
X155745261Y-71820497D01*
X155841432Y-72026735D01*
X155971953Y-72213140D01*
X156132859Y-72374046D01*
X156319264Y-72504567D01*
X156319265Y-72504567D01*
X156319266Y-72504568D01*
X156525504Y-72600739D01*
X156745308Y-72659635D01*
X156896436Y-72672856D01*
X156971999Y-72679468D01*
X156971999Y-72679467D01*
X156972000Y-72679468D01*
X157198692Y-72659635D01*
X157418496Y-72600739D01*
X157624734Y-72504568D01*
X157811139Y-72374047D01*
X157972047Y-72213139D01*
X158102568Y-72026734D01*
X158198739Y-71820496D01*
X158257635Y-71600692D01*
X158277468Y-71374000D01*
X158257635Y-71147308D01*
X158198739Y-70927504D01*
X158102568Y-70721266D01*
X157995015Y-70567662D01*
X157972046Y-70534859D01*
X157811140Y-70373953D01*
X157624733Y-70243431D01*
X157566725Y-70216382D01*
X157514285Y-70170210D01*
X157495133Y-70103017D01*
X157515348Y-70036135D01*
X157566725Y-69991618D01*
X157624734Y-69964568D01*
X157811139Y-69834047D01*
X157972047Y-69673139D01*
X158102568Y-69486734D01*
X158198739Y-69280496D01*
X158257635Y-69060692D01*
X158277468Y-68834000D01*
X158277468Y-68833999D01*
X163286531Y-68833999D01*
X163306364Y-69060689D01*
X163365261Y-69280497D01*
X163461432Y-69486735D01*
X163591953Y-69673140D01*
X163752859Y-69834046D01*
X163939264Y-69964567D01*
X163939265Y-69964567D01*
X163939266Y-69964568D01*
X163997865Y-69991893D01*
X164050304Y-70038065D01*
X164069456Y-70105259D01*
X164049240Y-70172140D01*
X163997866Y-70216656D01*
X163939522Y-70243863D01*
X163753180Y-70374341D01*
X163592341Y-70535180D01*
X163461865Y-70721519D01*
X163365733Y-70927673D01*
X163313128Y-71123999D01*
X163313128Y-71124000D01*
X164276314Y-71124000D01*
X164264359Y-71135955D01*
X164206835Y-71248852D01*
X164187014Y-71374000D01*
X164206835Y-71499148D01*
X164264359Y-71612045D01*
X164276314Y-71624000D01*
X163313128Y-71624000D01*
X163365733Y-71820326D01*
X163461865Y-72026480D01*
X163592341Y-72212819D01*
X163753180Y-72373658D01*
X163939519Y-72504134D01*
X164145673Y-72600266D01*
X164341999Y-72652871D01*
X164342000Y-72652871D01*
X164342000Y-71689686D01*
X164353955Y-71701641D01*
X164466852Y-71759165D01*
X164560519Y-71774000D01*
X164623481Y-71774000D01*
X164717148Y-71759165D01*
X164830045Y-71701641D01*
X164842000Y-71689685D01*
X164842000Y-72652871D01*
X165038326Y-72600266D01*
X165244480Y-72504134D01*
X165430819Y-72373658D01*
X165591658Y-72212819D01*
X165722134Y-72026480D01*
X165818266Y-71820326D01*
X165870872Y-71624000D01*
X164907686Y-71624000D01*
X164919641Y-71612045D01*
X164977165Y-71499148D01*
X164996986Y-71374000D01*
X164977165Y-71248852D01*
X164919641Y-71135955D01*
X164907686Y-71124000D01*
X165870872Y-71124000D01*
X165870871Y-71123999D01*
X165818266Y-70927673D01*
X165722134Y-70721519D01*
X165591658Y-70535180D01*
X165430819Y-70374341D01*
X165244482Y-70243866D01*
X165186133Y-70216657D01*
X165133694Y-70170484D01*
X165114543Y-70103290D01*
X165134759Y-70036409D01*
X165186134Y-69991893D01*
X165244734Y-69964568D01*
X165431139Y-69834047D01*
X165592047Y-69673139D01*
X165722568Y-69486734D01*
X165818739Y-69280496D01*
X165877635Y-69060692D01*
X165897468Y-68834000D01*
X165877635Y-68607308D01*
X165818739Y-68387504D01*
X165722568Y-68181266D01*
X165640459Y-68064000D01*
X165592046Y-67994859D01*
X165431140Y-67833953D01*
X165244733Y-67703431D01*
X165186725Y-67676382D01*
X165134285Y-67630210D01*
X165115133Y-67563017D01*
X165135348Y-67496135D01*
X165186725Y-67451618D01*
X165244734Y-67424568D01*
X165431139Y-67294047D01*
X165592047Y-67133139D01*
X165722568Y-66946734D01*
X165818739Y-66740496D01*
X165877635Y-66520692D01*
X165897468Y-66294000D01*
X165877635Y-66067308D01*
X165818739Y-65847504D01*
X165722568Y-65641266D01*
X165615015Y-65487662D01*
X165592046Y-65454859D01*
X165431140Y-65293953D01*
X165244733Y-65163431D01*
X165186725Y-65136382D01*
X165134285Y-65090210D01*
X165115133Y-65023017D01*
X165135348Y-64956135D01*
X165186725Y-64911618D01*
X165244734Y-64884568D01*
X165431139Y-64754047D01*
X165592047Y-64593139D01*
X165722568Y-64406734D01*
X165818739Y-64200496D01*
X165877635Y-63980692D01*
X165897468Y-63754000D01*
X165877635Y-63527308D01*
X165818739Y-63307504D01*
X165722568Y-63101266D01*
X165592047Y-62914861D01*
X165592046Y-62914859D01*
X165431140Y-62753953D01*
X165244735Y-62623432D01*
X165038497Y-62527261D01*
X164818689Y-62468364D01*
X164592000Y-62448531D01*
X164365310Y-62468364D01*
X164145502Y-62527261D01*
X163939264Y-62623432D01*
X163752859Y-62753953D01*
X163591953Y-62914859D01*
X163461432Y-63101264D01*
X163365261Y-63307502D01*
X163306364Y-63527310D01*
X163286531Y-63753999D01*
X163306364Y-63980689D01*
X163365261Y-64200497D01*
X163461432Y-64406735D01*
X163591953Y-64593140D01*
X163752859Y-64754046D01*
X163813249Y-64796331D01*
X163939266Y-64884568D01*
X163997275Y-64911618D01*
X164049714Y-64957791D01*
X164068865Y-65024985D01*
X164048649Y-65091866D01*
X163997275Y-65136382D01*
X163939263Y-65163433D01*
X163752859Y-65293953D01*
X163591953Y-65454859D01*
X163461432Y-65641264D01*
X163365261Y-65847502D01*
X163306364Y-66067310D01*
X163286531Y-66294000D01*
X163306364Y-66520689D01*
X163365261Y-66740497D01*
X163461432Y-66946735D01*
X163591953Y-67133140D01*
X163752859Y-67294046D01*
X163939263Y-67424566D01*
X163939266Y-67424568D01*
X163997275Y-67451618D01*
X164049714Y-67497791D01*
X164068865Y-67564985D01*
X164048649Y-67631866D01*
X163997275Y-67676382D01*
X163939263Y-67703433D01*
X163752859Y-67833953D01*
X163591953Y-67994859D01*
X163461432Y-68181264D01*
X163365261Y-68387502D01*
X163306364Y-68607310D01*
X163286531Y-68833999D01*
X158277468Y-68833999D01*
X158257635Y-68607308D01*
X158198739Y-68387504D01*
X158102568Y-68181266D01*
X158020459Y-68064000D01*
X157972046Y-67994859D01*
X157811140Y-67833953D01*
X157624733Y-67703431D01*
X157566725Y-67676382D01*
X157514285Y-67630210D01*
X157495133Y-67563017D01*
X157515348Y-67496135D01*
X157566725Y-67451618D01*
X157624734Y-67424568D01*
X157811139Y-67294047D01*
X157972047Y-67133139D01*
X158102568Y-66946734D01*
X158198739Y-66740496D01*
X158257635Y-66520692D01*
X158277468Y-66294000D01*
X158257635Y-66067308D01*
X158198739Y-65847504D01*
X158102568Y-65641266D01*
X157995015Y-65487662D01*
X157972046Y-65454859D01*
X157811140Y-65293953D01*
X157786537Y-65276726D01*
X157742912Y-65222150D01*
X157735718Y-65152651D01*
X157767241Y-65090296D01*
X157827470Y-65054882D01*
X157844401Y-65051862D01*
X157879483Y-65048091D01*
X158014331Y-64997796D01*
X158129546Y-64911546D01*
X158215796Y-64796331D01*
X158266091Y-64661483D01*
X158272500Y-64601873D01*
X158272499Y-62906128D01*
X158266091Y-62846517D01*
X158215796Y-62711669D01*
X158129546Y-62596454D01*
X158014331Y-62510204D01*
X157879483Y-62459909D01*
X157819873Y-62453500D01*
X157816550Y-62453500D01*
X156127439Y-62453500D01*
X156127420Y-62453500D01*
X156124128Y-62453501D01*
X156120848Y-62453853D01*
X156120840Y-62453854D01*
X156064515Y-62459909D01*
X155929669Y-62510204D01*
X155814454Y-62596454D01*
X155728204Y-62711668D01*
X155677910Y-62846515D01*
X155677909Y-62846517D01*
X155671500Y-62906127D01*
X155671500Y-62909448D01*
X155671500Y-62909449D01*
X155671500Y-64598560D01*
X155671500Y-64598578D01*
X155671501Y-64601872D01*
X155677909Y-64661483D01*
X155728204Y-64796331D01*
X155814454Y-64911546D01*
X155929669Y-64997796D01*
X156064517Y-65048091D01*
X156099594Y-65051862D01*
X156164143Y-65078598D01*
X156203993Y-65135989D01*
X156206488Y-65205814D01*
X156170837Y-65265904D01*
X156157463Y-65276725D01*
X156132861Y-65293951D01*
X155971953Y-65454859D01*
X155841432Y-65641264D01*
X155745261Y-65847502D01*
X155686364Y-66067310D01*
X155666531Y-66294000D01*
X155686364Y-66520689D01*
X155745261Y-66740497D01*
X155841432Y-66946735D01*
X155971953Y-67133140D01*
X156132859Y-67294046D01*
X156319263Y-67424566D01*
X156319266Y-67424568D01*
X156377275Y-67451618D01*
X156429714Y-67497791D01*
X156448865Y-67564985D01*
X156428649Y-67631866D01*
X156377275Y-67676382D01*
X156319263Y-67703433D01*
X156132859Y-67833953D01*
X155971953Y-67994859D01*
X155841432Y-68181264D01*
X155745261Y-68387502D01*
X155686364Y-68607310D01*
X155666531Y-68833999D01*
X155686364Y-69060689D01*
X155745261Y-69280497D01*
X155841432Y-69486735D01*
X155971953Y-69673140D01*
X156132859Y-69834046D01*
X156319263Y-69964566D01*
X156319266Y-69964568D01*
X156377275Y-69991618D01*
X156429714Y-70037791D01*
X156448865Y-70104985D01*
X156428649Y-70171866D01*
X156377275Y-70216382D01*
X156319263Y-70243433D01*
X156132859Y-70373953D01*
X155971953Y-70534859D01*
X155841432Y-70721264D01*
X155745261Y-70927502D01*
X155686364Y-71147310D01*
X155666531Y-71374000D01*
X152529352Y-71374000D01*
X152527023Y-71351498D01*
X152558545Y-71289144D01*
X152577831Y-71272432D01*
X152763401Y-71142495D01*
X152930495Y-70975401D01*
X153066035Y-70781830D01*
X153165903Y-70567663D01*
X153227063Y-70339408D01*
X153247659Y-70104000D01*
X153241721Y-70036135D01*
X153227063Y-69868592D01*
X153217807Y-69834047D01*
X153165903Y-69640337D01*
X153066035Y-69426171D01*
X152930495Y-69232599D01*
X152763401Y-69065505D01*
X152577839Y-68935573D01*
X152534216Y-68880998D01*
X152527022Y-68811500D01*
X152558545Y-68749145D01*
X152577837Y-68732428D01*
X152763401Y-68602495D01*
X152930495Y-68435401D01*
X153066035Y-68241830D01*
X153165903Y-68027663D01*
X153227063Y-67799408D01*
X153247659Y-67564000D01*
X153227063Y-67328592D01*
X153165903Y-67100337D01*
X153066035Y-66886171D01*
X152930495Y-66692599D01*
X152763401Y-66525505D01*
X152577839Y-66395573D01*
X152534215Y-66340997D01*
X152527023Y-66271498D01*
X152558545Y-66209144D01*
X152577831Y-66192432D01*
X152763401Y-66062495D01*
X152930495Y-65895401D01*
X153066035Y-65701830D01*
X153165903Y-65487663D01*
X153227063Y-65259408D01*
X153247659Y-65024000D01*
X153227063Y-64788592D01*
X153165903Y-64560337D01*
X153066035Y-64346171D01*
X152930495Y-64152599D01*
X152808568Y-64030672D01*
X152775084Y-63969350D01*
X152780068Y-63899658D01*
X152821940Y-63843725D01*
X152852915Y-63826810D01*
X152984331Y-63777796D01*
X153099546Y-63691546D01*
X153185796Y-63576331D01*
X153236091Y-63441483D01*
X153242500Y-63381873D01*
X153242499Y-61586128D01*
X153236091Y-61526517D01*
X153185796Y-61391669D01*
X153099546Y-61276454D01*
X152984331Y-61190204D01*
X152984328Y-61190203D01*
X152975063Y-61183267D01*
X152933192Y-61127333D01*
X152928208Y-61057642D01*
X152961693Y-60996319D01*
X153023016Y-60962834D01*
X153049374Y-60960000D01*
X168514626Y-60960000D01*
X168581665Y-60979685D01*
X168627420Y-61032489D01*
X168637364Y-61101647D01*
X168608339Y-61165203D01*
X168588937Y-61183267D01*
X168579671Y-61190203D01*
X168579669Y-61190204D01*
X168516879Y-61237208D01*
X168464453Y-61276454D01*
X168378204Y-61391668D01*
X168327910Y-61526515D01*
X168327909Y-61526517D01*
X168321500Y-61586127D01*
X168321500Y-61589448D01*
X168321500Y-61589449D01*
X168321500Y-63378560D01*
X168321500Y-63378578D01*
X168321501Y-63381872D01*
X168327909Y-63441483D01*
X168378204Y-63576331D01*
X168464454Y-63691546D01*
X168579669Y-63777796D01*
X168691907Y-63819658D01*
X168711082Y-63826810D01*
X168767016Y-63868681D01*
X168791433Y-63934146D01*
X168776581Y-64002419D01*
X168755431Y-64030673D01*
X168633503Y-64152601D01*
X168497965Y-64346170D01*
X168398097Y-64560336D01*
X168336936Y-64788592D01*
X168316340Y-65024000D01*
X168336936Y-65259407D01*
X168346193Y-65293953D01*
X168398097Y-65487663D01*
X168497965Y-65701830D01*
X168633505Y-65895401D01*
X168800599Y-66062495D01*
X168986596Y-66192732D01*
X169030219Y-66247307D01*
X169037412Y-66316806D01*
X169005890Y-66379160D01*
X168986595Y-66395880D01*
X168800919Y-66525892D01*
X168633890Y-66692921D01*
X168498400Y-66886421D01*
X168398569Y-67100507D01*
X168341364Y-67313999D01*
X168341364Y-67314000D01*
X169238314Y-67314000D01*
X169212507Y-67354156D01*
X169172000Y-67492111D01*
X169172000Y-67635889D01*
X169212507Y-67773844D01*
X169238314Y-67814000D01*
X168341364Y-67814000D01*
X168398569Y-68027492D01*
X168498399Y-68241576D01*
X168633893Y-68435081D01*
X168800918Y-68602106D01*
X168986595Y-68732119D01*
X169030219Y-68786696D01*
X169037412Y-68856195D01*
X169005890Y-68918549D01*
X168986595Y-68935269D01*
X168883016Y-69007796D01*
X168802035Y-69064500D01*
X168800595Y-69065508D01*
X168633505Y-69232598D01*
X168497965Y-69426170D01*
X168398097Y-69640336D01*
X168336936Y-69868592D01*
X168316340Y-70104000D01*
X168336936Y-70339407D01*
X168346193Y-70373953D01*
X168398097Y-70567663D01*
X168497965Y-70781830D01*
X168633505Y-70975401D01*
X168800599Y-71142495D01*
X168986160Y-71272426D01*
X169029783Y-71327002D01*
X169036976Y-71396501D01*
X169005454Y-71458855D01*
X168986159Y-71475575D01*
X168800595Y-71605508D01*
X168633505Y-71772598D01*
X168497965Y-71966170D01*
X168398097Y-72180336D01*
X168336936Y-72408592D01*
X168316340Y-72643999D01*
X168336936Y-72879407D01*
X168381709Y-73046502D01*
X168398097Y-73107663D01*
X168497965Y-73321830D01*
X168633505Y-73515401D01*
X168800599Y-73682495D01*
X168986160Y-73812426D01*
X169029783Y-73867002D01*
X169036976Y-73936501D01*
X169005454Y-73998855D01*
X168986160Y-74015574D01*
X168802035Y-74144500D01*
X168800595Y-74145508D01*
X168633505Y-74312598D01*
X168497965Y-74506170D01*
X168398097Y-74720336D01*
X168336936Y-74948592D01*
X168316340Y-75184000D01*
X168336936Y-75419407D01*
X168374460Y-75559449D01*
X168398097Y-75647663D01*
X168497965Y-75861830D01*
X168633505Y-76055401D01*
X168800599Y-76222495D01*
X168986160Y-76352426D01*
X169029783Y-76407002D01*
X169036976Y-76476501D01*
X169005454Y-76538855D01*
X168986160Y-76555574D01*
X168814837Y-76675536D01*
X168800595Y-76685508D01*
X168633505Y-76852598D01*
X168497965Y-77046170D01*
X168398097Y-77260336D01*
X168336936Y-77488592D01*
X168316340Y-77723999D01*
X168336936Y-77959407D01*
X168381709Y-78126501D01*
X168398097Y-78187663D01*
X168497965Y-78401830D01*
X168633505Y-78595401D01*
X168800599Y-78762495D01*
X168986160Y-78892426D01*
X169029783Y-78947002D01*
X169036976Y-79016501D01*
X169005454Y-79078855D01*
X168986160Y-79095574D01*
X168814837Y-79215536D01*
X168800595Y-79225508D01*
X168633505Y-79392598D01*
X168497965Y-79586170D01*
X168398097Y-79800336D01*
X168336936Y-80028592D01*
X168316340Y-80263999D01*
X168336936Y-80499407D01*
X168381709Y-80666501D01*
X168398097Y-80727663D01*
X168497965Y-80941830D01*
X168633505Y-81135401D01*
X168800599Y-81302495D01*
X168986160Y-81432426D01*
X169029783Y-81487002D01*
X169036976Y-81556501D01*
X169005454Y-81618855D01*
X168986160Y-81635574D01*
X168814837Y-81755536D01*
X168800595Y-81765508D01*
X168633505Y-81932598D01*
X168497965Y-82126170D01*
X168398097Y-82340336D01*
X168336936Y-82568592D01*
X168316340Y-82804000D01*
X168336936Y-83039407D01*
X168381709Y-83206501D01*
X168398097Y-83267663D01*
X168497965Y-83481830D01*
X168633505Y-83675401D01*
X168800599Y-83842495D01*
X168986160Y-83972426D01*
X169029783Y-84027002D01*
X169036976Y-84096501D01*
X169005454Y-84158855D01*
X168986160Y-84175574D01*
X168814837Y-84295536D01*
X168800595Y-84305508D01*
X168633505Y-84472598D01*
X168497965Y-84666170D01*
X168398097Y-84880336D01*
X168336936Y-85108592D01*
X168316340Y-85343999D01*
X168336936Y-85579407D01*
X168375864Y-85724688D01*
X168398097Y-85807663D01*
X168497965Y-86021830D01*
X168633505Y-86215401D01*
X168800599Y-86382495D01*
X168986160Y-86512426D01*
X169029783Y-86567002D01*
X169036976Y-86636501D01*
X169005454Y-86698855D01*
X168986159Y-86715575D01*
X168800595Y-86845508D01*
X168633505Y-87012598D01*
X168497965Y-87206170D01*
X168398097Y-87420336D01*
X168336936Y-87648592D01*
X168316340Y-87884000D01*
X168336936Y-88119407D01*
X168370995Y-88246515D01*
X168398097Y-88347663D01*
X168497965Y-88561830D01*
X168633505Y-88755401D01*
X168800599Y-88922495D01*
X168986160Y-89052426D01*
X169029783Y-89107002D01*
X169036976Y-89176501D01*
X169005454Y-89238855D01*
X168986160Y-89255574D01*
X168814837Y-89375536D01*
X168800595Y-89385508D01*
X168633505Y-89552598D01*
X168497965Y-89746170D01*
X168398097Y-89960336D01*
X168336936Y-90188592D01*
X168316340Y-90423999D01*
X168336936Y-90659407D01*
X168346193Y-90693953D01*
X168398097Y-90887663D01*
X168497965Y-91101830D01*
X168633505Y-91295401D01*
X168800599Y-91462495D01*
X168986160Y-91592426D01*
X169029783Y-91647002D01*
X169036976Y-91716501D01*
X169005454Y-91778855D01*
X168986159Y-91795575D01*
X168800595Y-91925508D01*
X168633505Y-92092598D01*
X168497965Y-92286170D01*
X168398097Y-92500336D01*
X168336936Y-92728592D01*
X168316340Y-92963999D01*
X168336936Y-93199407D01*
X168381709Y-93366501D01*
X168398097Y-93427663D01*
X168497965Y-93641830D01*
X168633505Y-93835401D01*
X168800599Y-94002495D01*
X168986160Y-94132426D01*
X169029783Y-94187002D01*
X169036976Y-94256501D01*
X169005454Y-94318855D01*
X168986159Y-94335575D01*
X168800595Y-94465508D01*
X168633505Y-94632598D01*
X168497965Y-94826170D01*
X168398097Y-95040336D01*
X168336936Y-95268592D01*
X168316340Y-95504000D01*
X168336936Y-95739407D01*
X168365856Y-95847337D01*
X168398097Y-95967663D01*
X168497965Y-96181830D01*
X168633505Y-96375401D01*
X168800599Y-96542495D01*
X168986160Y-96672426D01*
X169029783Y-96727002D01*
X169036976Y-96796501D01*
X169005454Y-96858855D01*
X168986159Y-96875575D01*
X168800595Y-97005508D01*
X168633505Y-97172598D01*
X168497965Y-97366170D01*
X168398097Y-97580336D01*
X168336936Y-97808592D01*
X168316340Y-98044000D01*
X168336936Y-98279407D01*
X168364655Y-98382855D01*
X168398097Y-98507663D01*
X168497965Y-98721830D01*
X168633505Y-98915401D01*
X168800599Y-99082495D01*
X168986160Y-99212426D01*
X169029783Y-99267002D01*
X169036976Y-99336501D01*
X169005454Y-99398855D01*
X168986159Y-99415575D01*
X168800595Y-99545508D01*
X168633505Y-99712598D01*
X168497965Y-99906170D01*
X168398097Y-100120336D01*
X168336936Y-100348592D01*
X168316340Y-100583999D01*
X168336936Y-100819407D01*
X168369217Y-100939880D01*
X168398097Y-101047663D01*
X168497965Y-101261830D01*
X168633505Y-101455401D01*
X168800599Y-101622495D01*
X168986160Y-101752426D01*
X169029783Y-101807002D01*
X169036976Y-101876501D01*
X169005454Y-101938855D01*
X168986158Y-101955575D01*
X168814837Y-102075536D01*
X168800595Y-102085508D01*
X168633505Y-102252598D01*
X168497965Y-102446170D01*
X168398097Y-102660336D01*
X168336936Y-102888592D01*
X168316340Y-103124000D01*
X168336936Y-103359407D01*
X168364573Y-103462549D01*
X168398097Y-103587663D01*
X168497965Y-103801830D01*
X168633505Y-103995401D01*
X168800599Y-104162495D01*
X168986160Y-104292426D01*
X169029783Y-104347002D01*
X169036976Y-104416501D01*
X169005454Y-104478855D01*
X168986160Y-104495574D01*
X168814837Y-104615536D01*
X168800595Y-104625508D01*
X168633505Y-104792598D01*
X168497965Y-104986170D01*
X168398097Y-105200336D01*
X168336936Y-105428592D01*
X168316340Y-105663999D01*
X168336936Y-105899407D01*
X168364655Y-106002855D01*
X168398097Y-106127663D01*
X168497965Y-106341830D01*
X168633505Y-106535401D01*
X168800599Y-106702495D01*
X168986160Y-106832426D01*
X169029783Y-106887002D01*
X169036976Y-106956501D01*
X169005454Y-107018855D01*
X168986160Y-107035574D01*
X168814837Y-107155536D01*
X168800595Y-107165508D01*
X168633505Y-107332598D01*
X168497965Y-107526170D01*
X168398097Y-107740336D01*
X168336936Y-107968592D01*
X168316340Y-108204000D01*
X168336936Y-108439407D01*
X168369217Y-108559880D01*
X168398097Y-108667663D01*
X168497965Y-108881830D01*
X168633505Y-109075401D01*
X168800599Y-109242495D01*
X168986160Y-109372426D01*
X169029783Y-109427002D01*
X169036976Y-109496501D01*
X169005454Y-109558855D01*
X168986160Y-109575574D01*
X168814837Y-109695536D01*
X168800595Y-109705508D01*
X168633505Y-109872598D01*
X168497965Y-110066170D01*
X168398097Y-110280336D01*
X168336936Y-110508592D01*
X168316340Y-110744000D01*
X168336936Y-110979407D01*
X168364573Y-111082549D01*
X168398097Y-111207663D01*
X168497965Y-111421830D01*
X168633505Y-111615401D01*
X168800599Y-111782495D01*
X168994170Y-111918035D01*
X169208337Y-112017903D01*
X169436591Y-112079062D01*
X169436592Y-112079063D01*
X169671999Y-112099659D01*
X169671999Y-112099658D01*
X169672000Y-112099659D01*
X169907408Y-112079063D01*
X170135663Y-112017903D01*
X170349830Y-111918035D01*
X170543401Y-111782495D01*
X170710495Y-111615401D01*
X170846035Y-111421830D01*
X170945903Y-111207663D01*
X171007063Y-110979408D01*
X171027659Y-110744000D01*
X171007063Y-110508592D01*
X170945903Y-110280337D01*
X170846035Y-110066171D01*
X170710495Y-109872599D01*
X170543401Y-109705505D01*
X170357839Y-109575573D01*
X170314215Y-109520997D01*
X170307023Y-109451498D01*
X170338545Y-109389144D01*
X170357831Y-109372432D01*
X170543401Y-109242495D01*
X170710495Y-109075401D01*
X170846035Y-108881830D01*
X170945903Y-108667663D01*
X171007063Y-108439408D01*
X171027659Y-108204000D01*
X171007063Y-107968592D01*
X170945903Y-107740337D01*
X170846035Y-107526171D01*
X170710495Y-107332599D01*
X170543401Y-107165505D01*
X170357839Y-107035573D01*
X170314216Y-106980998D01*
X170307022Y-106911500D01*
X170338545Y-106849145D01*
X170357837Y-106832428D01*
X170543401Y-106702495D01*
X170710495Y-106535401D01*
X170846035Y-106341830D01*
X170945903Y-106127663D01*
X171007063Y-105899408D01*
X171027659Y-105664000D01*
X171027021Y-105656713D01*
X171007063Y-105428592D01*
X170979528Y-105325830D01*
X170945903Y-105200337D01*
X170846035Y-104986171D01*
X170710495Y-104792599D01*
X170543401Y-104625505D01*
X170357839Y-104495573D01*
X170314215Y-104440997D01*
X170307023Y-104371498D01*
X170338545Y-104309144D01*
X170357831Y-104292432D01*
X170543401Y-104162495D01*
X170710495Y-103995401D01*
X170846035Y-103801830D01*
X170945903Y-103587663D01*
X171007063Y-103359408D01*
X171027659Y-103124000D01*
X171027021Y-103116713D01*
X171007063Y-102888592D01*
X170987645Y-102816124D01*
X170945903Y-102660337D01*
X170846035Y-102446171D01*
X170710495Y-102252599D01*
X170543401Y-102085505D01*
X170357839Y-101955573D01*
X170314216Y-101900998D01*
X170307022Y-101831500D01*
X170338545Y-101769145D01*
X170357837Y-101752428D01*
X170543401Y-101622495D01*
X170710495Y-101455401D01*
X170846035Y-101261830D01*
X170945903Y-101047663D01*
X171007063Y-100819408D01*
X171027659Y-100584000D01*
X171007063Y-100348592D01*
X170945903Y-100120337D01*
X170846035Y-99906171D01*
X170710495Y-99712599D01*
X170543401Y-99545505D01*
X170357839Y-99415573D01*
X170314215Y-99360997D01*
X170307023Y-99291498D01*
X170338545Y-99229144D01*
X170357831Y-99212432D01*
X170543401Y-99082495D01*
X170710495Y-98915401D01*
X170846035Y-98721830D01*
X170945903Y-98507663D01*
X171007063Y-98279408D01*
X171027659Y-98044000D01*
X171007063Y-97808592D01*
X170945903Y-97580337D01*
X170846035Y-97366171D01*
X170710495Y-97172599D01*
X170543401Y-97005505D01*
X170357839Y-96875573D01*
X170314216Y-96820998D01*
X170307022Y-96751500D01*
X170338545Y-96689145D01*
X170357837Y-96672428D01*
X170543401Y-96542495D01*
X170710495Y-96375401D01*
X170846035Y-96181830D01*
X170945903Y-95967663D01*
X171007063Y-95739408D01*
X171027659Y-95504000D01*
X171007063Y-95268592D01*
X170945903Y-95040337D01*
X170846035Y-94826171D01*
X170710495Y-94632599D01*
X170543401Y-94465505D01*
X170357839Y-94335573D01*
X170314215Y-94280997D01*
X170307023Y-94211498D01*
X170338545Y-94149144D01*
X170357831Y-94132432D01*
X170543401Y-94002495D01*
X170710495Y-93835401D01*
X170846035Y-93641830D01*
X170945903Y-93427663D01*
X171007063Y-93199408D01*
X171027659Y-92964000D01*
X171021721Y-92896135D01*
X171007063Y-92728592D01*
X170997807Y-92694047D01*
X170945903Y-92500337D01*
X170846035Y-92286171D01*
X170710495Y-92092599D01*
X170543401Y-91925505D01*
X170357839Y-91795573D01*
X170314216Y-91740998D01*
X170307022Y-91671500D01*
X170338545Y-91609145D01*
X170357837Y-91592428D01*
X170543401Y-91462495D01*
X170710495Y-91295401D01*
X170846035Y-91101830D01*
X170945903Y-90887663D01*
X171007063Y-90659408D01*
X171027659Y-90424000D01*
X171023559Y-90377143D01*
X171007063Y-90188592D01*
X170997807Y-90154047D01*
X170945903Y-89960337D01*
X170846035Y-89746171D01*
X170710495Y-89552599D01*
X170543401Y-89385505D01*
X170357839Y-89255573D01*
X170314215Y-89200997D01*
X170307023Y-89131498D01*
X170338545Y-89069144D01*
X170357831Y-89052432D01*
X170543401Y-88922495D01*
X170710495Y-88755401D01*
X170846035Y-88561830D01*
X170945903Y-88347663D01*
X171007063Y-88119408D01*
X171027659Y-87884000D01*
X171007063Y-87648592D01*
X170945903Y-87420337D01*
X170925228Y-87376000D01*
X172022357Y-87376000D01*
X172042885Y-87597537D01*
X172103769Y-87811526D01*
X172202941Y-88010688D01*
X172337019Y-88188237D01*
X172501437Y-88338124D01*
X172690595Y-88455245D01*
X172690597Y-88455245D01*
X172690599Y-88455247D01*
X172898060Y-88535618D01*
X173116757Y-88576500D01*
X173116759Y-88576500D01*
X173339241Y-88576500D01*
X173339243Y-88576500D01*
X173557940Y-88535618D01*
X173765401Y-88455247D01*
X173954562Y-88338124D01*
X174118981Y-88188236D01*
X174253058Y-88010689D01*
X174352229Y-87811528D01*
X174413115Y-87597536D01*
X174433643Y-87376000D01*
X177102357Y-87376000D01*
X177122885Y-87597537D01*
X177183769Y-87811526D01*
X177282941Y-88010688D01*
X177417019Y-88188237D01*
X177581437Y-88338124D01*
X177770595Y-88455245D01*
X177770597Y-88455245D01*
X177770599Y-88455247D01*
X177978060Y-88535618D01*
X178196757Y-88576500D01*
X178196759Y-88576500D01*
X178419241Y-88576500D01*
X178419243Y-88576500D01*
X178637940Y-88535618D01*
X178845401Y-88455247D01*
X179034562Y-88338124D01*
X179198981Y-88188236D01*
X179333058Y-88010689D01*
X179432229Y-87811528D01*
X179493115Y-87597536D01*
X179513643Y-87376000D01*
X179493115Y-87154464D01*
X179452751Y-87012598D01*
X179432230Y-86940473D01*
X179333058Y-86741311D01*
X179198980Y-86563762D01*
X179034564Y-86413877D01*
X178912706Y-86338426D01*
X178866071Y-86286398D01*
X178854967Y-86217416D01*
X178882920Y-86153382D01*
X178912698Y-86127578D01*
X179034562Y-86052124D01*
X179198981Y-85902236D01*
X179333058Y-85724689D01*
X179432229Y-85525528D01*
X179493115Y-85311536D01*
X179513643Y-85090000D01*
X179493115Y-84868464D01*
X179435558Y-84666171D01*
X179432230Y-84654473D01*
X179333058Y-84455311D01*
X179198980Y-84277762D01*
X179034562Y-84127876D01*
X178912707Y-84052427D01*
X178866071Y-84000400D01*
X178854967Y-83931418D01*
X178882920Y-83867383D01*
X178912707Y-83841573D01*
X178925466Y-83833673D01*
X179034562Y-83766124D01*
X179198981Y-83616236D01*
X179333058Y-83438689D01*
X179432229Y-83239528D01*
X179493115Y-83025536D01*
X179513643Y-82804000D01*
X179493115Y-82582464D01*
X179446269Y-82417816D01*
X179432230Y-82368473D01*
X179333058Y-82169311D01*
X179198980Y-81991762D01*
X179034562Y-81841876D01*
X178994431Y-81817028D01*
X178912706Y-81766426D01*
X178866071Y-81714400D01*
X178854967Y-81645418D01*
X178882920Y-81581383D01*
X178912707Y-81555573D01*
X179034562Y-81480124D01*
X179198981Y-81330236D01*
X179333058Y-81152689D01*
X179432229Y-80953528D01*
X179435558Y-80941830D01*
X179455116Y-80873085D01*
X179493115Y-80739536D01*
X179513643Y-80518000D01*
X179493115Y-80296464D01*
X179463093Y-80190946D01*
X179432230Y-80082473D01*
X179333058Y-79883311D01*
X179198980Y-79705762D01*
X179034562Y-79555875D01*
X178845404Y-79438754D01*
X178726261Y-79392598D01*
X178637940Y-79358382D01*
X178419243Y-79317500D01*
X178196757Y-79317500D01*
X177978060Y-79358382D01*
X177770595Y-79438754D01*
X177581437Y-79555875D01*
X177417019Y-79705762D01*
X177282941Y-79883311D01*
X177183769Y-80082473D01*
X177122885Y-80296462D01*
X177102357Y-80517999D01*
X177122885Y-80739537D01*
X177183769Y-80953526D01*
X177282941Y-81152688D01*
X177417019Y-81330237D01*
X177581435Y-81480122D01*
X177581437Y-81480123D01*
X177581438Y-81480124D01*
X177632109Y-81511498D01*
X177703293Y-81555573D01*
X177749928Y-81607601D01*
X177761032Y-81676583D01*
X177733079Y-81740617D01*
X177703293Y-81766426D01*
X177693056Y-81772765D01*
X177581435Y-81841877D01*
X177417019Y-81991762D01*
X177282941Y-82169311D01*
X177183769Y-82368473D01*
X177122885Y-82582462D01*
X177108797Y-82734500D01*
X177102357Y-82804000D01*
X177109126Y-82877054D01*
X177122885Y-83025537D01*
X177183769Y-83239526D01*
X177282941Y-83438688D01*
X177417019Y-83616237D01*
X177581435Y-83766122D01*
X177703293Y-83841573D01*
X177749928Y-83893601D01*
X177761032Y-83962583D01*
X177733079Y-84026617D01*
X177703293Y-84052427D01*
X177581435Y-84127877D01*
X177417019Y-84277762D01*
X177282941Y-84455311D01*
X177183769Y-84654473D01*
X177122885Y-84868462D01*
X177102357Y-85090000D01*
X177122885Y-85311537D01*
X177183769Y-85525526D01*
X177282941Y-85724688D01*
X177417019Y-85902237D01*
X177581435Y-86052122D01*
X177581437Y-86052123D01*
X177581438Y-86052124D01*
X177703290Y-86127571D01*
X177703293Y-86127573D01*
X177749928Y-86179601D01*
X177761032Y-86248583D01*
X177733079Y-86312617D01*
X177703293Y-86338427D01*
X177581435Y-86413877D01*
X177417019Y-86563762D01*
X177282941Y-86741311D01*
X177183769Y-86940473D01*
X177122885Y-87154462D01*
X177102357Y-87376000D01*
X174433643Y-87376000D01*
X174413115Y-87154464D01*
X174372751Y-87012598D01*
X174352230Y-86940473D01*
X174253058Y-86741311D01*
X174118980Y-86563762D01*
X173954564Y-86413877D01*
X173832706Y-86338426D01*
X173786071Y-86286398D01*
X173774967Y-86217416D01*
X173802920Y-86153382D01*
X173832698Y-86127578D01*
X173954562Y-86052124D01*
X174118981Y-85902236D01*
X174253058Y-85724689D01*
X174352229Y-85525528D01*
X174413115Y-85311536D01*
X174433643Y-85090000D01*
X174413115Y-84868464D01*
X174355558Y-84666171D01*
X174352230Y-84654473D01*
X174253058Y-84455311D01*
X174118980Y-84277762D01*
X173954562Y-84127876D01*
X173832707Y-84052427D01*
X173786071Y-84000400D01*
X173774967Y-83931418D01*
X173802920Y-83867383D01*
X173832707Y-83841573D01*
X173845466Y-83833673D01*
X173954562Y-83766124D01*
X174118981Y-83616236D01*
X174253058Y-83438689D01*
X174352229Y-83239528D01*
X174413115Y-83025536D01*
X174433643Y-82804000D01*
X174413115Y-82582464D01*
X174366269Y-82417816D01*
X174352230Y-82368473D01*
X174253058Y-82169311D01*
X174118980Y-81991762D01*
X173954562Y-81841876D01*
X173914431Y-81817028D01*
X173832706Y-81766426D01*
X173786071Y-81714400D01*
X173774967Y-81645418D01*
X173802920Y-81581383D01*
X173832707Y-81555573D01*
X173954562Y-81480124D01*
X174118981Y-81330236D01*
X174253058Y-81152689D01*
X174352229Y-80953528D01*
X174355558Y-80941830D01*
X174375116Y-80873085D01*
X174413115Y-80739536D01*
X174433643Y-80518000D01*
X174413115Y-80296464D01*
X174383093Y-80190946D01*
X174352230Y-80082473D01*
X174253058Y-79883311D01*
X174118980Y-79705762D01*
X173954562Y-79555875D01*
X173765404Y-79438754D01*
X173646261Y-79392598D01*
X173557940Y-79358382D01*
X173339243Y-79317500D01*
X173116757Y-79317500D01*
X172898059Y-79358382D01*
X172898060Y-79358382D01*
X172690595Y-79438754D01*
X172501437Y-79555875D01*
X172337019Y-79705762D01*
X172202941Y-79883311D01*
X172103769Y-80082473D01*
X172042885Y-80296462D01*
X172022357Y-80518000D01*
X172042885Y-80739537D01*
X172103769Y-80953526D01*
X172202941Y-81152688D01*
X172337019Y-81330237D01*
X172501435Y-81480122D01*
X172501437Y-81480123D01*
X172501438Y-81480124D01*
X172552109Y-81511498D01*
X172623293Y-81555573D01*
X172669928Y-81607601D01*
X172681032Y-81676583D01*
X172653079Y-81740617D01*
X172623293Y-81766426D01*
X172613056Y-81772765D01*
X172501435Y-81841877D01*
X172337019Y-81991762D01*
X172202941Y-82169311D01*
X172103769Y-82368473D01*
X172042885Y-82582462D01*
X172028797Y-82734500D01*
X172022357Y-82804000D01*
X172029126Y-82877054D01*
X172042885Y-83025537D01*
X172103769Y-83239526D01*
X172202941Y-83438688D01*
X172337019Y-83616237D01*
X172501435Y-83766122D01*
X172623293Y-83841573D01*
X172669928Y-83893601D01*
X172681032Y-83962583D01*
X172653079Y-84026617D01*
X172623293Y-84052427D01*
X172501435Y-84127877D01*
X172337019Y-84277762D01*
X172202941Y-84455311D01*
X172103769Y-84654473D01*
X172042885Y-84868462D01*
X172022357Y-85090000D01*
X172042885Y-85311537D01*
X172103769Y-85525526D01*
X172202941Y-85724688D01*
X172337019Y-85902237D01*
X172468204Y-86021827D01*
X172501438Y-86052124D01*
X172623292Y-86127573D01*
X172669928Y-86179599D01*
X172681032Y-86248581D01*
X172653079Y-86312615D01*
X172623293Y-86338426D01*
X172501435Y-86413877D01*
X172337019Y-86563762D01*
X172202941Y-86741311D01*
X172103769Y-86940473D01*
X172042885Y-87154462D01*
X172022357Y-87376000D01*
X170925228Y-87376000D01*
X170846035Y-87206171D01*
X170710495Y-87012599D01*
X170543401Y-86845505D01*
X170357839Y-86715573D01*
X170314216Y-86660998D01*
X170307022Y-86591500D01*
X170338545Y-86529145D01*
X170357837Y-86512428D01*
X170543401Y-86382495D01*
X170710495Y-86215401D01*
X170846035Y-86021830D01*
X170945903Y-85807663D01*
X171007063Y-85579408D01*
X171027659Y-85344000D01*
X171007063Y-85108592D01*
X170945903Y-84880337D01*
X170846035Y-84666171D01*
X170710495Y-84472599D01*
X170543401Y-84305505D01*
X170357839Y-84175573D01*
X170314215Y-84120997D01*
X170307023Y-84051498D01*
X170338545Y-83989144D01*
X170357831Y-83972432D01*
X170543401Y-83842495D01*
X170710495Y-83675401D01*
X170846035Y-83481830D01*
X170945903Y-83267663D01*
X171007063Y-83039408D01*
X171027659Y-82804000D01*
X171007063Y-82568592D01*
X170945903Y-82340337D01*
X170846035Y-82126171D01*
X170710495Y-81932599D01*
X170543401Y-81765505D01*
X170357839Y-81635573D01*
X170314216Y-81580998D01*
X170307022Y-81511500D01*
X170338545Y-81449145D01*
X170357837Y-81432428D01*
X170543401Y-81302495D01*
X170710495Y-81135401D01*
X170846035Y-80941830D01*
X170945903Y-80727663D01*
X171007063Y-80499408D01*
X171027659Y-80264000D01*
X171027021Y-80256713D01*
X171007063Y-80028592D01*
X170987645Y-79956124D01*
X170945903Y-79800337D01*
X170846035Y-79586171D01*
X170710495Y-79392599D01*
X170543401Y-79225505D01*
X170357839Y-79095573D01*
X170314215Y-79040997D01*
X170307023Y-78971498D01*
X170338545Y-78909144D01*
X170357831Y-78892432D01*
X170543401Y-78762495D01*
X170710495Y-78595401D01*
X170846035Y-78401830D01*
X170945903Y-78187663D01*
X171007063Y-77959408D01*
X171027659Y-77724000D01*
X171027021Y-77716713D01*
X171007063Y-77488592D01*
X170987645Y-77416124D01*
X170945903Y-77260337D01*
X170846035Y-77046171D01*
X170710495Y-76852599D01*
X170543401Y-76685505D01*
X170357839Y-76555573D01*
X170314216Y-76500998D01*
X170307022Y-76431500D01*
X170338545Y-76369145D01*
X170357837Y-76352428D01*
X170543401Y-76222495D01*
X170710495Y-76055401D01*
X170846035Y-75861830D01*
X170945903Y-75647663D01*
X171007063Y-75419408D01*
X171027659Y-75184000D01*
X171007063Y-74948592D01*
X170945903Y-74720337D01*
X170846035Y-74506171D01*
X170710495Y-74312599D01*
X170543401Y-74145505D01*
X170357839Y-74015573D01*
X170314215Y-73960997D01*
X170307023Y-73891498D01*
X170338545Y-73829144D01*
X170357831Y-73812432D01*
X170543401Y-73682495D01*
X170710495Y-73515401D01*
X170846035Y-73321830D01*
X170945903Y-73107663D01*
X171007063Y-72879408D01*
X171027659Y-72644000D01*
X171007063Y-72408592D01*
X170945903Y-72180337D01*
X170846035Y-71966171D01*
X170710495Y-71772599D01*
X170543401Y-71605505D01*
X170357839Y-71475573D01*
X170314216Y-71420998D01*
X170307022Y-71351500D01*
X170338545Y-71289145D01*
X170357837Y-71272428D01*
X170543401Y-71142495D01*
X170710495Y-70975401D01*
X170846035Y-70781830D01*
X170945903Y-70567663D01*
X171007063Y-70339408D01*
X171027659Y-70104000D01*
X171007063Y-69868592D01*
X170945903Y-69640337D01*
X170846035Y-69426171D01*
X170710495Y-69232599D01*
X170543401Y-69065505D01*
X170357402Y-68935267D01*
X170313780Y-68880692D01*
X170306587Y-68811193D01*
X170338109Y-68748839D01*
X170357405Y-68732119D01*
X170543078Y-68602109D01*
X170710106Y-68435081D01*
X170845600Y-68241576D01*
X170945430Y-68027492D01*
X171002636Y-67814000D01*
X170105686Y-67814000D01*
X170131493Y-67773844D01*
X170172000Y-67635889D01*
X170172000Y-67492111D01*
X170131493Y-67354156D01*
X170105686Y-67314000D01*
X171002636Y-67314000D01*
X171002635Y-67313999D01*
X170945430Y-67100507D01*
X170845599Y-66886421D01*
X170710109Y-66692921D01*
X170543081Y-66525893D01*
X170357404Y-66395880D01*
X170313780Y-66341303D01*
X170306587Y-66271804D01*
X170338109Y-66209450D01*
X170357399Y-66192734D01*
X170543401Y-66062495D01*
X170710495Y-65895401D01*
X170846035Y-65701830D01*
X170945903Y-65487663D01*
X171007063Y-65259408D01*
X171027659Y-65024000D01*
X171007063Y-64788592D01*
X170945903Y-64560337D01*
X170846035Y-64346171D01*
X170710495Y-64152599D01*
X170588568Y-64030672D01*
X170555084Y-63969350D01*
X170560068Y-63899658D01*
X170601940Y-63843725D01*
X170632915Y-63826810D01*
X170764331Y-63777796D01*
X170796120Y-63753999D01*
X176494531Y-63753999D01*
X176514364Y-63980689D01*
X176573261Y-64200497D01*
X176669432Y-64406735D01*
X176799953Y-64593140D01*
X176960859Y-64754046D01*
X177147264Y-64884567D01*
X177147265Y-64884567D01*
X177147266Y-64884568D01*
X177353504Y-64980739D01*
X177573308Y-65039635D01*
X177743216Y-65054500D01*
X177745925Y-65054500D01*
X177854075Y-65054500D01*
X177856784Y-65054500D01*
X178026692Y-65039635D01*
X178246496Y-64980739D01*
X178452734Y-64884568D01*
X178639139Y-64754047D01*
X178800047Y-64593139D01*
X178930568Y-64406734D01*
X179026739Y-64200496D01*
X179085635Y-63980692D01*
X179105468Y-63754000D01*
X179085635Y-63527308D01*
X179026739Y-63307504D01*
X178930568Y-63101266D01*
X178800047Y-62914861D01*
X178800046Y-62914859D01*
X178639140Y-62753953D01*
X178452735Y-62623432D01*
X178246497Y-62527261D01*
X178026689Y-62468364D01*
X177859484Y-62453736D01*
X177859479Y-62453735D01*
X177856784Y-62453500D01*
X177743216Y-62453500D01*
X177740521Y-62453735D01*
X177740515Y-62453736D01*
X177573310Y-62468364D01*
X177353502Y-62527261D01*
X177147264Y-62623432D01*
X176960859Y-62753953D01*
X176799953Y-62914859D01*
X176669432Y-63101264D01*
X176573261Y-63307502D01*
X176514364Y-63527310D01*
X176494531Y-63753999D01*
X170796120Y-63753999D01*
X170879546Y-63691546D01*
X170965796Y-63576331D01*
X171016091Y-63441483D01*
X171022500Y-63381873D01*
X171022499Y-61586128D01*
X171016091Y-61526517D01*
X170965796Y-61391669D01*
X170879546Y-61276454D01*
X170764331Y-61190204D01*
X170764328Y-61190203D01*
X170755063Y-61183267D01*
X170713192Y-61127333D01*
X170708208Y-61057642D01*
X170741693Y-60996319D01*
X170803016Y-60962834D01*
X170829374Y-60960000D01*
X180724000Y-60960000D01*
X180791039Y-60979685D01*
X180836794Y-61032489D01*
X180848000Y-61084000D01*
X180848000Y-136782000D01*
X180828315Y-136849039D01*
X180775511Y-136894794D01*
X180724000Y-136906000D01*
X142364000Y-136906000D01*
X142296961Y-136886315D01*
X142251206Y-136833511D01*
X142240000Y-136782000D01*
X142240000Y-134112000D01*
X143982531Y-134112000D01*
X144002364Y-134338689D01*
X144061261Y-134558497D01*
X144157432Y-134764735D01*
X144287953Y-134951140D01*
X144448859Y-135112046D01*
X144635264Y-135242567D01*
X144635265Y-135242567D01*
X144635266Y-135242568D01*
X144841504Y-135338739D01*
X145061308Y-135397635D01*
X145231216Y-135412500D01*
X145233925Y-135412500D01*
X145342075Y-135412500D01*
X145344784Y-135412500D01*
X145514692Y-135397635D01*
X145734496Y-135338739D01*
X145940734Y-135242568D01*
X146127139Y-135112047D01*
X146288047Y-134951139D01*
X146418568Y-134764734D01*
X146514739Y-134558496D01*
X146573635Y-134338692D01*
X146593468Y-134112000D01*
X146573635Y-133885308D01*
X146514739Y-133665504D01*
X146418568Y-133459266D01*
X146361183Y-133377310D01*
X146288046Y-133272859D01*
X146127140Y-133111953D01*
X145940735Y-132981432D01*
X145734497Y-132885261D01*
X145514689Y-132826364D01*
X145347484Y-132811736D01*
X145347479Y-132811735D01*
X145344784Y-132811500D01*
X145231216Y-132811500D01*
X145228521Y-132811735D01*
X145228515Y-132811736D01*
X145061310Y-132826364D01*
X144841502Y-132885261D01*
X144635264Y-132981432D01*
X144448859Y-133111953D01*
X144287953Y-133272859D01*
X144157432Y-133459264D01*
X144061261Y-133665502D01*
X144002364Y-133885310D01*
X143982531Y-134112000D01*
X142240000Y-134112000D01*
X142240000Y-131064000D01*
X152464357Y-131064000D01*
X152484885Y-131285537D01*
X152545769Y-131499526D01*
X152644941Y-131698688D01*
X152779019Y-131876237D01*
X152943437Y-132026124D01*
X153132595Y-132143245D01*
X153132597Y-132143245D01*
X153132599Y-132143247D01*
X153340060Y-132223618D01*
X153558757Y-132264500D01*
X153558759Y-132264500D01*
X153781241Y-132264500D01*
X153781243Y-132264500D01*
X153999940Y-132223618D01*
X154207401Y-132143247D01*
X154396562Y-132026124D01*
X154560981Y-131876236D01*
X154695058Y-131698689D01*
X154794229Y-131499528D01*
X154855115Y-131285536D01*
X154875643Y-131064000D01*
X154855115Y-130842464D01*
X154809832Y-130683311D01*
X154794230Y-130628473D01*
X154695058Y-130429311D01*
X154560980Y-130251762D01*
X154396562Y-130101875D01*
X154207404Y-129984754D01*
X154074929Y-129933433D01*
X153999940Y-129904382D01*
X153781243Y-129863500D01*
X153558757Y-129863500D01*
X153340059Y-129904381D01*
X153340060Y-129904382D01*
X153132595Y-129984754D01*
X152943437Y-130101875D01*
X152779019Y-130251762D01*
X152644941Y-130429311D01*
X152545769Y-130628473D01*
X152484885Y-130842462D01*
X152464357Y-131064000D01*
X142240000Y-131064000D01*
X142240000Y-125984000D01*
X152464357Y-125984000D01*
X152484885Y-126205537D01*
X152545769Y-126419526D01*
X152644941Y-126618688D01*
X152779019Y-126796237D01*
X152943437Y-126946124D01*
X153132595Y-127063245D01*
X153132597Y-127063245D01*
X153132599Y-127063247D01*
X153340060Y-127143618D01*
X153558757Y-127184500D01*
X153558759Y-127184500D01*
X153781241Y-127184500D01*
X153781243Y-127184500D01*
X153999940Y-127143618D01*
X154207401Y-127063247D01*
X154396562Y-126946124D01*
X154560981Y-126796236D01*
X154695058Y-126618689D01*
X154794229Y-126419528D01*
X154855115Y-126205536D01*
X154875643Y-125984000D01*
X154855115Y-125762464D01*
X154809832Y-125603311D01*
X154794230Y-125548473D01*
X154695058Y-125349311D01*
X154560980Y-125171762D01*
X154396562Y-125021876D01*
X154274707Y-124946427D01*
X154228071Y-124894400D01*
X154216967Y-124825418D01*
X154244920Y-124761383D01*
X154274707Y-124735573D01*
X154307958Y-124714985D01*
X154396562Y-124660124D01*
X154560981Y-124510236D01*
X154695058Y-124332689D01*
X154794229Y-124133528D01*
X154855115Y-123919536D01*
X154875643Y-123698000D01*
X154855115Y-123476464D01*
X154832227Y-123396021D01*
X154794230Y-123262473D01*
X154695058Y-123063311D01*
X154560980Y-122885762D01*
X154396562Y-122735875D01*
X154207404Y-122618754D01*
X154146174Y-122595033D01*
X153999940Y-122538382D01*
X153781243Y-122497500D01*
X153558757Y-122497500D01*
X153340059Y-122538382D01*
X153340060Y-122538382D01*
X153132595Y-122618754D01*
X152943437Y-122735875D01*
X152779019Y-122885762D01*
X152644941Y-123063311D01*
X152545769Y-123262473D01*
X152484885Y-123476462D01*
X152464357Y-123698000D01*
X152484885Y-123919537D01*
X152545769Y-124133526D01*
X152644941Y-124332688D01*
X152779019Y-124510237D01*
X152943435Y-124660122D01*
X153065293Y-124735573D01*
X153111928Y-124787601D01*
X153123032Y-124856583D01*
X153095079Y-124920617D01*
X153065293Y-124946427D01*
X152943435Y-125021877D01*
X152779019Y-125171762D01*
X152644941Y-125349311D01*
X152545769Y-125548473D01*
X152484885Y-125762462D01*
X152464357Y-125984000D01*
X142240000Y-125984000D01*
X142240000Y-118618000D01*
X152464357Y-118618000D01*
X152473249Y-118713965D01*
X152484885Y-118839537D01*
X152545769Y-119053526D01*
X152644941Y-119252688D01*
X152779019Y-119430237D01*
X152943437Y-119580124D01*
X153132595Y-119697245D01*
X153132597Y-119697245D01*
X153132599Y-119697247D01*
X153340060Y-119777618D01*
X153558757Y-119818500D01*
X153558759Y-119818500D01*
X153781241Y-119818500D01*
X153781243Y-119818500D01*
X153999940Y-119777618D01*
X154207401Y-119697247D01*
X154396562Y-119580124D01*
X154560981Y-119430236D01*
X154695058Y-119252689D01*
X154794229Y-119053528D01*
X154804737Y-119016598D01*
X154846866Y-118868527D01*
X154855115Y-118839536D01*
X154875643Y-118618000D01*
X154855115Y-118396464D01*
X154820071Y-118273297D01*
X154794230Y-118182473D01*
X154695058Y-117983311D01*
X154560980Y-117805762D01*
X154396562Y-117655875D01*
X154207404Y-117538754D01*
X154140494Y-117512833D01*
X153999940Y-117458382D01*
X153781243Y-117417500D01*
X153558757Y-117417500D01*
X153350042Y-117456516D01*
X153340060Y-117458382D01*
X153132595Y-117538754D01*
X152943437Y-117655875D01*
X152779019Y-117805762D01*
X152644941Y-117983311D01*
X152545769Y-118182473D01*
X152484885Y-118396462D01*
X152472614Y-118528886D01*
X152464357Y-118618000D01*
X142240000Y-118618000D01*
X142240000Y-93858578D01*
X143937500Y-93858578D01*
X143937501Y-93861872D01*
X143937853Y-93865152D01*
X143937854Y-93865159D01*
X143943909Y-93921484D01*
X143968718Y-93988000D01*
X143994204Y-94056331D01*
X144080454Y-94171546D01*
X144195669Y-94257796D01*
X144330517Y-94308091D01*
X144390127Y-94314500D01*
X146185872Y-94314499D01*
X146245483Y-94308091D01*
X146380331Y-94257796D01*
X146495546Y-94171546D01*
X146581796Y-94056331D01*
X146630810Y-93924916D01*
X146672681Y-93868983D01*
X146738146Y-93844566D01*
X146806419Y-93859418D01*
X146834673Y-93880569D01*
X146956599Y-94002495D01*
X147150170Y-94138035D01*
X147364337Y-94237903D01*
X147592592Y-94299063D01*
X147828000Y-94319659D01*
X148063408Y-94299063D01*
X148291663Y-94237903D01*
X148505830Y-94138035D01*
X148699401Y-94002495D01*
X148866495Y-93835401D01*
X149002035Y-93641830D01*
X149101903Y-93427663D01*
X149163063Y-93199408D01*
X149183659Y-92964000D01*
X149177721Y-92896135D01*
X149163063Y-92728592D01*
X149153807Y-92694047D01*
X149101903Y-92500337D01*
X149002035Y-92286171D01*
X148866495Y-92092599D01*
X148699401Y-91925505D01*
X148505830Y-91789965D01*
X148291663Y-91690097D01*
X148222250Y-91671498D01*
X148063407Y-91628936D01*
X147828000Y-91608340D01*
X147592592Y-91628936D01*
X147364336Y-91690097D01*
X147150170Y-91789965D01*
X146956601Y-91925503D01*
X146834673Y-92047431D01*
X146773350Y-92080915D01*
X146703658Y-92075931D01*
X146647725Y-92034059D01*
X146630810Y-92003082D01*
X146623658Y-91983907D01*
X146581796Y-91871669D01*
X146495546Y-91756454D01*
X146380331Y-91670204D01*
X146245483Y-91619909D01*
X146185873Y-91613500D01*
X146182550Y-91613500D01*
X144393439Y-91613500D01*
X144393420Y-91613500D01*
X144390128Y-91613501D01*
X144386848Y-91613853D01*
X144386840Y-91613854D01*
X144330515Y-91619909D01*
X144195669Y-91670204D01*
X144080454Y-91756454D01*
X143994204Y-91871668D01*
X143975920Y-91920692D01*
X143943909Y-92006517D01*
X143937500Y-92066127D01*
X143937500Y-92069448D01*
X143937500Y-92069449D01*
X143937500Y-93858560D01*
X143937500Y-93858578D01*
X142240000Y-93858578D01*
X142240000Y-89154000D01*
X143574357Y-89154000D01*
X143594885Y-89375537D01*
X143655769Y-89589526D01*
X143754941Y-89788688D01*
X143889019Y-89966237D01*
X144053437Y-90116124D01*
X144242595Y-90233245D01*
X144242597Y-90233245D01*
X144242599Y-90233247D01*
X144450060Y-90313618D01*
X144668757Y-90354500D01*
X144668759Y-90354500D01*
X144891241Y-90354500D01*
X144891243Y-90354500D01*
X145109940Y-90313618D01*
X145317401Y-90233247D01*
X145506562Y-90116124D01*
X145670981Y-89966236D01*
X145805058Y-89788689D01*
X145904229Y-89589528D01*
X145914737Y-89552598D01*
X145933345Y-89487196D01*
X145965115Y-89375536D01*
X145985643Y-89154000D01*
X145971217Y-88998314D01*
X146322356Y-88998314D01*
X146342891Y-89246131D01*
X146342891Y-89246134D01*
X146342892Y-89246136D01*
X146403937Y-89487196D01*
X146448823Y-89589526D01*
X146503825Y-89714919D01*
X146503827Y-89714922D01*
X146639836Y-89923100D01*
X146808256Y-90106053D01*
X146869917Y-90154046D01*
X147004485Y-90258785D01*
X147004487Y-90258786D01*
X147004491Y-90258789D01*
X147223190Y-90377143D01*
X147458386Y-90457886D01*
X147703665Y-90498815D01*
X147952335Y-90498815D01*
X148197614Y-90457886D01*
X148432810Y-90377143D01*
X148651509Y-90258789D01*
X148847744Y-90106053D01*
X149016164Y-89923100D01*
X149152173Y-89714922D01*
X149252063Y-89487196D01*
X149313108Y-89246136D01*
X149333643Y-88998315D01*
X149313108Y-88750494D01*
X149252063Y-88509434D01*
X149152173Y-88281708D01*
X149016164Y-88073530D01*
X148847744Y-87890577D01*
X148808342Y-87859909D01*
X148651514Y-87737844D01*
X148651510Y-87737841D01*
X148651509Y-87737841D01*
X148432810Y-87619487D01*
X148432806Y-87619485D01*
X148432805Y-87619485D01*
X148197615Y-87538744D01*
X147952335Y-87497815D01*
X147703665Y-87497815D01*
X147458384Y-87538744D01*
X147223194Y-87619485D01*
X147004485Y-87737844D01*
X146808259Y-87890574D01*
X146808256Y-87890576D01*
X146808256Y-87890577D01*
X146639836Y-88073530D01*
X146613537Y-88113784D01*
X146503825Y-88281710D01*
X146426611Y-88457742D01*
X146403937Y-88509434D01*
X146369354Y-88645999D01*
X146342891Y-88750498D01*
X146322356Y-88998314D01*
X145971217Y-88998314D01*
X145965115Y-88932464D01*
X145937172Y-88834256D01*
X145904230Y-88718473D01*
X145805058Y-88519311D01*
X145670980Y-88341762D01*
X145506562Y-88191875D01*
X145317404Y-88074754D01*
X145256174Y-88051033D01*
X145109940Y-87994382D01*
X144891243Y-87953500D01*
X144668757Y-87953500D01*
X144450059Y-87994382D01*
X144450060Y-87994382D01*
X144242595Y-88074754D01*
X144053437Y-88191875D01*
X143889019Y-88341762D01*
X143754941Y-88519311D01*
X143655769Y-88718473D01*
X143594885Y-88932462D01*
X143574357Y-89154000D01*
X142240000Y-89154000D01*
X142240000Y-84074000D01*
X143574357Y-84074000D01*
X143594885Y-84295537D01*
X143655769Y-84509526D01*
X143754941Y-84708688D01*
X143889019Y-84886237D01*
X144053437Y-85036124D01*
X144242595Y-85153245D01*
X144242597Y-85153245D01*
X144242599Y-85153247D01*
X144450060Y-85233618D01*
X144668757Y-85274500D01*
X144668759Y-85274500D01*
X144891241Y-85274500D01*
X144891243Y-85274500D01*
X145109940Y-85233618D01*
X145317401Y-85153247D01*
X145506562Y-85036124D01*
X145586892Y-84962893D01*
X146327500Y-84962893D01*
X146327501Y-84966187D01*
X146333909Y-85025798D01*
X146384204Y-85160646D01*
X146470454Y-85275861D01*
X146585669Y-85362111D01*
X146720517Y-85412406D01*
X146780127Y-85418815D01*
X148875872Y-85418814D01*
X148935483Y-85412406D01*
X149070331Y-85362111D01*
X149185546Y-85275861D01*
X149271796Y-85160646D01*
X149322091Y-85025798D01*
X149328500Y-84966188D01*
X149328499Y-82870443D01*
X149322091Y-82810832D01*
X149271796Y-82675984D01*
X149185546Y-82560769D01*
X149070331Y-82474519D01*
X148935483Y-82424224D01*
X148875873Y-82417815D01*
X148872550Y-82417815D01*
X146783439Y-82417815D01*
X146783420Y-82417815D01*
X146780128Y-82417816D01*
X146776848Y-82418168D01*
X146776840Y-82418169D01*
X146720515Y-82424224D01*
X146585669Y-82474519D01*
X146470454Y-82560769D01*
X146384204Y-82675983D01*
X146333909Y-82810831D01*
X146328079Y-82865060D01*
X146327500Y-82870442D01*
X146327500Y-82873763D01*
X146327500Y-82873764D01*
X146327500Y-84962875D01*
X146327500Y-84962893D01*
X145586892Y-84962893D01*
X145670981Y-84886236D01*
X145805058Y-84708689D01*
X145904229Y-84509528D01*
X145904281Y-84509347D01*
X145948475Y-84354019D01*
X145965115Y-84295536D01*
X145985643Y-84074000D01*
X145965115Y-83852464D01*
X145927553Y-83720447D01*
X145904230Y-83638473D01*
X145805058Y-83439311D01*
X145670980Y-83261762D01*
X145506562Y-83111875D01*
X145317404Y-82994754D01*
X145256174Y-82971033D01*
X145109940Y-82914382D01*
X144891243Y-82873500D01*
X144668757Y-82873500D01*
X144452965Y-82913839D01*
X144450060Y-82914382D01*
X144242595Y-82994754D01*
X144053437Y-83111875D01*
X143889019Y-83261762D01*
X143754941Y-83439311D01*
X143655769Y-83638473D01*
X143594885Y-83852462D01*
X143574357Y-84074000D01*
X142240000Y-84074000D01*
X142240000Y-77348578D01*
X143937500Y-77348578D01*
X143937501Y-77351872D01*
X143937853Y-77355152D01*
X143937854Y-77355159D01*
X143943909Y-77411484D01*
X143945640Y-77416124D01*
X143994204Y-77546331D01*
X144080454Y-77661546D01*
X144195669Y-77747796D01*
X144330517Y-77798091D01*
X144390127Y-77804500D01*
X146185872Y-77804499D01*
X146245483Y-77798091D01*
X146380331Y-77747796D01*
X146495546Y-77661546D01*
X146581796Y-77546331D01*
X146630810Y-77414916D01*
X146672681Y-77358983D01*
X146738146Y-77334566D01*
X146806419Y-77349418D01*
X146834672Y-77370568D01*
X146956599Y-77492495D01*
X147150170Y-77628035D01*
X147364337Y-77727903D01*
X147592592Y-77789063D01*
X147828000Y-77809659D01*
X148063408Y-77789063D01*
X148291663Y-77727903D01*
X148505830Y-77628035D01*
X148699401Y-77492495D01*
X148866495Y-77325401D01*
X149002035Y-77131830D01*
X149101903Y-76917663D01*
X149163063Y-76689408D01*
X149183659Y-76454000D01*
X149163063Y-76218592D01*
X149101903Y-75990337D01*
X149002035Y-75776171D01*
X148866495Y-75582599D01*
X148699401Y-75415505D01*
X148505830Y-75279965D01*
X148291663Y-75180097D01*
X148230502Y-75163709D01*
X148063407Y-75118936D01*
X147828000Y-75098340D01*
X147592592Y-75118936D01*
X147364336Y-75180097D01*
X147150170Y-75279965D01*
X146956601Y-75415503D01*
X146834673Y-75537431D01*
X146773350Y-75570915D01*
X146703658Y-75565931D01*
X146647725Y-75524059D01*
X146630810Y-75493082D01*
X146603331Y-75419408D01*
X146581796Y-75361669D01*
X146495546Y-75246454D01*
X146380331Y-75160204D01*
X146245483Y-75109909D01*
X146185873Y-75103500D01*
X146182550Y-75103500D01*
X144393439Y-75103500D01*
X144393420Y-75103500D01*
X144390128Y-75103501D01*
X144386848Y-75103853D01*
X144386840Y-75103854D01*
X144330515Y-75109909D01*
X144195669Y-75160204D01*
X144080454Y-75246454D01*
X143994204Y-75361668D01*
X143972669Y-75419408D01*
X143943909Y-75496517D01*
X143937500Y-75556127D01*
X143937500Y-75559448D01*
X143937500Y-75559449D01*
X143937500Y-77348560D01*
X143937500Y-77348578D01*
X142240000Y-77348578D01*
X142240000Y-72898000D01*
X143574357Y-72898000D01*
X143594885Y-73119537D01*
X143655769Y-73333526D01*
X143754941Y-73532688D01*
X143889019Y-73710237D01*
X144053437Y-73860124D01*
X144242595Y-73977245D01*
X144242597Y-73977245D01*
X144242599Y-73977247D01*
X144450060Y-74057618D01*
X144668757Y-74098500D01*
X144668759Y-74098500D01*
X144891241Y-74098500D01*
X144891243Y-74098500D01*
X145109940Y-74057618D01*
X145317401Y-73977247D01*
X145506562Y-73860124D01*
X145670981Y-73710236D01*
X145805058Y-73532689D01*
X145904229Y-73333528D01*
X145907558Y-73321830D01*
X145927116Y-73253085D01*
X145965115Y-73119536D01*
X145985643Y-72898000D01*
X145965115Y-72676464D01*
X145955878Y-72644000D01*
X146322356Y-72644000D01*
X146342891Y-72891816D01*
X146342891Y-72891819D01*
X146342892Y-72891821D01*
X146403937Y-73132881D01*
X146448960Y-73235523D01*
X146503825Y-73360604D01*
X146503827Y-73360607D01*
X146639836Y-73568785D01*
X146808256Y-73751738D01*
X146808259Y-73751740D01*
X147004485Y-73904470D01*
X147004487Y-73904471D01*
X147004491Y-73904474D01*
X147223190Y-74022828D01*
X147458386Y-74103571D01*
X147703665Y-74144500D01*
X147952335Y-74144500D01*
X148197614Y-74103571D01*
X148432810Y-74022828D01*
X148651509Y-73904474D01*
X148847744Y-73751738D01*
X149016164Y-73568785D01*
X149152173Y-73360607D01*
X149252063Y-73132881D01*
X149313108Y-72891821D01*
X149333643Y-72644000D01*
X149313108Y-72396179D01*
X149252063Y-72155119D01*
X149152173Y-71927393D01*
X149016164Y-71719215D01*
X148847744Y-71536262D01*
X148800060Y-71499148D01*
X148651514Y-71383529D01*
X148651510Y-71383526D01*
X148651509Y-71383526D01*
X148432810Y-71265172D01*
X148432806Y-71265170D01*
X148432805Y-71265170D01*
X148197615Y-71184429D01*
X147952335Y-71143500D01*
X147703665Y-71143500D01*
X147458384Y-71184429D01*
X147223194Y-71265170D01*
X147223190Y-71265171D01*
X147223190Y-71265172D01*
X147209788Y-71272425D01*
X147004485Y-71383529D01*
X146808259Y-71536259D01*
X146808256Y-71536261D01*
X146808256Y-71536262D01*
X146639836Y-71719215D01*
X146604959Y-71772598D01*
X146503825Y-71927395D01*
X146434360Y-72085762D01*
X146403937Y-72155119D01*
X146389244Y-72213140D01*
X146342891Y-72396183D01*
X146322356Y-72644000D01*
X145955878Y-72644000D01*
X145942227Y-72596021D01*
X145904230Y-72462473D01*
X145805058Y-72263311D01*
X145670980Y-72085762D01*
X145506562Y-71935875D01*
X145317404Y-71818754D01*
X145198261Y-71772598D01*
X145109940Y-71738382D01*
X144891243Y-71697500D01*
X144668757Y-71697500D01*
X144450059Y-71738382D01*
X144450060Y-71738382D01*
X144242595Y-71818754D01*
X144053437Y-71935875D01*
X143889019Y-72085762D01*
X143754941Y-72263311D01*
X143655769Y-72462473D01*
X143594885Y-72676462D01*
X143574357Y-72898000D01*
X142240000Y-72898000D01*
X142240000Y-67818000D01*
X143574357Y-67818000D01*
X143594885Y-68039537D01*
X143655769Y-68253526D01*
X143754941Y-68452688D01*
X143889019Y-68630237D01*
X144053437Y-68780124D01*
X144242595Y-68897245D01*
X144242597Y-68897245D01*
X144242599Y-68897247D01*
X144450060Y-68977618D01*
X144668757Y-69018500D01*
X144668759Y-69018500D01*
X144891241Y-69018500D01*
X144891243Y-69018500D01*
X145109940Y-68977618D01*
X145317401Y-68897247D01*
X145506562Y-68780124D01*
X145670981Y-68630236D01*
X145687336Y-68608578D01*
X146327500Y-68608578D01*
X146327501Y-68611872D01*
X146333909Y-68671483D01*
X146384204Y-68806331D01*
X146470454Y-68921546D01*
X146585669Y-69007796D01*
X146720517Y-69058091D01*
X146780127Y-69064500D01*
X148875872Y-69064499D01*
X148935483Y-69058091D01*
X149070331Y-69007796D01*
X149185546Y-68921546D01*
X149271796Y-68806331D01*
X149322091Y-68671483D01*
X149328500Y-68611873D01*
X149328499Y-66516128D01*
X149322091Y-66456517D01*
X149271796Y-66321669D01*
X149185546Y-66206454D01*
X149070331Y-66120204D01*
X148935483Y-66069909D01*
X148875873Y-66063500D01*
X148872550Y-66063500D01*
X146783439Y-66063500D01*
X146783420Y-66063500D01*
X146780128Y-66063501D01*
X146776848Y-66063853D01*
X146776840Y-66063854D01*
X146720515Y-66069909D01*
X146585669Y-66120204D01*
X146470454Y-66206454D01*
X146384204Y-66321668D01*
X146333910Y-66456515D01*
X146333909Y-66456517D01*
X146327500Y-66516127D01*
X146327500Y-66519448D01*
X146327500Y-66519449D01*
X146327500Y-68608560D01*
X146327500Y-68608578D01*
X145687336Y-68608578D01*
X145805058Y-68452689D01*
X145904229Y-68253528D01*
X145907558Y-68241830D01*
X145962513Y-68048680D01*
X145965115Y-68039536D01*
X145985643Y-67818000D01*
X145965115Y-67596464D01*
X145923903Y-67451618D01*
X145904230Y-67382473D01*
X145805058Y-67183311D01*
X145670980Y-67005762D01*
X145506562Y-66855875D01*
X145317404Y-66738754D01*
X145198261Y-66692598D01*
X145109940Y-66658382D01*
X144891243Y-66617500D01*
X144668757Y-66617500D01*
X144450059Y-66658382D01*
X144450060Y-66658382D01*
X144242595Y-66738754D01*
X144053437Y-66855875D01*
X143889019Y-67005762D01*
X143754941Y-67183311D01*
X143655769Y-67382473D01*
X143594885Y-67596462D01*
X143574357Y-67818000D01*
X142240000Y-67818000D01*
X142240000Y-63754000D01*
X143982531Y-63754000D01*
X144002364Y-63980689D01*
X144061261Y-64200497D01*
X144157432Y-64406735D01*
X144287953Y-64593140D01*
X144448859Y-64754046D01*
X144635264Y-64884567D01*
X144635265Y-64884567D01*
X144635266Y-64884568D01*
X144841504Y-64980739D01*
X145061308Y-65039635D01*
X145231216Y-65054500D01*
X145233925Y-65054500D01*
X145342075Y-65054500D01*
X145344784Y-65054500D01*
X145514692Y-65039635D01*
X145734496Y-64980739D01*
X145940734Y-64884568D01*
X146127139Y-64754047D01*
X146288047Y-64593139D01*
X146418568Y-64406734D01*
X146514739Y-64200496D01*
X146573635Y-63980692D01*
X146593468Y-63754000D01*
X146573635Y-63527308D01*
X146514739Y-63307504D01*
X146418568Y-63101266D01*
X146288047Y-62914861D01*
X146288046Y-62914859D01*
X146127140Y-62753953D01*
X145940735Y-62623432D01*
X145734497Y-62527261D01*
X145514689Y-62468364D01*
X145347484Y-62453736D01*
X145347479Y-62453735D01*
X145344784Y-62453500D01*
X145231216Y-62453500D01*
X145228521Y-62453735D01*
X145228515Y-62453736D01*
X145061310Y-62468364D01*
X144841502Y-62527261D01*
X144635264Y-62623432D01*
X144448859Y-62753953D01*
X144287953Y-62914859D01*
X144157432Y-63101264D01*
X144061261Y-63307502D01*
X144002364Y-63527310D01*
X143982531Y-63754000D01*
X142240000Y-63754000D01*
X142240000Y-61084000D01*
X142259685Y-61016961D01*
X142312489Y-60971206D01*
X142364000Y-60960000D01*
X150734626Y-60960000D01*
X150801665Y-60979685D01*
G37*
G04 #@! TD.AperFunction*
M02*
