%TF.GenerationSoftware,KiCad,Pcbnew,7.0.2-0*%
%TF.CreationDate,2024-11-24T22:08:26+01:00*%
%TF.ProjectId,MIDI Box,4d494449-2042-46f7-982e-6b696361645f,rev?*%
%TF.SameCoordinates,Original*%
%TF.FileFunction,Drillmap*%
%TF.FilePolarity,Positive*%
%FSLAX45Y45*%
G04 Gerber Fmt 4.5, Leading zero omitted, Abs format (unit mm)*
G04 Created by KiCad (PCBNEW 7.0.2-0) date 2024-11-24 22:08:26*
%MOMM*%
%LPD*%
G01*
G04 APERTURE LIST*
%ADD10C,0.100000*%
%ADD11C,0.200000*%
%ADD12C,0.040000*%
%ADD13C,0.070000*%
%ADD14C,0.080000*%
G04 APERTURE END LIST*
D10*
X14198600Y-6070600D02*
X18110200Y-6070600D01*
X18110200Y-13716000D01*
X14198600Y-13716000D01*
X14198600Y-6070600D01*
D11*
D12*
X15931200Y-8844600D02*
X15971200Y-8884600D01*
X15971200Y-8844600D02*
X15931200Y-8884600D01*
X17074200Y-11384600D02*
X17114200Y-11424600D01*
X17114200Y-11384600D02*
X17074200Y-11424600D01*
X17201200Y-11765600D02*
X17241200Y-11805600D01*
X17241200Y-11765600D02*
X17201200Y-11805600D01*
X17356150Y-11664000D02*
X17396150Y-11704000D01*
X17396150Y-11664000D02*
X17356150Y-11704000D01*
X17404400Y-11384600D02*
X17444400Y-11424600D01*
X17444400Y-11384600D02*
X17404400Y-11424600D01*
D13*
X14513000Y-6781800D02*
G75*
G03*
X14513000Y-6781800I-35000J0D01*
G01*
X14513000Y-7289800D02*
G75*
G03*
X14513000Y-7289800I-35000J0D01*
G01*
X14513000Y-8407400D02*
G75*
G03*
X14513000Y-8407400I-35000J0D01*
G01*
X14513000Y-8915400D02*
G75*
G03*
X14513000Y-8915400I-35000J0D01*
G01*
X15402000Y-11861800D02*
G75*
G03*
X15402000Y-11861800I-35000J0D01*
G01*
X15402000Y-12369800D02*
G75*
G03*
X15402000Y-12369800I-35000J0D01*
G01*
X15402000Y-12598400D02*
G75*
G03*
X15402000Y-12598400I-35000J0D01*
G01*
X15402000Y-13106400D02*
G75*
G03*
X15402000Y-13106400I-35000J0D01*
G01*
X15732200Y-7645400D02*
G75*
G03*
X15732200Y-7645400I-35000J0D01*
G01*
X15732200Y-7899400D02*
G75*
G03*
X15732200Y-7899400I-35000J0D01*
G01*
X15732200Y-8153400D02*
G75*
G03*
X15732200Y-8153400I-35000J0D01*
G01*
X15732200Y-8407400D02*
G75*
G03*
X15732200Y-8407400I-35000J0D01*
G01*
X15732200Y-10185400D02*
G75*
G03*
X15732200Y-10185400I-35000J0D01*
G01*
X15732200Y-10439400D02*
G75*
G03*
X15732200Y-10439400I-35000J0D01*
G01*
X15732200Y-10693400D02*
G75*
G03*
X15732200Y-10693400I-35000J0D01*
G01*
X15732200Y-10947400D02*
G75*
G03*
X15732200Y-10947400I-35000J0D01*
G01*
X16240200Y-7645400D02*
G75*
G03*
X16240200Y-7645400I-35000J0D01*
G01*
X16240200Y-7899400D02*
G75*
G03*
X16240200Y-7899400I-35000J0D01*
G01*
X16240200Y-8153400D02*
G75*
G03*
X16240200Y-8153400I-35000J0D01*
G01*
X16240200Y-8407400D02*
G75*
G03*
X16240200Y-8407400I-35000J0D01*
G01*
X16240200Y-10185400D02*
G75*
G03*
X16240200Y-10185400I-35000J0D01*
G01*
X16240200Y-10439400D02*
G75*
G03*
X16240200Y-10439400I-35000J0D01*
G01*
X16240200Y-10693400D02*
G75*
G03*
X16240200Y-10693400I-35000J0D01*
G01*
X16240200Y-10947400D02*
G75*
G03*
X16240200Y-10947400I-35000J0D01*
G01*
X16900600Y-12623800D02*
G75*
G03*
X16900600Y-12623800I-35000J0D01*
G01*
X16900600Y-13131800D02*
G75*
G03*
X16900600Y-13131800I-35000J0D01*
G01*
X17154600Y-12623800D02*
G75*
G03*
X17154600Y-12623800I-35000J0D01*
G01*
X17154600Y-13131800D02*
G75*
G03*
X17154600Y-13131800I-35000J0D01*
G01*
X17357800Y-8051800D02*
G75*
G03*
X17357800Y-8051800I-35000J0D01*
G01*
X17357800Y-8280400D02*
G75*
G03*
X17357800Y-8280400I-35000J0D01*
G01*
X17357800Y-8509000D02*
G75*
G03*
X17357800Y-8509000I-35000J0D01*
G01*
X17357800Y-8737600D02*
G75*
G03*
X17357800Y-8737600I-35000J0D01*
G01*
X17865800Y-8051800D02*
G75*
G03*
X17865800Y-8051800I-35000J0D01*
G01*
X17865800Y-8280400D02*
G75*
G03*
X17865800Y-8280400I-35000J0D01*
G01*
X17865800Y-8509000D02*
G75*
G03*
X17865800Y-8509000I-35000J0D01*
G01*
X17865800Y-8737600D02*
G75*
G03*
X17865800Y-8737600I-35000J0D01*
G01*
D14*
X15697200Y-6335400D02*
X15697200Y-6415400D01*
X15657200Y-6375400D02*
X15737200Y-6375400D01*
X15697200Y-6589400D02*
X15697200Y-6669400D01*
X15657200Y-6629400D02*
X15737200Y-6629400D01*
X15697200Y-6843400D02*
X15697200Y-6923400D01*
X15657200Y-6883400D02*
X15737200Y-6883400D01*
X15697200Y-7097400D02*
X15697200Y-7177400D01*
X15657200Y-7137400D02*
X15737200Y-7137400D01*
X15697200Y-8875400D02*
X15697200Y-8955400D01*
X15657200Y-8915400D02*
X15737200Y-8915400D01*
X15697200Y-9129400D02*
X15697200Y-9209400D01*
X15657200Y-9169400D02*
X15737200Y-9169400D01*
X15697200Y-9383400D02*
X15697200Y-9463400D01*
X15657200Y-9423400D02*
X15737200Y-9423400D01*
X15697200Y-9637400D02*
X15697200Y-9717400D01*
X15657200Y-9677400D02*
X15737200Y-9677400D01*
X15697200Y-11796400D02*
X15697200Y-11876400D01*
X15657200Y-11836400D02*
X15737200Y-11836400D01*
X15697200Y-12050400D02*
X15697200Y-12130400D01*
X15657200Y-12090400D02*
X15737200Y-12090400D01*
X15697200Y-12304400D02*
X15697200Y-12384400D01*
X15657200Y-12344400D02*
X15737200Y-12344400D01*
X15697200Y-12558400D02*
X15697200Y-12638400D01*
X15657200Y-12598400D02*
X15737200Y-12598400D01*
X15697200Y-12812400D02*
X15697200Y-12892400D01*
X15657200Y-12852400D02*
X15737200Y-12852400D01*
X15697200Y-13066400D02*
X15697200Y-13146400D01*
X15657200Y-13106400D02*
X15737200Y-13106400D01*
X15697200Y-13320400D02*
X15697200Y-13400400D01*
X15657200Y-13360400D02*
X15737200Y-13360400D01*
X16459200Y-6335400D02*
X16459200Y-6415400D01*
X16419200Y-6375400D02*
X16499200Y-6375400D01*
X16459200Y-6589400D02*
X16459200Y-6669400D01*
X16419200Y-6629400D02*
X16499200Y-6629400D01*
X16459200Y-6843400D02*
X16459200Y-6923400D01*
X16419200Y-6883400D02*
X16499200Y-6883400D01*
X16459200Y-7097400D02*
X16459200Y-7177400D01*
X16419200Y-7137400D02*
X16499200Y-7137400D01*
X16459200Y-8875400D02*
X16459200Y-8955400D01*
X16419200Y-8915400D02*
X16499200Y-8915400D01*
X16459200Y-9129400D02*
X16459200Y-9209400D01*
X16419200Y-9169400D02*
X16499200Y-9169400D01*
X16459200Y-9383400D02*
X16459200Y-9463400D01*
X16419200Y-9423400D02*
X16499200Y-9423400D01*
X16459200Y-9637400D02*
X16459200Y-9717400D01*
X16419200Y-9677400D02*
X16499200Y-9677400D01*
X16459200Y-11796400D02*
X16459200Y-11876400D01*
X16419200Y-11836400D02*
X16499200Y-11836400D01*
X16459200Y-12050400D02*
X16459200Y-12130400D01*
X16419200Y-12090400D02*
X16499200Y-12090400D01*
X16459200Y-12304400D02*
X16459200Y-12384400D01*
X16419200Y-12344400D02*
X16499200Y-12344400D01*
X16459200Y-12558400D02*
X16459200Y-12638400D01*
X16419200Y-12598400D02*
X16499200Y-12598400D01*
X16459200Y-12812400D02*
X16459200Y-12892400D01*
X16419200Y-12852400D02*
X16499200Y-12852400D01*
X16459200Y-13066400D02*
X16459200Y-13146400D01*
X16419200Y-13106400D02*
X16499200Y-13106400D01*
X16459200Y-13320400D02*
X16459200Y-13400400D01*
X16419200Y-13360400D02*
X16499200Y-13360400D01*
X16840200Y-11669400D02*
X16840200Y-11749400D01*
X16800200Y-11709400D02*
X16880200Y-11709400D01*
X16840200Y-11919400D02*
X16840200Y-11999400D01*
X16800200Y-11959400D02*
X16880200Y-11959400D01*
D10*
X14564156Y-7680756D02*
X14564156Y-7610044D01*
X14493444Y-7610044D01*
X14493444Y-7680756D01*
X14564156Y-7680756D01*
X14564156Y-9331756D02*
X14564156Y-9261044D01*
X14493444Y-9261044D01*
X14493444Y-9331756D01*
X14564156Y-9331756D01*
X14818156Y-6791756D02*
X14818156Y-6721044D01*
X14747444Y-6721044D01*
X14747444Y-6791756D01*
X14818156Y-6791756D01*
X14818156Y-7299756D02*
X14818156Y-7229044D01*
X14747444Y-7229044D01*
X14747444Y-7299756D01*
X14818156Y-7299756D01*
X14818156Y-7680756D02*
X14818156Y-7610044D01*
X14747444Y-7610044D01*
X14747444Y-7680756D01*
X14818156Y-7680756D01*
X14818156Y-8427187D02*
X14818156Y-8356476D01*
X14747444Y-8356476D01*
X14747444Y-8427187D01*
X14818156Y-8427187D01*
X14818156Y-8935187D02*
X14818156Y-8864476D01*
X14747444Y-8864476D01*
X14747444Y-8935187D01*
X14818156Y-8935187D01*
X14818156Y-9331756D02*
X14818156Y-9261044D01*
X14747444Y-9261044D01*
X14747444Y-9331756D01*
X14818156Y-9331756D01*
X15224556Y-6283756D02*
X15224556Y-6213044D01*
X15153844Y-6213044D01*
X15153844Y-6283756D01*
X15224556Y-6283756D01*
X15224556Y-6537756D02*
X15224556Y-6467044D01*
X15153844Y-6467044D01*
X15153844Y-6537756D01*
X15224556Y-6537756D01*
X15224556Y-6791756D02*
X15224556Y-6721044D01*
X15153844Y-6721044D01*
X15153844Y-6791756D01*
X15224556Y-6791756D01*
X15224556Y-7045756D02*
X15224556Y-6975044D01*
X15153844Y-6975044D01*
X15153844Y-7045756D01*
X15224556Y-7045756D01*
X15224556Y-7299756D02*
X15224556Y-7229044D01*
X15153844Y-7229044D01*
X15153844Y-7299756D01*
X15224556Y-7299756D01*
X15224556Y-7553756D02*
X15224556Y-7483044D01*
X15153844Y-7483044D01*
X15153844Y-7553756D01*
X15224556Y-7553756D01*
X15224556Y-7807756D02*
X15224556Y-7737044D01*
X15153844Y-7737044D01*
X15153844Y-7807756D01*
X15224556Y-7807756D01*
X15224556Y-8061756D02*
X15224556Y-7991044D01*
X15153844Y-7991044D01*
X15153844Y-8061756D01*
X15224556Y-8061756D01*
X15224556Y-8315756D02*
X15224556Y-8245044D01*
X15153844Y-8245044D01*
X15153844Y-8315756D01*
X15224556Y-8315756D01*
X15224556Y-8569756D02*
X15224556Y-8499044D01*
X15153844Y-8499044D01*
X15153844Y-8569756D01*
X15224556Y-8569756D01*
X15224556Y-8823756D02*
X15224556Y-8753044D01*
X15153844Y-8753044D01*
X15153844Y-8823756D01*
X15224556Y-8823756D01*
X15224556Y-9077756D02*
X15224556Y-9007044D01*
X15153844Y-9007044D01*
X15153844Y-9077756D01*
X15224556Y-9077756D01*
X15224556Y-9331756D02*
X15224556Y-9261044D01*
X15153844Y-9261044D01*
X15153844Y-9331756D01*
X15224556Y-9331756D01*
X15224556Y-9585756D02*
X15224556Y-9515044D01*
X15153844Y-9515044D01*
X15153844Y-9585756D01*
X15224556Y-9585756D01*
X15224556Y-9839756D02*
X15224556Y-9769044D01*
X15153844Y-9769044D01*
X15153844Y-9839756D01*
X15224556Y-9839756D01*
X15224556Y-10093756D02*
X15224556Y-10023044D01*
X15153844Y-10023044D01*
X15153844Y-10093756D01*
X15224556Y-10093756D01*
X15224556Y-10347756D02*
X15224556Y-10277044D01*
X15153844Y-10277044D01*
X15153844Y-10347756D01*
X15224556Y-10347756D01*
X15224556Y-10601756D02*
X15224556Y-10531044D01*
X15153844Y-10531044D01*
X15153844Y-10601756D01*
X15224556Y-10601756D01*
X15224556Y-10855756D02*
X15224556Y-10785044D01*
X15153844Y-10785044D01*
X15153844Y-10855756D01*
X15224556Y-10855756D01*
X15224556Y-11109756D02*
X15224556Y-11039044D01*
X15153844Y-11039044D01*
X15153844Y-11109756D01*
X15224556Y-11109756D01*
X17002556Y-6283756D02*
X17002556Y-6213044D01*
X16931844Y-6213044D01*
X16931844Y-6283756D01*
X17002556Y-6283756D01*
X17002556Y-6537756D02*
X17002556Y-6467044D01*
X16931844Y-6467044D01*
X16931844Y-6537756D01*
X17002556Y-6537756D01*
X17002556Y-6791756D02*
X17002556Y-6721044D01*
X16931844Y-6721044D01*
X16931844Y-6791756D01*
X17002556Y-6791756D01*
X17002556Y-7045756D02*
X17002556Y-6975044D01*
X16931844Y-6975044D01*
X16931844Y-7045756D01*
X17002556Y-7045756D01*
X17002556Y-7299756D02*
X17002556Y-7229044D01*
X16931844Y-7229044D01*
X16931844Y-7299756D01*
X17002556Y-7299756D01*
X17002556Y-7553756D02*
X17002556Y-7483044D01*
X16931844Y-7483044D01*
X16931844Y-7553756D01*
X17002556Y-7553756D01*
X17002556Y-7807756D02*
X17002556Y-7737044D01*
X16931844Y-7737044D01*
X16931844Y-7807756D01*
X17002556Y-7807756D01*
X17002556Y-8061756D02*
X17002556Y-7991044D01*
X16931844Y-7991044D01*
X16931844Y-8061756D01*
X17002556Y-8061756D01*
X17002556Y-8315756D02*
X17002556Y-8245044D01*
X16931844Y-8245044D01*
X16931844Y-8315756D01*
X17002556Y-8315756D01*
X17002556Y-8569756D02*
X17002556Y-8499044D01*
X16931844Y-8499044D01*
X16931844Y-8569756D01*
X17002556Y-8569756D01*
X17002556Y-8823756D02*
X17002556Y-8753044D01*
X16931844Y-8753044D01*
X16931844Y-8823756D01*
X17002556Y-8823756D01*
X17002556Y-9077756D02*
X17002556Y-9007044D01*
X16931844Y-9007044D01*
X16931844Y-9077756D01*
X17002556Y-9077756D01*
X17002556Y-9331756D02*
X17002556Y-9261044D01*
X16931844Y-9261044D01*
X16931844Y-9331756D01*
X17002556Y-9331756D01*
X17002556Y-9585756D02*
X17002556Y-9515044D01*
X16931844Y-9515044D01*
X16931844Y-9585756D01*
X17002556Y-9585756D01*
X17002556Y-9839756D02*
X17002556Y-9769044D01*
X16931844Y-9769044D01*
X16931844Y-9839756D01*
X17002556Y-9839756D01*
X17002556Y-10093756D02*
X17002556Y-10023044D01*
X16931844Y-10023044D01*
X16931844Y-10093756D01*
X17002556Y-10093756D01*
X17002556Y-10347756D02*
X17002556Y-10277044D01*
X16931844Y-10277044D01*
X16931844Y-10347756D01*
X17002556Y-10347756D01*
X17002556Y-10601756D02*
X17002556Y-10531044D01*
X16931844Y-10531044D01*
X16931844Y-10601756D01*
X17002556Y-10601756D01*
X17002556Y-10855756D02*
X17002556Y-10785044D01*
X16931844Y-10785044D01*
X16931844Y-10855756D01*
X17002556Y-10855756D01*
X17002556Y-11109756D02*
X17002556Y-11039044D01*
X16931844Y-11039044D01*
X16931844Y-11109756D01*
X17002556Y-11109756D01*
X17688356Y-9484156D02*
X17688356Y-9413444D01*
X17617644Y-9413444D01*
X17617644Y-9484156D01*
X17688356Y-9484156D01*
X17688356Y-9738156D02*
X17688356Y-9667444D01*
X17617644Y-9667444D01*
X17617644Y-9738156D01*
X17688356Y-9738156D01*
X17688356Y-9992156D02*
X17688356Y-9921444D01*
X17617644Y-9921444D01*
X17617644Y-9992156D01*
X17688356Y-9992156D01*
X17688356Y-10246156D02*
X17688356Y-10175444D01*
X17617644Y-10175444D01*
X17617644Y-10246156D01*
X17688356Y-10246156D01*
X17688356Y-10500156D02*
X17688356Y-10429444D01*
X17617644Y-10429444D01*
X17617644Y-10500156D01*
X17688356Y-10500156D01*
X17688356Y-10754156D02*
X17688356Y-10683444D01*
X17617644Y-10683444D01*
X17617644Y-10754156D01*
X17688356Y-10754156D01*
X17688356Y-11008156D02*
X17688356Y-10937444D01*
X17617644Y-10937444D01*
X17617644Y-11008156D01*
X17688356Y-11008156D01*
X17688356Y-11262156D02*
X17688356Y-11191444D01*
X17617644Y-11191444D01*
X17617644Y-11262156D01*
X17688356Y-11262156D01*
X17688356Y-11516156D02*
X17688356Y-11445444D01*
X17617644Y-11445444D01*
X17617644Y-11516156D01*
X17688356Y-11516156D01*
X17688356Y-11770156D02*
X17688356Y-11699444D01*
X17617644Y-11699444D01*
X17617644Y-11770156D01*
X17688356Y-11770156D01*
X17688356Y-12024156D02*
X17688356Y-11953444D01*
X17617644Y-11953444D01*
X17617644Y-12024156D01*
X17688356Y-12024156D01*
X17688356Y-12278156D02*
X17688356Y-12207444D01*
X17617644Y-12207444D01*
X17617644Y-12278156D01*
X17688356Y-12278156D01*
D11*
X14441219Y-14033524D02*
X14441219Y-13833524D01*
X14441219Y-13833524D02*
X14488838Y-13833524D01*
X14488838Y-13833524D02*
X14517409Y-13843048D01*
X14517409Y-13843048D02*
X14536457Y-13862095D01*
X14536457Y-13862095D02*
X14545981Y-13881143D01*
X14545981Y-13881143D02*
X14555505Y-13919238D01*
X14555505Y-13919238D02*
X14555505Y-13947809D01*
X14555505Y-13947809D02*
X14545981Y-13985905D01*
X14545981Y-13985905D02*
X14536457Y-14004952D01*
X14536457Y-14004952D02*
X14517409Y-14024000D01*
X14517409Y-14024000D02*
X14488838Y-14033524D01*
X14488838Y-14033524D02*
X14441219Y-14033524D01*
X14641219Y-14033524D02*
X14641219Y-13900190D01*
X14641219Y-13938286D02*
X14650743Y-13919238D01*
X14650743Y-13919238D02*
X14660267Y-13909714D01*
X14660267Y-13909714D02*
X14679314Y-13900190D01*
X14679314Y-13900190D02*
X14698362Y-13900190D01*
X14765028Y-14033524D02*
X14765028Y-13900190D01*
X14765028Y-13833524D02*
X14755505Y-13843048D01*
X14755505Y-13843048D02*
X14765028Y-13852571D01*
X14765028Y-13852571D02*
X14774552Y-13843048D01*
X14774552Y-13843048D02*
X14765028Y-13833524D01*
X14765028Y-13833524D02*
X14765028Y-13852571D01*
X14888838Y-14033524D02*
X14869790Y-14024000D01*
X14869790Y-14024000D02*
X14860267Y-14004952D01*
X14860267Y-14004952D02*
X14860267Y-13833524D01*
X14993600Y-14033524D02*
X14974552Y-14024000D01*
X14974552Y-14024000D02*
X14965028Y-14004952D01*
X14965028Y-14004952D02*
X14965028Y-13833524D01*
X15222171Y-14033524D02*
X15222171Y-13833524D01*
X15222171Y-13833524D02*
X15288838Y-13976381D01*
X15288838Y-13976381D02*
X15355505Y-13833524D01*
X15355505Y-13833524D02*
X15355505Y-14033524D01*
X15536457Y-14033524D02*
X15536457Y-13928762D01*
X15536457Y-13928762D02*
X15526933Y-13909714D01*
X15526933Y-13909714D02*
X15507886Y-13900190D01*
X15507886Y-13900190D02*
X15469790Y-13900190D01*
X15469790Y-13900190D02*
X15450743Y-13909714D01*
X15536457Y-14024000D02*
X15517409Y-14033524D01*
X15517409Y-14033524D02*
X15469790Y-14033524D01*
X15469790Y-14033524D02*
X15450743Y-14024000D01*
X15450743Y-14024000D02*
X15441219Y-14004952D01*
X15441219Y-14004952D02*
X15441219Y-13985905D01*
X15441219Y-13985905D02*
X15450743Y-13966857D01*
X15450743Y-13966857D02*
X15469790Y-13957333D01*
X15469790Y-13957333D02*
X15517409Y-13957333D01*
X15517409Y-13957333D02*
X15536457Y-13947809D01*
X15631695Y-13900190D02*
X15631695Y-14100190D01*
X15631695Y-13909714D02*
X15650743Y-13900190D01*
X15650743Y-13900190D02*
X15688838Y-13900190D01*
X15688838Y-13900190D02*
X15707886Y-13909714D01*
X15707886Y-13909714D02*
X15717409Y-13919238D01*
X15717409Y-13919238D02*
X15726933Y-13938286D01*
X15726933Y-13938286D02*
X15726933Y-13995428D01*
X15726933Y-13995428D02*
X15717409Y-14014476D01*
X15717409Y-14014476D02*
X15707886Y-14024000D01*
X15707886Y-14024000D02*
X15688838Y-14033524D01*
X15688838Y-14033524D02*
X15650743Y-14033524D01*
X15650743Y-14033524D02*
X15631695Y-14024000D01*
X15812648Y-14014476D02*
X15822171Y-14024000D01*
X15822171Y-14024000D02*
X15812648Y-14033524D01*
X15812648Y-14033524D02*
X15803124Y-14024000D01*
X15803124Y-14024000D02*
X15812648Y-14014476D01*
X15812648Y-14014476D02*
X15812648Y-14033524D01*
X15812648Y-13909714D02*
X15822171Y-13919238D01*
X15822171Y-13919238D02*
X15812648Y-13928762D01*
X15812648Y-13928762D02*
X15803124Y-13919238D01*
X15803124Y-13919238D02*
X15812648Y-13909714D01*
X15812648Y-13909714D02*
X15812648Y-13928762D01*
D12*
X14153600Y-14341000D02*
X14193600Y-14381000D01*
X14193600Y-14341000D02*
X14153600Y-14381000D01*
D11*
X14479314Y-14253524D02*
X14498362Y-14253524D01*
X14498362Y-14253524D02*
X14517409Y-14263048D01*
X14517409Y-14263048D02*
X14526933Y-14272571D01*
X14526933Y-14272571D02*
X14536457Y-14291619D01*
X14536457Y-14291619D02*
X14545981Y-14329714D01*
X14545981Y-14329714D02*
X14545981Y-14377333D01*
X14545981Y-14377333D02*
X14536457Y-14415428D01*
X14536457Y-14415428D02*
X14526933Y-14434476D01*
X14526933Y-14434476D02*
X14517409Y-14444000D01*
X14517409Y-14444000D02*
X14498362Y-14453524D01*
X14498362Y-14453524D02*
X14479314Y-14453524D01*
X14479314Y-14453524D02*
X14460267Y-14444000D01*
X14460267Y-14444000D02*
X14450743Y-14434476D01*
X14450743Y-14434476D02*
X14441219Y-14415428D01*
X14441219Y-14415428D02*
X14431695Y-14377333D01*
X14431695Y-14377333D02*
X14431695Y-14329714D01*
X14431695Y-14329714D02*
X14441219Y-14291619D01*
X14441219Y-14291619D02*
X14450743Y-14272571D01*
X14450743Y-14272571D02*
X14460267Y-14263048D01*
X14460267Y-14263048D02*
X14479314Y-14253524D01*
X14631695Y-14434476D02*
X14641219Y-14444000D01*
X14641219Y-14444000D02*
X14631695Y-14453524D01*
X14631695Y-14453524D02*
X14622171Y-14444000D01*
X14622171Y-14444000D02*
X14631695Y-14434476D01*
X14631695Y-14434476D02*
X14631695Y-14453524D01*
X14812648Y-14320190D02*
X14812648Y-14453524D01*
X14765028Y-14244000D02*
X14717409Y-14386857D01*
X14717409Y-14386857D02*
X14841219Y-14386857D01*
X14955505Y-14253524D02*
X14974552Y-14253524D01*
X14974552Y-14253524D02*
X14993600Y-14263048D01*
X14993600Y-14263048D02*
X15003124Y-14272571D01*
X15003124Y-14272571D02*
X15012648Y-14291619D01*
X15012648Y-14291619D02*
X15022171Y-14329714D01*
X15022171Y-14329714D02*
X15022171Y-14377333D01*
X15022171Y-14377333D02*
X15012648Y-14415428D01*
X15012648Y-14415428D02*
X15003124Y-14434476D01*
X15003124Y-14434476D02*
X14993600Y-14444000D01*
X14993600Y-14444000D02*
X14974552Y-14453524D01*
X14974552Y-14453524D02*
X14955505Y-14453524D01*
X14955505Y-14453524D02*
X14936457Y-14444000D01*
X14936457Y-14444000D02*
X14926933Y-14434476D01*
X14926933Y-14434476D02*
X14917409Y-14415428D01*
X14917409Y-14415428D02*
X14907886Y-14377333D01*
X14907886Y-14377333D02*
X14907886Y-14329714D01*
X14907886Y-14329714D02*
X14917409Y-14291619D01*
X14917409Y-14291619D02*
X14926933Y-14272571D01*
X14926933Y-14272571D02*
X14936457Y-14263048D01*
X14936457Y-14263048D02*
X14955505Y-14253524D01*
X15145981Y-14253524D02*
X15165029Y-14253524D01*
X15165029Y-14253524D02*
X15184076Y-14263048D01*
X15184076Y-14263048D02*
X15193600Y-14272571D01*
X15193600Y-14272571D02*
X15203124Y-14291619D01*
X15203124Y-14291619D02*
X15212648Y-14329714D01*
X15212648Y-14329714D02*
X15212648Y-14377333D01*
X15212648Y-14377333D02*
X15203124Y-14415428D01*
X15203124Y-14415428D02*
X15193600Y-14434476D01*
X15193600Y-14434476D02*
X15184076Y-14444000D01*
X15184076Y-14444000D02*
X15165029Y-14453524D01*
X15165029Y-14453524D02*
X15145981Y-14453524D01*
X15145981Y-14453524D02*
X15126933Y-14444000D01*
X15126933Y-14444000D02*
X15117409Y-14434476D01*
X15117409Y-14434476D02*
X15107886Y-14415428D01*
X15107886Y-14415428D02*
X15098362Y-14377333D01*
X15098362Y-14377333D02*
X15098362Y-14329714D01*
X15098362Y-14329714D02*
X15107886Y-14291619D01*
X15107886Y-14291619D02*
X15117409Y-14272571D01*
X15117409Y-14272571D02*
X15126933Y-14263048D01*
X15126933Y-14263048D02*
X15145981Y-14253524D01*
X15298362Y-14453524D02*
X15298362Y-14320190D01*
X15298362Y-14339238D02*
X15307886Y-14329714D01*
X15307886Y-14329714D02*
X15326933Y-14320190D01*
X15326933Y-14320190D02*
X15355505Y-14320190D01*
X15355505Y-14320190D02*
X15374552Y-14329714D01*
X15374552Y-14329714D02*
X15384076Y-14348762D01*
X15384076Y-14348762D02*
X15384076Y-14453524D01*
X15384076Y-14348762D02*
X15393600Y-14329714D01*
X15393600Y-14329714D02*
X15412648Y-14320190D01*
X15412648Y-14320190D02*
X15441219Y-14320190D01*
X15441219Y-14320190D02*
X15460267Y-14329714D01*
X15460267Y-14329714D02*
X15469790Y-14348762D01*
X15469790Y-14348762D02*
X15469790Y-14453524D01*
X15565029Y-14453524D02*
X15565029Y-14320190D01*
X15565029Y-14339238D02*
X15574552Y-14329714D01*
X15574552Y-14329714D02*
X15593600Y-14320190D01*
X15593600Y-14320190D02*
X15622171Y-14320190D01*
X15622171Y-14320190D02*
X15641219Y-14329714D01*
X15641219Y-14329714D02*
X15650743Y-14348762D01*
X15650743Y-14348762D02*
X15650743Y-14453524D01*
X15650743Y-14348762D02*
X15660267Y-14329714D01*
X15660267Y-14329714D02*
X15679314Y-14320190D01*
X15679314Y-14320190D02*
X15707886Y-14320190D01*
X15707886Y-14320190D02*
X15726933Y-14329714D01*
X15726933Y-14329714D02*
X15736457Y-14348762D01*
X15736457Y-14348762D02*
X15736457Y-14453524D01*
X16126933Y-14244000D02*
X15955505Y-14501143D01*
X16384076Y-14253524D02*
X16403124Y-14253524D01*
X16403124Y-14253524D02*
X16422172Y-14263048D01*
X16422172Y-14263048D02*
X16431695Y-14272571D01*
X16431695Y-14272571D02*
X16441219Y-14291619D01*
X16441219Y-14291619D02*
X16450743Y-14329714D01*
X16450743Y-14329714D02*
X16450743Y-14377333D01*
X16450743Y-14377333D02*
X16441219Y-14415428D01*
X16441219Y-14415428D02*
X16431695Y-14434476D01*
X16431695Y-14434476D02*
X16422172Y-14444000D01*
X16422172Y-14444000D02*
X16403124Y-14453524D01*
X16403124Y-14453524D02*
X16384076Y-14453524D01*
X16384076Y-14453524D02*
X16365029Y-14444000D01*
X16365029Y-14444000D02*
X16355505Y-14434476D01*
X16355505Y-14434476D02*
X16345981Y-14415428D01*
X16345981Y-14415428D02*
X16336457Y-14377333D01*
X16336457Y-14377333D02*
X16336457Y-14329714D01*
X16336457Y-14329714D02*
X16345981Y-14291619D01*
X16345981Y-14291619D02*
X16355505Y-14272571D01*
X16355505Y-14272571D02*
X16365029Y-14263048D01*
X16365029Y-14263048D02*
X16384076Y-14253524D01*
X16536457Y-14434476D02*
X16545981Y-14444000D01*
X16545981Y-14444000D02*
X16536457Y-14453524D01*
X16536457Y-14453524D02*
X16526933Y-14444000D01*
X16526933Y-14444000D02*
X16536457Y-14434476D01*
X16536457Y-14434476D02*
X16536457Y-14453524D01*
X16669791Y-14253524D02*
X16688838Y-14253524D01*
X16688838Y-14253524D02*
X16707886Y-14263048D01*
X16707886Y-14263048D02*
X16717410Y-14272571D01*
X16717410Y-14272571D02*
X16726933Y-14291619D01*
X16726933Y-14291619D02*
X16736457Y-14329714D01*
X16736457Y-14329714D02*
X16736457Y-14377333D01*
X16736457Y-14377333D02*
X16726933Y-14415428D01*
X16726933Y-14415428D02*
X16717410Y-14434476D01*
X16717410Y-14434476D02*
X16707886Y-14444000D01*
X16707886Y-14444000D02*
X16688838Y-14453524D01*
X16688838Y-14453524D02*
X16669791Y-14453524D01*
X16669791Y-14453524D02*
X16650743Y-14444000D01*
X16650743Y-14444000D02*
X16641219Y-14434476D01*
X16641219Y-14434476D02*
X16631695Y-14415428D01*
X16631695Y-14415428D02*
X16622172Y-14377333D01*
X16622172Y-14377333D02*
X16622172Y-14329714D01*
X16622172Y-14329714D02*
X16631695Y-14291619D01*
X16631695Y-14291619D02*
X16641219Y-14272571D01*
X16641219Y-14272571D02*
X16650743Y-14263048D01*
X16650743Y-14263048D02*
X16669791Y-14253524D01*
X16926934Y-14453524D02*
X16812648Y-14453524D01*
X16869791Y-14453524D02*
X16869791Y-14253524D01*
X16869791Y-14253524D02*
X16850743Y-14282095D01*
X16850743Y-14282095D02*
X16831695Y-14301143D01*
X16831695Y-14301143D02*
X16812648Y-14310667D01*
X17107886Y-14253524D02*
X17012648Y-14253524D01*
X17012648Y-14253524D02*
X17003124Y-14348762D01*
X17003124Y-14348762D02*
X17012648Y-14339238D01*
X17012648Y-14339238D02*
X17031695Y-14329714D01*
X17031695Y-14329714D02*
X17079315Y-14329714D01*
X17079315Y-14329714D02*
X17098362Y-14339238D01*
X17098362Y-14339238D02*
X17107886Y-14348762D01*
X17107886Y-14348762D02*
X17117410Y-14367809D01*
X17117410Y-14367809D02*
X17117410Y-14415428D01*
X17117410Y-14415428D02*
X17107886Y-14434476D01*
X17107886Y-14434476D02*
X17098362Y-14444000D01*
X17098362Y-14444000D02*
X17079315Y-14453524D01*
X17079315Y-14453524D02*
X17031695Y-14453524D01*
X17031695Y-14453524D02*
X17012648Y-14444000D01*
X17012648Y-14444000D02*
X17003124Y-14434476D01*
X17184076Y-14253524D02*
X17317410Y-14253524D01*
X17317410Y-14253524D02*
X17231695Y-14453524D01*
X17384076Y-14253524D02*
X17384076Y-14291619D01*
X17460267Y-14253524D02*
X17460267Y-14291619D01*
X17755505Y-14529714D02*
X17745981Y-14520190D01*
X17745981Y-14520190D02*
X17726934Y-14491619D01*
X17726934Y-14491619D02*
X17717410Y-14472571D01*
X17717410Y-14472571D02*
X17707886Y-14444000D01*
X17707886Y-14444000D02*
X17698362Y-14396381D01*
X17698362Y-14396381D02*
X17698362Y-14358286D01*
X17698362Y-14358286D02*
X17707886Y-14310667D01*
X17707886Y-14310667D02*
X17717410Y-14282095D01*
X17717410Y-14282095D02*
X17726934Y-14263048D01*
X17726934Y-14263048D02*
X17745981Y-14234476D01*
X17745981Y-14234476D02*
X17755505Y-14224952D01*
X17926934Y-14253524D02*
X17831696Y-14253524D01*
X17831696Y-14253524D02*
X17822172Y-14348762D01*
X17822172Y-14348762D02*
X17831696Y-14339238D01*
X17831696Y-14339238D02*
X17850743Y-14329714D01*
X17850743Y-14329714D02*
X17898362Y-14329714D01*
X17898362Y-14329714D02*
X17917410Y-14339238D01*
X17917410Y-14339238D02*
X17926934Y-14348762D01*
X17926934Y-14348762D02*
X17936457Y-14367809D01*
X17936457Y-14367809D02*
X17936457Y-14415428D01*
X17936457Y-14415428D02*
X17926934Y-14434476D01*
X17926934Y-14434476D02*
X17917410Y-14444000D01*
X17917410Y-14444000D02*
X17898362Y-14453524D01*
X17898362Y-14453524D02*
X17850743Y-14453524D01*
X17850743Y-14453524D02*
X17831696Y-14444000D01*
X17831696Y-14444000D02*
X17822172Y-14434476D01*
X18174553Y-14453524D02*
X18174553Y-14253524D01*
X18260267Y-14453524D02*
X18260267Y-14348762D01*
X18260267Y-14348762D02*
X18250743Y-14329714D01*
X18250743Y-14329714D02*
X18231696Y-14320190D01*
X18231696Y-14320190D02*
X18203124Y-14320190D01*
X18203124Y-14320190D02*
X18184077Y-14329714D01*
X18184077Y-14329714D02*
X18174553Y-14339238D01*
X18384077Y-14453524D02*
X18365029Y-14444000D01*
X18365029Y-14444000D02*
X18355505Y-14434476D01*
X18355505Y-14434476D02*
X18345981Y-14415428D01*
X18345981Y-14415428D02*
X18345981Y-14358286D01*
X18345981Y-14358286D02*
X18355505Y-14339238D01*
X18355505Y-14339238D02*
X18365029Y-14329714D01*
X18365029Y-14329714D02*
X18384077Y-14320190D01*
X18384077Y-14320190D02*
X18412648Y-14320190D01*
X18412648Y-14320190D02*
X18431696Y-14329714D01*
X18431696Y-14329714D02*
X18441219Y-14339238D01*
X18441219Y-14339238D02*
X18450743Y-14358286D01*
X18450743Y-14358286D02*
X18450743Y-14415428D01*
X18450743Y-14415428D02*
X18441219Y-14434476D01*
X18441219Y-14434476D02*
X18431696Y-14444000D01*
X18431696Y-14444000D02*
X18412648Y-14453524D01*
X18412648Y-14453524D02*
X18384077Y-14453524D01*
X18565029Y-14453524D02*
X18545981Y-14444000D01*
X18545981Y-14444000D02*
X18536458Y-14424952D01*
X18536458Y-14424952D02*
X18536458Y-14253524D01*
X18717410Y-14444000D02*
X18698362Y-14453524D01*
X18698362Y-14453524D02*
X18660267Y-14453524D01*
X18660267Y-14453524D02*
X18641219Y-14444000D01*
X18641219Y-14444000D02*
X18631696Y-14424952D01*
X18631696Y-14424952D02*
X18631696Y-14348762D01*
X18631696Y-14348762D02*
X18641219Y-14329714D01*
X18641219Y-14329714D02*
X18660267Y-14320190D01*
X18660267Y-14320190D02*
X18698362Y-14320190D01*
X18698362Y-14320190D02*
X18717410Y-14329714D01*
X18717410Y-14329714D02*
X18726934Y-14348762D01*
X18726934Y-14348762D02*
X18726934Y-14367809D01*
X18726934Y-14367809D02*
X18631696Y-14386857D01*
X18803124Y-14444000D02*
X18822172Y-14453524D01*
X18822172Y-14453524D02*
X18860267Y-14453524D01*
X18860267Y-14453524D02*
X18879315Y-14444000D01*
X18879315Y-14444000D02*
X18888839Y-14424952D01*
X18888839Y-14424952D02*
X18888839Y-14415428D01*
X18888839Y-14415428D02*
X18879315Y-14396381D01*
X18879315Y-14396381D02*
X18860267Y-14386857D01*
X18860267Y-14386857D02*
X18831696Y-14386857D01*
X18831696Y-14386857D02*
X18812648Y-14377333D01*
X18812648Y-14377333D02*
X18803124Y-14358286D01*
X18803124Y-14358286D02*
X18803124Y-14348762D01*
X18803124Y-14348762D02*
X18812648Y-14329714D01*
X18812648Y-14329714D02*
X18831696Y-14320190D01*
X18831696Y-14320190D02*
X18860267Y-14320190D01*
X18860267Y-14320190D02*
X18879315Y-14329714D01*
X18955505Y-14529714D02*
X18965029Y-14520190D01*
X18965029Y-14520190D02*
X18984077Y-14491619D01*
X18984077Y-14491619D02*
X18993600Y-14472571D01*
X18993600Y-14472571D02*
X19003124Y-14444000D01*
X19003124Y-14444000D02*
X19012648Y-14396381D01*
X19012648Y-14396381D02*
X19012648Y-14358286D01*
X19012648Y-14358286D02*
X19003124Y-14310667D01*
X19003124Y-14310667D02*
X18993600Y-14282095D01*
X18993600Y-14282095D02*
X18984077Y-14263048D01*
X18984077Y-14263048D02*
X18965029Y-14234476D01*
X18965029Y-14234476D02*
X18955505Y-14224952D01*
D13*
X14193600Y-14625000D02*
G75*
G03*
X14193600Y-14625000I-35000J0D01*
G01*
D11*
X14479314Y-14517524D02*
X14498362Y-14517524D01*
X14498362Y-14517524D02*
X14517409Y-14527048D01*
X14517409Y-14527048D02*
X14526933Y-14536571D01*
X14526933Y-14536571D02*
X14536457Y-14555619D01*
X14536457Y-14555619D02*
X14545981Y-14593714D01*
X14545981Y-14593714D02*
X14545981Y-14641333D01*
X14545981Y-14641333D02*
X14536457Y-14679428D01*
X14536457Y-14679428D02*
X14526933Y-14698476D01*
X14526933Y-14698476D02*
X14517409Y-14708000D01*
X14517409Y-14708000D02*
X14498362Y-14717524D01*
X14498362Y-14717524D02*
X14479314Y-14717524D01*
X14479314Y-14717524D02*
X14460267Y-14708000D01*
X14460267Y-14708000D02*
X14450743Y-14698476D01*
X14450743Y-14698476D02*
X14441219Y-14679428D01*
X14441219Y-14679428D02*
X14431695Y-14641333D01*
X14431695Y-14641333D02*
X14431695Y-14593714D01*
X14431695Y-14593714D02*
X14441219Y-14555619D01*
X14441219Y-14555619D02*
X14450743Y-14536571D01*
X14450743Y-14536571D02*
X14460267Y-14527048D01*
X14460267Y-14527048D02*
X14479314Y-14517524D01*
X14631695Y-14698476D02*
X14641219Y-14708000D01*
X14641219Y-14708000D02*
X14631695Y-14717524D01*
X14631695Y-14717524D02*
X14622171Y-14708000D01*
X14622171Y-14708000D02*
X14631695Y-14698476D01*
X14631695Y-14698476D02*
X14631695Y-14717524D01*
X14707886Y-14517524D02*
X14841219Y-14517524D01*
X14841219Y-14517524D02*
X14755505Y-14717524D01*
X14955505Y-14517524D02*
X14974552Y-14517524D01*
X14974552Y-14517524D02*
X14993600Y-14527048D01*
X14993600Y-14527048D02*
X15003124Y-14536571D01*
X15003124Y-14536571D02*
X15012648Y-14555619D01*
X15012648Y-14555619D02*
X15022171Y-14593714D01*
X15022171Y-14593714D02*
X15022171Y-14641333D01*
X15022171Y-14641333D02*
X15012648Y-14679428D01*
X15012648Y-14679428D02*
X15003124Y-14698476D01*
X15003124Y-14698476D02*
X14993600Y-14708000D01*
X14993600Y-14708000D02*
X14974552Y-14717524D01*
X14974552Y-14717524D02*
X14955505Y-14717524D01*
X14955505Y-14717524D02*
X14936457Y-14708000D01*
X14936457Y-14708000D02*
X14926933Y-14698476D01*
X14926933Y-14698476D02*
X14917409Y-14679428D01*
X14917409Y-14679428D02*
X14907886Y-14641333D01*
X14907886Y-14641333D02*
X14907886Y-14593714D01*
X14907886Y-14593714D02*
X14917409Y-14555619D01*
X14917409Y-14555619D02*
X14926933Y-14536571D01*
X14926933Y-14536571D02*
X14936457Y-14527048D01*
X14936457Y-14527048D02*
X14955505Y-14517524D01*
X15145981Y-14517524D02*
X15165029Y-14517524D01*
X15165029Y-14517524D02*
X15184076Y-14527048D01*
X15184076Y-14527048D02*
X15193600Y-14536571D01*
X15193600Y-14536571D02*
X15203124Y-14555619D01*
X15203124Y-14555619D02*
X15212648Y-14593714D01*
X15212648Y-14593714D02*
X15212648Y-14641333D01*
X15212648Y-14641333D02*
X15203124Y-14679428D01*
X15203124Y-14679428D02*
X15193600Y-14698476D01*
X15193600Y-14698476D02*
X15184076Y-14708000D01*
X15184076Y-14708000D02*
X15165029Y-14717524D01*
X15165029Y-14717524D02*
X15145981Y-14717524D01*
X15145981Y-14717524D02*
X15126933Y-14708000D01*
X15126933Y-14708000D02*
X15117409Y-14698476D01*
X15117409Y-14698476D02*
X15107886Y-14679428D01*
X15107886Y-14679428D02*
X15098362Y-14641333D01*
X15098362Y-14641333D02*
X15098362Y-14593714D01*
X15098362Y-14593714D02*
X15107886Y-14555619D01*
X15107886Y-14555619D02*
X15117409Y-14536571D01*
X15117409Y-14536571D02*
X15126933Y-14527048D01*
X15126933Y-14527048D02*
X15145981Y-14517524D01*
X15298362Y-14717524D02*
X15298362Y-14584190D01*
X15298362Y-14603238D02*
X15307886Y-14593714D01*
X15307886Y-14593714D02*
X15326933Y-14584190D01*
X15326933Y-14584190D02*
X15355505Y-14584190D01*
X15355505Y-14584190D02*
X15374552Y-14593714D01*
X15374552Y-14593714D02*
X15384076Y-14612762D01*
X15384076Y-14612762D02*
X15384076Y-14717524D01*
X15384076Y-14612762D02*
X15393600Y-14593714D01*
X15393600Y-14593714D02*
X15412648Y-14584190D01*
X15412648Y-14584190D02*
X15441219Y-14584190D01*
X15441219Y-14584190D02*
X15460267Y-14593714D01*
X15460267Y-14593714D02*
X15469790Y-14612762D01*
X15469790Y-14612762D02*
X15469790Y-14717524D01*
X15565029Y-14717524D02*
X15565029Y-14584190D01*
X15565029Y-14603238D02*
X15574552Y-14593714D01*
X15574552Y-14593714D02*
X15593600Y-14584190D01*
X15593600Y-14584190D02*
X15622171Y-14584190D01*
X15622171Y-14584190D02*
X15641219Y-14593714D01*
X15641219Y-14593714D02*
X15650743Y-14612762D01*
X15650743Y-14612762D02*
X15650743Y-14717524D01*
X15650743Y-14612762D02*
X15660267Y-14593714D01*
X15660267Y-14593714D02*
X15679314Y-14584190D01*
X15679314Y-14584190D02*
X15707886Y-14584190D01*
X15707886Y-14584190D02*
X15726933Y-14593714D01*
X15726933Y-14593714D02*
X15736457Y-14612762D01*
X15736457Y-14612762D02*
X15736457Y-14717524D01*
X16126933Y-14508000D02*
X15955505Y-14765143D01*
X16384076Y-14517524D02*
X16403124Y-14517524D01*
X16403124Y-14517524D02*
X16422172Y-14527048D01*
X16422172Y-14527048D02*
X16431695Y-14536571D01*
X16431695Y-14536571D02*
X16441219Y-14555619D01*
X16441219Y-14555619D02*
X16450743Y-14593714D01*
X16450743Y-14593714D02*
X16450743Y-14641333D01*
X16450743Y-14641333D02*
X16441219Y-14679428D01*
X16441219Y-14679428D02*
X16431695Y-14698476D01*
X16431695Y-14698476D02*
X16422172Y-14708000D01*
X16422172Y-14708000D02*
X16403124Y-14717524D01*
X16403124Y-14717524D02*
X16384076Y-14717524D01*
X16384076Y-14717524D02*
X16365029Y-14708000D01*
X16365029Y-14708000D02*
X16355505Y-14698476D01*
X16355505Y-14698476D02*
X16345981Y-14679428D01*
X16345981Y-14679428D02*
X16336457Y-14641333D01*
X16336457Y-14641333D02*
X16336457Y-14593714D01*
X16336457Y-14593714D02*
X16345981Y-14555619D01*
X16345981Y-14555619D02*
X16355505Y-14536571D01*
X16355505Y-14536571D02*
X16365029Y-14527048D01*
X16365029Y-14527048D02*
X16384076Y-14517524D01*
X16536457Y-14698476D02*
X16545981Y-14708000D01*
X16545981Y-14708000D02*
X16536457Y-14717524D01*
X16536457Y-14717524D02*
X16526933Y-14708000D01*
X16526933Y-14708000D02*
X16536457Y-14698476D01*
X16536457Y-14698476D02*
X16536457Y-14717524D01*
X16669791Y-14517524D02*
X16688838Y-14517524D01*
X16688838Y-14517524D02*
X16707886Y-14527048D01*
X16707886Y-14527048D02*
X16717410Y-14536571D01*
X16717410Y-14536571D02*
X16726933Y-14555619D01*
X16726933Y-14555619D02*
X16736457Y-14593714D01*
X16736457Y-14593714D02*
X16736457Y-14641333D01*
X16736457Y-14641333D02*
X16726933Y-14679428D01*
X16726933Y-14679428D02*
X16717410Y-14698476D01*
X16717410Y-14698476D02*
X16707886Y-14708000D01*
X16707886Y-14708000D02*
X16688838Y-14717524D01*
X16688838Y-14717524D02*
X16669791Y-14717524D01*
X16669791Y-14717524D02*
X16650743Y-14708000D01*
X16650743Y-14708000D02*
X16641219Y-14698476D01*
X16641219Y-14698476D02*
X16631695Y-14679428D01*
X16631695Y-14679428D02*
X16622172Y-14641333D01*
X16622172Y-14641333D02*
X16622172Y-14593714D01*
X16622172Y-14593714D02*
X16631695Y-14555619D01*
X16631695Y-14555619D02*
X16641219Y-14536571D01*
X16641219Y-14536571D02*
X16650743Y-14527048D01*
X16650743Y-14527048D02*
X16669791Y-14517524D01*
X16812648Y-14536571D02*
X16822172Y-14527048D01*
X16822172Y-14527048D02*
X16841219Y-14517524D01*
X16841219Y-14517524D02*
X16888838Y-14517524D01*
X16888838Y-14517524D02*
X16907886Y-14527048D01*
X16907886Y-14527048D02*
X16917410Y-14536571D01*
X16917410Y-14536571D02*
X16926934Y-14555619D01*
X16926934Y-14555619D02*
X16926934Y-14574667D01*
X16926934Y-14574667D02*
X16917410Y-14603238D01*
X16917410Y-14603238D02*
X16803124Y-14717524D01*
X16803124Y-14717524D02*
X16926934Y-14717524D01*
X16993600Y-14517524D02*
X17126934Y-14517524D01*
X17126934Y-14517524D02*
X17041219Y-14717524D01*
X17288838Y-14517524D02*
X17250743Y-14517524D01*
X17250743Y-14517524D02*
X17231695Y-14527048D01*
X17231695Y-14527048D02*
X17222172Y-14536571D01*
X17222172Y-14536571D02*
X17203124Y-14565143D01*
X17203124Y-14565143D02*
X17193600Y-14603238D01*
X17193600Y-14603238D02*
X17193600Y-14679428D01*
X17193600Y-14679428D02*
X17203124Y-14698476D01*
X17203124Y-14698476D02*
X17212648Y-14708000D01*
X17212648Y-14708000D02*
X17231695Y-14717524D01*
X17231695Y-14717524D02*
X17269791Y-14717524D01*
X17269791Y-14717524D02*
X17288838Y-14708000D01*
X17288838Y-14708000D02*
X17298362Y-14698476D01*
X17298362Y-14698476D02*
X17307886Y-14679428D01*
X17307886Y-14679428D02*
X17307886Y-14631809D01*
X17307886Y-14631809D02*
X17298362Y-14612762D01*
X17298362Y-14612762D02*
X17288838Y-14603238D01*
X17288838Y-14603238D02*
X17269791Y-14593714D01*
X17269791Y-14593714D02*
X17231695Y-14593714D01*
X17231695Y-14593714D02*
X17212648Y-14603238D01*
X17212648Y-14603238D02*
X17203124Y-14612762D01*
X17203124Y-14612762D02*
X17193600Y-14631809D01*
X17384076Y-14517524D02*
X17384076Y-14555619D01*
X17460267Y-14517524D02*
X17460267Y-14555619D01*
X17755505Y-14793714D02*
X17745981Y-14784190D01*
X17745981Y-14784190D02*
X17726934Y-14755619D01*
X17726934Y-14755619D02*
X17717410Y-14736571D01*
X17717410Y-14736571D02*
X17707886Y-14708000D01*
X17707886Y-14708000D02*
X17698362Y-14660381D01*
X17698362Y-14660381D02*
X17698362Y-14622286D01*
X17698362Y-14622286D02*
X17707886Y-14574667D01*
X17707886Y-14574667D02*
X17717410Y-14546095D01*
X17717410Y-14546095D02*
X17726934Y-14527048D01*
X17726934Y-14527048D02*
X17745981Y-14498476D01*
X17745981Y-14498476D02*
X17755505Y-14488952D01*
X17812648Y-14517524D02*
X17936457Y-14517524D01*
X17936457Y-14517524D02*
X17869791Y-14593714D01*
X17869791Y-14593714D02*
X17898362Y-14593714D01*
X17898362Y-14593714D02*
X17917410Y-14603238D01*
X17917410Y-14603238D02*
X17926934Y-14612762D01*
X17926934Y-14612762D02*
X17936457Y-14631809D01*
X17936457Y-14631809D02*
X17936457Y-14679428D01*
X17936457Y-14679428D02*
X17926934Y-14698476D01*
X17926934Y-14698476D02*
X17917410Y-14708000D01*
X17917410Y-14708000D02*
X17898362Y-14717524D01*
X17898362Y-14717524D02*
X17841219Y-14717524D01*
X17841219Y-14717524D02*
X17822172Y-14708000D01*
X17822172Y-14708000D02*
X17812648Y-14698476D01*
X18107886Y-14517524D02*
X18069791Y-14517524D01*
X18069791Y-14517524D02*
X18050743Y-14527048D01*
X18050743Y-14527048D02*
X18041219Y-14536571D01*
X18041219Y-14536571D02*
X18022172Y-14565143D01*
X18022172Y-14565143D02*
X18012648Y-14603238D01*
X18012648Y-14603238D02*
X18012648Y-14679428D01*
X18012648Y-14679428D02*
X18022172Y-14698476D01*
X18022172Y-14698476D02*
X18031696Y-14708000D01*
X18031696Y-14708000D02*
X18050743Y-14717524D01*
X18050743Y-14717524D02*
X18088838Y-14717524D01*
X18088838Y-14717524D02*
X18107886Y-14708000D01*
X18107886Y-14708000D02*
X18117410Y-14698476D01*
X18117410Y-14698476D02*
X18126934Y-14679428D01*
X18126934Y-14679428D02*
X18126934Y-14631809D01*
X18126934Y-14631809D02*
X18117410Y-14612762D01*
X18117410Y-14612762D02*
X18107886Y-14603238D01*
X18107886Y-14603238D02*
X18088838Y-14593714D01*
X18088838Y-14593714D02*
X18050743Y-14593714D01*
X18050743Y-14593714D02*
X18031696Y-14603238D01*
X18031696Y-14603238D02*
X18022172Y-14612762D01*
X18022172Y-14612762D02*
X18012648Y-14631809D01*
X18365029Y-14717524D02*
X18365029Y-14517524D01*
X18450743Y-14717524D02*
X18450743Y-14612762D01*
X18450743Y-14612762D02*
X18441219Y-14593714D01*
X18441219Y-14593714D02*
X18422172Y-14584190D01*
X18422172Y-14584190D02*
X18393600Y-14584190D01*
X18393600Y-14584190D02*
X18374553Y-14593714D01*
X18374553Y-14593714D02*
X18365029Y-14603238D01*
X18574553Y-14717524D02*
X18555505Y-14708000D01*
X18555505Y-14708000D02*
X18545981Y-14698476D01*
X18545981Y-14698476D02*
X18536458Y-14679428D01*
X18536458Y-14679428D02*
X18536458Y-14622286D01*
X18536458Y-14622286D02*
X18545981Y-14603238D01*
X18545981Y-14603238D02*
X18555505Y-14593714D01*
X18555505Y-14593714D02*
X18574553Y-14584190D01*
X18574553Y-14584190D02*
X18603124Y-14584190D01*
X18603124Y-14584190D02*
X18622172Y-14593714D01*
X18622172Y-14593714D02*
X18631696Y-14603238D01*
X18631696Y-14603238D02*
X18641219Y-14622286D01*
X18641219Y-14622286D02*
X18641219Y-14679428D01*
X18641219Y-14679428D02*
X18631696Y-14698476D01*
X18631696Y-14698476D02*
X18622172Y-14708000D01*
X18622172Y-14708000D02*
X18603124Y-14717524D01*
X18603124Y-14717524D02*
X18574553Y-14717524D01*
X18755505Y-14717524D02*
X18736458Y-14708000D01*
X18736458Y-14708000D02*
X18726934Y-14688952D01*
X18726934Y-14688952D02*
X18726934Y-14517524D01*
X18907886Y-14708000D02*
X18888839Y-14717524D01*
X18888839Y-14717524D02*
X18850743Y-14717524D01*
X18850743Y-14717524D02*
X18831696Y-14708000D01*
X18831696Y-14708000D02*
X18822172Y-14688952D01*
X18822172Y-14688952D02*
X18822172Y-14612762D01*
X18822172Y-14612762D02*
X18831696Y-14593714D01*
X18831696Y-14593714D02*
X18850743Y-14584190D01*
X18850743Y-14584190D02*
X18888839Y-14584190D01*
X18888839Y-14584190D02*
X18907886Y-14593714D01*
X18907886Y-14593714D02*
X18917410Y-14612762D01*
X18917410Y-14612762D02*
X18917410Y-14631809D01*
X18917410Y-14631809D02*
X18822172Y-14650857D01*
X18993600Y-14708000D02*
X19012648Y-14717524D01*
X19012648Y-14717524D02*
X19050743Y-14717524D01*
X19050743Y-14717524D02*
X19069791Y-14708000D01*
X19069791Y-14708000D02*
X19079315Y-14688952D01*
X19079315Y-14688952D02*
X19079315Y-14679428D01*
X19079315Y-14679428D02*
X19069791Y-14660381D01*
X19069791Y-14660381D02*
X19050743Y-14650857D01*
X19050743Y-14650857D02*
X19022172Y-14650857D01*
X19022172Y-14650857D02*
X19003124Y-14641333D01*
X19003124Y-14641333D02*
X18993600Y-14622286D01*
X18993600Y-14622286D02*
X18993600Y-14612762D01*
X18993600Y-14612762D02*
X19003124Y-14593714D01*
X19003124Y-14593714D02*
X19022172Y-14584190D01*
X19022172Y-14584190D02*
X19050743Y-14584190D01*
X19050743Y-14584190D02*
X19069791Y-14593714D01*
X19145981Y-14793714D02*
X19155505Y-14784190D01*
X19155505Y-14784190D02*
X19174553Y-14755619D01*
X19174553Y-14755619D02*
X19184077Y-14736571D01*
X19184077Y-14736571D02*
X19193600Y-14708000D01*
X19193600Y-14708000D02*
X19203124Y-14660381D01*
X19203124Y-14660381D02*
X19203124Y-14622286D01*
X19203124Y-14622286D02*
X19193600Y-14574667D01*
X19193600Y-14574667D02*
X19184077Y-14546095D01*
X19184077Y-14546095D02*
X19174553Y-14527048D01*
X19174553Y-14527048D02*
X19155505Y-14498476D01*
X19155505Y-14498476D02*
X19145981Y-14488952D01*
D14*
X14153600Y-14849000D02*
X14153600Y-14929000D01*
X14113600Y-14889000D02*
X14193600Y-14889000D01*
D11*
X14479314Y-14781524D02*
X14498362Y-14781524D01*
X14498362Y-14781524D02*
X14517409Y-14791048D01*
X14517409Y-14791048D02*
X14526933Y-14800571D01*
X14526933Y-14800571D02*
X14536457Y-14819619D01*
X14536457Y-14819619D02*
X14545981Y-14857714D01*
X14545981Y-14857714D02*
X14545981Y-14905333D01*
X14545981Y-14905333D02*
X14536457Y-14943428D01*
X14536457Y-14943428D02*
X14526933Y-14962476D01*
X14526933Y-14962476D02*
X14517409Y-14972000D01*
X14517409Y-14972000D02*
X14498362Y-14981524D01*
X14498362Y-14981524D02*
X14479314Y-14981524D01*
X14479314Y-14981524D02*
X14460267Y-14972000D01*
X14460267Y-14972000D02*
X14450743Y-14962476D01*
X14450743Y-14962476D02*
X14441219Y-14943428D01*
X14441219Y-14943428D02*
X14431695Y-14905333D01*
X14431695Y-14905333D02*
X14431695Y-14857714D01*
X14431695Y-14857714D02*
X14441219Y-14819619D01*
X14441219Y-14819619D02*
X14450743Y-14800571D01*
X14450743Y-14800571D02*
X14460267Y-14791048D01*
X14460267Y-14791048D02*
X14479314Y-14781524D01*
X14631695Y-14962476D02*
X14641219Y-14972000D01*
X14641219Y-14972000D02*
X14631695Y-14981524D01*
X14631695Y-14981524D02*
X14622171Y-14972000D01*
X14622171Y-14972000D02*
X14631695Y-14962476D01*
X14631695Y-14962476D02*
X14631695Y-14981524D01*
X14755505Y-14867238D02*
X14736457Y-14857714D01*
X14736457Y-14857714D02*
X14726933Y-14848190D01*
X14726933Y-14848190D02*
X14717409Y-14829143D01*
X14717409Y-14829143D02*
X14717409Y-14819619D01*
X14717409Y-14819619D02*
X14726933Y-14800571D01*
X14726933Y-14800571D02*
X14736457Y-14791048D01*
X14736457Y-14791048D02*
X14755505Y-14781524D01*
X14755505Y-14781524D02*
X14793600Y-14781524D01*
X14793600Y-14781524D02*
X14812648Y-14791048D01*
X14812648Y-14791048D02*
X14822171Y-14800571D01*
X14822171Y-14800571D02*
X14831695Y-14819619D01*
X14831695Y-14819619D02*
X14831695Y-14829143D01*
X14831695Y-14829143D02*
X14822171Y-14848190D01*
X14822171Y-14848190D02*
X14812648Y-14857714D01*
X14812648Y-14857714D02*
X14793600Y-14867238D01*
X14793600Y-14867238D02*
X14755505Y-14867238D01*
X14755505Y-14867238D02*
X14736457Y-14876762D01*
X14736457Y-14876762D02*
X14726933Y-14886286D01*
X14726933Y-14886286D02*
X14717409Y-14905333D01*
X14717409Y-14905333D02*
X14717409Y-14943428D01*
X14717409Y-14943428D02*
X14726933Y-14962476D01*
X14726933Y-14962476D02*
X14736457Y-14972000D01*
X14736457Y-14972000D02*
X14755505Y-14981524D01*
X14755505Y-14981524D02*
X14793600Y-14981524D01*
X14793600Y-14981524D02*
X14812648Y-14972000D01*
X14812648Y-14972000D02*
X14822171Y-14962476D01*
X14822171Y-14962476D02*
X14831695Y-14943428D01*
X14831695Y-14943428D02*
X14831695Y-14905333D01*
X14831695Y-14905333D02*
X14822171Y-14886286D01*
X14822171Y-14886286D02*
X14812648Y-14876762D01*
X14812648Y-14876762D02*
X14793600Y-14867238D01*
X14955505Y-14781524D02*
X14974552Y-14781524D01*
X14974552Y-14781524D02*
X14993600Y-14791048D01*
X14993600Y-14791048D02*
X15003124Y-14800571D01*
X15003124Y-14800571D02*
X15012648Y-14819619D01*
X15012648Y-14819619D02*
X15022171Y-14857714D01*
X15022171Y-14857714D02*
X15022171Y-14905333D01*
X15022171Y-14905333D02*
X15012648Y-14943428D01*
X15012648Y-14943428D02*
X15003124Y-14962476D01*
X15003124Y-14962476D02*
X14993600Y-14972000D01*
X14993600Y-14972000D02*
X14974552Y-14981524D01*
X14974552Y-14981524D02*
X14955505Y-14981524D01*
X14955505Y-14981524D02*
X14936457Y-14972000D01*
X14936457Y-14972000D02*
X14926933Y-14962476D01*
X14926933Y-14962476D02*
X14917409Y-14943428D01*
X14917409Y-14943428D02*
X14907886Y-14905333D01*
X14907886Y-14905333D02*
X14907886Y-14857714D01*
X14907886Y-14857714D02*
X14917409Y-14819619D01*
X14917409Y-14819619D02*
X14926933Y-14800571D01*
X14926933Y-14800571D02*
X14936457Y-14791048D01*
X14936457Y-14791048D02*
X14955505Y-14781524D01*
X15145981Y-14781524D02*
X15165029Y-14781524D01*
X15165029Y-14781524D02*
X15184076Y-14791048D01*
X15184076Y-14791048D02*
X15193600Y-14800571D01*
X15193600Y-14800571D02*
X15203124Y-14819619D01*
X15203124Y-14819619D02*
X15212648Y-14857714D01*
X15212648Y-14857714D02*
X15212648Y-14905333D01*
X15212648Y-14905333D02*
X15203124Y-14943428D01*
X15203124Y-14943428D02*
X15193600Y-14962476D01*
X15193600Y-14962476D02*
X15184076Y-14972000D01*
X15184076Y-14972000D02*
X15165029Y-14981524D01*
X15165029Y-14981524D02*
X15145981Y-14981524D01*
X15145981Y-14981524D02*
X15126933Y-14972000D01*
X15126933Y-14972000D02*
X15117409Y-14962476D01*
X15117409Y-14962476D02*
X15107886Y-14943428D01*
X15107886Y-14943428D02*
X15098362Y-14905333D01*
X15098362Y-14905333D02*
X15098362Y-14857714D01*
X15098362Y-14857714D02*
X15107886Y-14819619D01*
X15107886Y-14819619D02*
X15117409Y-14800571D01*
X15117409Y-14800571D02*
X15126933Y-14791048D01*
X15126933Y-14791048D02*
X15145981Y-14781524D01*
X15298362Y-14981524D02*
X15298362Y-14848190D01*
X15298362Y-14867238D02*
X15307886Y-14857714D01*
X15307886Y-14857714D02*
X15326933Y-14848190D01*
X15326933Y-14848190D02*
X15355505Y-14848190D01*
X15355505Y-14848190D02*
X15374552Y-14857714D01*
X15374552Y-14857714D02*
X15384076Y-14876762D01*
X15384076Y-14876762D02*
X15384076Y-14981524D01*
X15384076Y-14876762D02*
X15393600Y-14857714D01*
X15393600Y-14857714D02*
X15412648Y-14848190D01*
X15412648Y-14848190D02*
X15441219Y-14848190D01*
X15441219Y-14848190D02*
X15460267Y-14857714D01*
X15460267Y-14857714D02*
X15469790Y-14876762D01*
X15469790Y-14876762D02*
X15469790Y-14981524D01*
X15565029Y-14981524D02*
X15565029Y-14848190D01*
X15565029Y-14867238D02*
X15574552Y-14857714D01*
X15574552Y-14857714D02*
X15593600Y-14848190D01*
X15593600Y-14848190D02*
X15622171Y-14848190D01*
X15622171Y-14848190D02*
X15641219Y-14857714D01*
X15641219Y-14857714D02*
X15650743Y-14876762D01*
X15650743Y-14876762D02*
X15650743Y-14981524D01*
X15650743Y-14876762D02*
X15660267Y-14857714D01*
X15660267Y-14857714D02*
X15679314Y-14848190D01*
X15679314Y-14848190D02*
X15707886Y-14848190D01*
X15707886Y-14848190D02*
X15726933Y-14857714D01*
X15726933Y-14857714D02*
X15736457Y-14876762D01*
X15736457Y-14876762D02*
X15736457Y-14981524D01*
X16126933Y-14772000D02*
X15955505Y-15029143D01*
X16384076Y-14781524D02*
X16403124Y-14781524D01*
X16403124Y-14781524D02*
X16422172Y-14791048D01*
X16422172Y-14791048D02*
X16431695Y-14800571D01*
X16431695Y-14800571D02*
X16441219Y-14819619D01*
X16441219Y-14819619D02*
X16450743Y-14857714D01*
X16450743Y-14857714D02*
X16450743Y-14905333D01*
X16450743Y-14905333D02*
X16441219Y-14943428D01*
X16441219Y-14943428D02*
X16431695Y-14962476D01*
X16431695Y-14962476D02*
X16422172Y-14972000D01*
X16422172Y-14972000D02*
X16403124Y-14981524D01*
X16403124Y-14981524D02*
X16384076Y-14981524D01*
X16384076Y-14981524D02*
X16365029Y-14972000D01*
X16365029Y-14972000D02*
X16355505Y-14962476D01*
X16355505Y-14962476D02*
X16345981Y-14943428D01*
X16345981Y-14943428D02*
X16336457Y-14905333D01*
X16336457Y-14905333D02*
X16336457Y-14857714D01*
X16336457Y-14857714D02*
X16345981Y-14819619D01*
X16345981Y-14819619D02*
X16355505Y-14800571D01*
X16355505Y-14800571D02*
X16365029Y-14791048D01*
X16365029Y-14791048D02*
X16384076Y-14781524D01*
X16536457Y-14962476D02*
X16545981Y-14972000D01*
X16545981Y-14972000D02*
X16536457Y-14981524D01*
X16536457Y-14981524D02*
X16526933Y-14972000D01*
X16526933Y-14972000D02*
X16536457Y-14962476D01*
X16536457Y-14962476D02*
X16536457Y-14981524D01*
X16669791Y-14781524D02*
X16688838Y-14781524D01*
X16688838Y-14781524D02*
X16707886Y-14791048D01*
X16707886Y-14791048D02*
X16717410Y-14800571D01*
X16717410Y-14800571D02*
X16726933Y-14819619D01*
X16726933Y-14819619D02*
X16736457Y-14857714D01*
X16736457Y-14857714D02*
X16736457Y-14905333D01*
X16736457Y-14905333D02*
X16726933Y-14943428D01*
X16726933Y-14943428D02*
X16717410Y-14962476D01*
X16717410Y-14962476D02*
X16707886Y-14972000D01*
X16707886Y-14972000D02*
X16688838Y-14981524D01*
X16688838Y-14981524D02*
X16669791Y-14981524D01*
X16669791Y-14981524D02*
X16650743Y-14972000D01*
X16650743Y-14972000D02*
X16641219Y-14962476D01*
X16641219Y-14962476D02*
X16631695Y-14943428D01*
X16631695Y-14943428D02*
X16622172Y-14905333D01*
X16622172Y-14905333D02*
X16622172Y-14857714D01*
X16622172Y-14857714D02*
X16631695Y-14819619D01*
X16631695Y-14819619D02*
X16641219Y-14800571D01*
X16641219Y-14800571D02*
X16650743Y-14791048D01*
X16650743Y-14791048D02*
X16669791Y-14781524D01*
X16803124Y-14781524D02*
X16926934Y-14781524D01*
X16926934Y-14781524D02*
X16860267Y-14857714D01*
X16860267Y-14857714D02*
X16888838Y-14857714D01*
X16888838Y-14857714D02*
X16907886Y-14867238D01*
X16907886Y-14867238D02*
X16917410Y-14876762D01*
X16917410Y-14876762D02*
X16926934Y-14895809D01*
X16926934Y-14895809D02*
X16926934Y-14943428D01*
X16926934Y-14943428D02*
X16917410Y-14962476D01*
X16917410Y-14962476D02*
X16907886Y-14972000D01*
X16907886Y-14972000D02*
X16888838Y-14981524D01*
X16888838Y-14981524D02*
X16831695Y-14981524D01*
X16831695Y-14981524D02*
X16812648Y-14972000D01*
X16812648Y-14972000D02*
X16803124Y-14962476D01*
X17117410Y-14981524D02*
X17003124Y-14981524D01*
X17060267Y-14981524D02*
X17060267Y-14781524D01*
X17060267Y-14781524D02*
X17041219Y-14810095D01*
X17041219Y-14810095D02*
X17022172Y-14829143D01*
X17022172Y-14829143D02*
X17003124Y-14838667D01*
X17298362Y-14781524D02*
X17203124Y-14781524D01*
X17203124Y-14781524D02*
X17193600Y-14876762D01*
X17193600Y-14876762D02*
X17203124Y-14867238D01*
X17203124Y-14867238D02*
X17222172Y-14857714D01*
X17222172Y-14857714D02*
X17269791Y-14857714D01*
X17269791Y-14857714D02*
X17288838Y-14867238D01*
X17288838Y-14867238D02*
X17298362Y-14876762D01*
X17298362Y-14876762D02*
X17307886Y-14895809D01*
X17307886Y-14895809D02*
X17307886Y-14943428D01*
X17307886Y-14943428D02*
X17298362Y-14962476D01*
X17298362Y-14962476D02*
X17288838Y-14972000D01*
X17288838Y-14972000D02*
X17269791Y-14981524D01*
X17269791Y-14981524D02*
X17222172Y-14981524D01*
X17222172Y-14981524D02*
X17203124Y-14972000D01*
X17203124Y-14972000D02*
X17193600Y-14962476D01*
X17384076Y-14781524D02*
X17384076Y-14819619D01*
X17460267Y-14781524D02*
X17460267Y-14819619D01*
X17755505Y-15057714D02*
X17745981Y-15048190D01*
X17745981Y-15048190D02*
X17726934Y-15019619D01*
X17726934Y-15019619D02*
X17717410Y-15000571D01*
X17717410Y-15000571D02*
X17707886Y-14972000D01*
X17707886Y-14972000D02*
X17698362Y-14924381D01*
X17698362Y-14924381D02*
X17698362Y-14886286D01*
X17698362Y-14886286D02*
X17707886Y-14838667D01*
X17707886Y-14838667D02*
X17717410Y-14810095D01*
X17717410Y-14810095D02*
X17726934Y-14791048D01*
X17726934Y-14791048D02*
X17745981Y-14762476D01*
X17745981Y-14762476D02*
X17755505Y-14752952D01*
X17812648Y-14781524D02*
X17936457Y-14781524D01*
X17936457Y-14781524D02*
X17869791Y-14857714D01*
X17869791Y-14857714D02*
X17898362Y-14857714D01*
X17898362Y-14857714D02*
X17917410Y-14867238D01*
X17917410Y-14867238D02*
X17926934Y-14876762D01*
X17926934Y-14876762D02*
X17936457Y-14895809D01*
X17936457Y-14895809D02*
X17936457Y-14943428D01*
X17936457Y-14943428D02*
X17926934Y-14962476D01*
X17926934Y-14962476D02*
X17917410Y-14972000D01*
X17917410Y-14972000D02*
X17898362Y-14981524D01*
X17898362Y-14981524D02*
X17841219Y-14981524D01*
X17841219Y-14981524D02*
X17822172Y-14972000D01*
X17822172Y-14972000D02*
X17812648Y-14962476D01*
X18012648Y-14800571D02*
X18022172Y-14791048D01*
X18022172Y-14791048D02*
X18041219Y-14781524D01*
X18041219Y-14781524D02*
X18088838Y-14781524D01*
X18088838Y-14781524D02*
X18107886Y-14791048D01*
X18107886Y-14791048D02*
X18117410Y-14800571D01*
X18117410Y-14800571D02*
X18126934Y-14819619D01*
X18126934Y-14819619D02*
X18126934Y-14838667D01*
X18126934Y-14838667D02*
X18117410Y-14867238D01*
X18117410Y-14867238D02*
X18003124Y-14981524D01*
X18003124Y-14981524D02*
X18126934Y-14981524D01*
X18365029Y-14981524D02*
X18365029Y-14781524D01*
X18450743Y-14981524D02*
X18450743Y-14876762D01*
X18450743Y-14876762D02*
X18441219Y-14857714D01*
X18441219Y-14857714D02*
X18422172Y-14848190D01*
X18422172Y-14848190D02*
X18393600Y-14848190D01*
X18393600Y-14848190D02*
X18374553Y-14857714D01*
X18374553Y-14857714D02*
X18365029Y-14867238D01*
X18574553Y-14981524D02*
X18555505Y-14972000D01*
X18555505Y-14972000D02*
X18545981Y-14962476D01*
X18545981Y-14962476D02*
X18536458Y-14943428D01*
X18536458Y-14943428D02*
X18536458Y-14886286D01*
X18536458Y-14886286D02*
X18545981Y-14867238D01*
X18545981Y-14867238D02*
X18555505Y-14857714D01*
X18555505Y-14857714D02*
X18574553Y-14848190D01*
X18574553Y-14848190D02*
X18603124Y-14848190D01*
X18603124Y-14848190D02*
X18622172Y-14857714D01*
X18622172Y-14857714D02*
X18631696Y-14867238D01*
X18631696Y-14867238D02*
X18641219Y-14886286D01*
X18641219Y-14886286D02*
X18641219Y-14943428D01*
X18641219Y-14943428D02*
X18631696Y-14962476D01*
X18631696Y-14962476D02*
X18622172Y-14972000D01*
X18622172Y-14972000D02*
X18603124Y-14981524D01*
X18603124Y-14981524D02*
X18574553Y-14981524D01*
X18755505Y-14981524D02*
X18736458Y-14972000D01*
X18736458Y-14972000D02*
X18726934Y-14952952D01*
X18726934Y-14952952D02*
X18726934Y-14781524D01*
X18907886Y-14972000D02*
X18888839Y-14981524D01*
X18888839Y-14981524D02*
X18850743Y-14981524D01*
X18850743Y-14981524D02*
X18831696Y-14972000D01*
X18831696Y-14972000D02*
X18822172Y-14952952D01*
X18822172Y-14952952D02*
X18822172Y-14876762D01*
X18822172Y-14876762D02*
X18831696Y-14857714D01*
X18831696Y-14857714D02*
X18850743Y-14848190D01*
X18850743Y-14848190D02*
X18888839Y-14848190D01*
X18888839Y-14848190D02*
X18907886Y-14857714D01*
X18907886Y-14857714D02*
X18917410Y-14876762D01*
X18917410Y-14876762D02*
X18917410Y-14895809D01*
X18917410Y-14895809D02*
X18822172Y-14914857D01*
X18993600Y-14972000D02*
X19012648Y-14981524D01*
X19012648Y-14981524D02*
X19050743Y-14981524D01*
X19050743Y-14981524D02*
X19069791Y-14972000D01*
X19069791Y-14972000D02*
X19079315Y-14952952D01*
X19079315Y-14952952D02*
X19079315Y-14943428D01*
X19079315Y-14943428D02*
X19069791Y-14924381D01*
X19069791Y-14924381D02*
X19050743Y-14914857D01*
X19050743Y-14914857D02*
X19022172Y-14914857D01*
X19022172Y-14914857D02*
X19003124Y-14905333D01*
X19003124Y-14905333D02*
X18993600Y-14886286D01*
X18993600Y-14886286D02*
X18993600Y-14876762D01*
X18993600Y-14876762D02*
X19003124Y-14857714D01*
X19003124Y-14857714D02*
X19022172Y-14848190D01*
X19022172Y-14848190D02*
X19050743Y-14848190D01*
X19050743Y-14848190D02*
X19069791Y-14857714D01*
X19145981Y-15057714D02*
X19155505Y-15048190D01*
X19155505Y-15048190D02*
X19174553Y-15019619D01*
X19174553Y-15019619D02*
X19184077Y-15000571D01*
X19184077Y-15000571D02*
X19193600Y-14972000D01*
X19193600Y-14972000D02*
X19203124Y-14924381D01*
X19203124Y-14924381D02*
X19203124Y-14886286D01*
X19203124Y-14886286D02*
X19193600Y-14838667D01*
X19193600Y-14838667D02*
X19184077Y-14810095D01*
X19184077Y-14810095D02*
X19174553Y-14791048D01*
X19174553Y-14791048D02*
X19155505Y-14762476D01*
X19155505Y-14762476D02*
X19145981Y-14752952D01*
D10*
X14178956Y-15188356D02*
X14178956Y-15117644D01*
X14108244Y-15117644D01*
X14108244Y-15188356D01*
X14178956Y-15188356D01*
D11*
X14545981Y-15245524D02*
X14431695Y-15245524D01*
X14488838Y-15245524D02*
X14488838Y-15045524D01*
X14488838Y-15045524D02*
X14469790Y-15074095D01*
X14469790Y-15074095D02*
X14450743Y-15093143D01*
X14450743Y-15093143D02*
X14431695Y-15102667D01*
X14631695Y-15226476D02*
X14641219Y-15236000D01*
X14641219Y-15236000D02*
X14631695Y-15245524D01*
X14631695Y-15245524D02*
X14622171Y-15236000D01*
X14622171Y-15236000D02*
X14631695Y-15226476D01*
X14631695Y-15226476D02*
X14631695Y-15245524D01*
X14765028Y-15045524D02*
X14784076Y-15045524D01*
X14784076Y-15045524D02*
X14803124Y-15055048D01*
X14803124Y-15055048D02*
X14812648Y-15064571D01*
X14812648Y-15064571D02*
X14822171Y-15083619D01*
X14822171Y-15083619D02*
X14831695Y-15121714D01*
X14831695Y-15121714D02*
X14831695Y-15169333D01*
X14831695Y-15169333D02*
X14822171Y-15207428D01*
X14822171Y-15207428D02*
X14812648Y-15226476D01*
X14812648Y-15226476D02*
X14803124Y-15236000D01*
X14803124Y-15236000D02*
X14784076Y-15245524D01*
X14784076Y-15245524D02*
X14765028Y-15245524D01*
X14765028Y-15245524D02*
X14745981Y-15236000D01*
X14745981Y-15236000D02*
X14736457Y-15226476D01*
X14736457Y-15226476D02*
X14726933Y-15207428D01*
X14726933Y-15207428D02*
X14717409Y-15169333D01*
X14717409Y-15169333D02*
X14717409Y-15121714D01*
X14717409Y-15121714D02*
X14726933Y-15083619D01*
X14726933Y-15083619D02*
X14736457Y-15064571D01*
X14736457Y-15064571D02*
X14745981Y-15055048D01*
X14745981Y-15055048D02*
X14765028Y-15045524D01*
X14955505Y-15045524D02*
X14974552Y-15045524D01*
X14974552Y-15045524D02*
X14993600Y-15055048D01*
X14993600Y-15055048D02*
X15003124Y-15064571D01*
X15003124Y-15064571D02*
X15012648Y-15083619D01*
X15012648Y-15083619D02*
X15022171Y-15121714D01*
X15022171Y-15121714D02*
X15022171Y-15169333D01*
X15022171Y-15169333D02*
X15012648Y-15207428D01*
X15012648Y-15207428D02*
X15003124Y-15226476D01*
X15003124Y-15226476D02*
X14993600Y-15236000D01*
X14993600Y-15236000D02*
X14974552Y-15245524D01*
X14974552Y-15245524D02*
X14955505Y-15245524D01*
X14955505Y-15245524D02*
X14936457Y-15236000D01*
X14936457Y-15236000D02*
X14926933Y-15226476D01*
X14926933Y-15226476D02*
X14917409Y-15207428D01*
X14917409Y-15207428D02*
X14907886Y-15169333D01*
X14907886Y-15169333D02*
X14907886Y-15121714D01*
X14907886Y-15121714D02*
X14917409Y-15083619D01*
X14917409Y-15083619D02*
X14926933Y-15064571D01*
X14926933Y-15064571D02*
X14936457Y-15055048D01*
X14936457Y-15055048D02*
X14955505Y-15045524D01*
X15145981Y-15045524D02*
X15165029Y-15045524D01*
X15165029Y-15045524D02*
X15184076Y-15055048D01*
X15184076Y-15055048D02*
X15193600Y-15064571D01*
X15193600Y-15064571D02*
X15203124Y-15083619D01*
X15203124Y-15083619D02*
X15212648Y-15121714D01*
X15212648Y-15121714D02*
X15212648Y-15169333D01*
X15212648Y-15169333D02*
X15203124Y-15207428D01*
X15203124Y-15207428D02*
X15193600Y-15226476D01*
X15193600Y-15226476D02*
X15184076Y-15236000D01*
X15184076Y-15236000D02*
X15165029Y-15245524D01*
X15165029Y-15245524D02*
X15145981Y-15245524D01*
X15145981Y-15245524D02*
X15126933Y-15236000D01*
X15126933Y-15236000D02*
X15117409Y-15226476D01*
X15117409Y-15226476D02*
X15107886Y-15207428D01*
X15107886Y-15207428D02*
X15098362Y-15169333D01*
X15098362Y-15169333D02*
X15098362Y-15121714D01*
X15098362Y-15121714D02*
X15107886Y-15083619D01*
X15107886Y-15083619D02*
X15117409Y-15064571D01*
X15117409Y-15064571D02*
X15126933Y-15055048D01*
X15126933Y-15055048D02*
X15145981Y-15045524D01*
X15298362Y-15245524D02*
X15298362Y-15112190D01*
X15298362Y-15131238D02*
X15307886Y-15121714D01*
X15307886Y-15121714D02*
X15326933Y-15112190D01*
X15326933Y-15112190D02*
X15355505Y-15112190D01*
X15355505Y-15112190D02*
X15374552Y-15121714D01*
X15374552Y-15121714D02*
X15384076Y-15140762D01*
X15384076Y-15140762D02*
X15384076Y-15245524D01*
X15384076Y-15140762D02*
X15393600Y-15121714D01*
X15393600Y-15121714D02*
X15412648Y-15112190D01*
X15412648Y-15112190D02*
X15441219Y-15112190D01*
X15441219Y-15112190D02*
X15460267Y-15121714D01*
X15460267Y-15121714D02*
X15469790Y-15140762D01*
X15469790Y-15140762D02*
X15469790Y-15245524D01*
X15565029Y-15245524D02*
X15565029Y-15112190D01*
X15565029Y-15131238D02*
X15574552Y-15121714D01*
X15574552Y-15121714D02*
X15593600Y-15112190D01*
X15593600Y-15112190D02*
X15622171Y-15112190D01*
X15622171Y-15112190D02*
X15641219Y-15121714D01*
X15641219Y-15121714D02*
X15650743Y-15140762D01*
X15650743Y-15140762D02*
X15650743Y-15245524D01*
X15650743Y-15140762D02*
X15660267Y-15121714D01*
X15660267Y-15121714D02*
X15679314Y-15112190D01*
X15679314Y-15112190D02*
X15707886Y-15112190D01*
X15707886Y-15112190D02*
X15726933Y-15121714D01*
X15726933Y-15121714D02*
X15736457Y-15140762D01*
X15736457Y-15140762D02*
X15736457Y-15245524D01*
X16126933Y-15036000D02*
X15955505Y-15293143D01*
X16384076Y-15045524D02*
X16403124Y-15045524D01*
X16403124Y-15045524D02*
X16422172Y-15055048D01*
X16422172Y-15055048D02*
X16431695Y-15064571D01*
X16431695Y-15064571D02*
X16441219Y-15083619D01*
X16441219Y-15083619D02*
X16450743Y-15121714D01*
X16450743Y-15121714D02*
X16450743Y-15169333D01*
X16450743Y-15169333D02*
X16441219Y-15207428D01*
X16441219Y-15207428D02*
X16431695Y-15226476D01*
X16431695Y-15226476D02*
X16422172Y-15236000D01*
X16422172Y-15236000D02*
X16403124Y-15245524D01*
X16403124Y-15245524D02*
X16384076Y-15245524D01*
X16384076Y-15245524D02*
X16365029Y-15236000D01*
X16365029Y-15236000D02*
X16355505Y-15226476D01*
X16355505Y-15226476D02*
X16345981Y-15207428D01*
X16345981Y-15207428D02*
X16336457Y-15169333D01*
X16336457Y-15169333D02*
X16336457Y-15121714D01*
X16336457Y-15121714D02*
X16345981Y-15083619D01*
X16345981Y-15083619D02*
X16355505Y-15064571D01*
X16355505Y-15064571D02*
X16365029Y-15055048D01*
X16365029Y-15055048D02*
X16384076Y-15045524D01*
X16536457Y-15226476D02*
X16545981Y-15236000D01*
X16545981Y-15236000D02*
X16536457Y-15245524D01*
X16536457Y-15245524D02*
X16526933Y-15236000D01*
X16526933Y-15236000D02*
X16536457Y-15226476D01*
X16536457Y-15226476D02*
X16536457Y-15245524D01*
X16669791Y-15045524D02*
X16688838Y-15045524D01*
X16688838Y-15045524D02*
X16707886Y-15055048D01*
X16707886Y-15055048D02*
X16717410Y-15064571D01*
X16717410Y-15064571D02*
X16726933Y-15083619D01*
X16726933Y-15083619D02*
X16736457Y-15121714D01*
X16736457Y-15121714D02*
X16736457Y-15169333D01*
X16736457Y-15169333D02*
X16726933Y-15207428D01*
X16726933Y-15207428D02*
X16717410Y-15226476D01*
X16717410Y-15226476D02*
X16707886Y-15236000D01*
X16707886Y-15236000D02*
X16688838Y-15245524D01*
X16688838Y-15245524D02*
X16669791Y-15245524D01*
X16669791Y-15245524D02*
X16650743Y-15236000D01*
X16650743Y-15236000D02*
X16641219Y-15226476D01*
X16641219Y-15226476D02*
X16631695Y-15207428D01*
X16631695Y-15207428D02*
X16622172Y-15169333D01*
X16622172Y-15169333D02*
X16622172Y-15121714D01*
X16622172Y-15121714D02*
X16631695Y-15083619D01*
X16631695Y-15083619D02*
X16641219Y-15064571D01*
X16641219Y-15064571D02*
X16650743Y-15055048D01*
X16650743Y-15055048D02*
X16669791Y-15045524D01*
X16803124Y-15045524D02*
X16926934Y-15045524D01*
X16926934Y-15045524D02*
X16860267Y-15121714D01*
X16860267Y-15121714D02*
X16888838Y-15121714D01*
X16888838Y-15121714D02*
X16907886Y-15131238D01*
X16907886Y-15131238D02*
X16917410Y-15140762D01*
X16917410Y-15140762D02*
X16926934Y-15159809D01*
X16926934Y-15159809D02*
X16926934Y-15207428D01*
X16926934Y-15207428D02*
X16917410Y-15226476D01*
X16917410Y-15226476D02*
X16907886Y-15236000D01*
X16907886Y-15236000D02*
X16888838Y-15245524D01*
X16888838Y-15245524D02*
X16831695Y-15245524D01*
X16831695Y-15245524D02*
X16812648Y-15236000D01*
X16812648Y-15236000D02*
X16803124Y-15226476D01*
X17022172Y-15245524D02*
X17060267Y-15245524D01*
X17060267Y-15245524D02*
X17079315Y-15236000D01*
X17079315Y-15236000D02*
X17088838Y-15226476D01*
X17088838Y-15226476D02*
X17107886Y-15197905D01*
X17107886Y-15197905D02*
X17117410Y-15159809D01*
X17117410Y-15159809D02*
X17117410Y-15083619D01*
X17117410Y-15083619D02*
X17107886Y-15064571D01*
X17107886Y-15064571D02*
X17098362Y-15055048D01*
X17098362Y-15055048D02*
X17079315Y-15045524D01*
X17079315Y-15045524D02*
X17041219Y-15045524D01*
X17041219Y-15045524D02*
X17022172Y-15055048D01*
X17022172Y-15055048D02*
X17012648Y-15064571D01*
X17012648Y-15064571D02*
X17003124Y-15083619D01*
X17003124Y-15083619D02*
X17003124Y-15131238D01*
X17003124Y-15131238D02*
X17012648Y-15150286D01*
X17012648Y-15150286D02*
X17022172Y-15159809D01*
X17022172Y-15159809D02*
X17041219Y-15169333D01*
X17041219Y-15169333D02*
X17079315Y-15169333D01*
X17079315Y-15169333D02*
X17098362Y-15159809D01*
X17098362Y-15159809D02*
X17107886Y-15150286D01*
X17107886Y-15150286D02*
X17117410Y-15131238D01*
X17288838Y-15112190D02*
X17288838Y-15245524D01*
X17241219Y-15036000D02*
X17193600Y-15178857D01*
X17193600Y-15178857D02*
X17317410Y-15178857D01*
X17384076Y-15045524D02*
X17384076Y-15083619D01*
X17460267Y-15045524D02*
X17460267Y-15083619D01*
X17755505Y-15321714D02*
X17745981Y-15312190D01*
X17745981Y-15312190D02*
X17726934Y-15283619D01*
X17726934Y-15283619D02*
X17717410Y-15264571D01*
X17717410Y-15264571D02*
X17707886Y-15236000D01*
X17707886Y-15236000D02*
X17698362Y-15188381D01*
X17698362Y-15188381D02*
X17698362Y-15150286D01*
X17698362Y-15150286D02*
X17707886Y-15102667D01*
X17707886Y-15102667D02*
X17717410Y-15074095D01*
X17717410Y-15074095D02*
X17726934Y-15055048D01*
X17726934Y-15055048D02*
X17745981Y-15026476D01*
X17745981Y-15026476D02*
X17755505Y-15016952D01*
X17917410Y-15045524D02*
X17879315Y-15045524D01*
X17879315Y-15045524D02*
X17860267Y-15055048D01*
X17860267Y-15055048D02*
X17850743Y-15064571D01*
X17850743Y-15064571D02*
X17831696Y-15093143D01*
X17831696Y-15093143D02*
X17822172Y-15131238D01*
X17822172Y-15131238D02*
X17822172Y-15207428D01*
X17822172Y-15207428D02*
X17831696Y-15226476D01*
X17831696Y-15226476D02*
X17841219Y-15236000D01*
X17841219Y-15236000D02*
X17860267Y-15245524D01*
X17860267Y-15245524D02*
X17898362Y-15245524D01*
X17898362Y-15245524D02*
X17917410Y-15236000D01*
X17917410Y-15236000D02*
X17926934Y-15226476D01*
X17926934Y-15226476D02*
X17936457Y-15207428D01*
X17936457Y-15207428D02*
X17936457Y-15159809D01*
X17936457Y-15159809D02*
X17926934Y-15140762D01*
X17926934Y-15140762D02*
X17917410Y-15131238D01*
X17917410Y-15131238D02*
X17898362Y-15121714D01*
X17898362Y-15121714D02*
X17860267Y-15121714D01*
X17860267Y-15121714D02*
X17841219Y-15131238D01*
X17841219Y-15131238D02*
X17831696Y-15140762D01*
X17831696Y-15140762D02*
X17822172Y-15159809D01*
X18060267Y-15045524D02*
X18079315Y-15045524D01*
X18079315Y-15045524D02*
X18098362Y-15055048D01*
X18098362Y-15055048D02*
X18107886Y-15064571D01*
X18107886Y-15064571D02*
X18117410Y-15083619D01*
X18117410Y-15083619D02*
X18126934Y-15121714D01*
X18126934Y-15121714D02*
X18126934Y-15169333D01*
X18126934Y-15169333D02*
X18117410Y-15207428D01*
X18117410Y-15207428D02*
X18107886Y-15226476D01*
X18107886Y-15226476D02*
X18098362Y-15236000D01*
X18098362Y-15236000D02*
X18079315Y-15245524D01*
X18079315Y-15245524D02*
X18060267Y-15245524D01*
X18060267Y-15245524D02*
X18041219Y-15236000D01*
X18041219Y-15236000D02*
X18031696Y-15226476D01*
X18031696Y-15226476D02*
X18022172Y-15207428D01*
X18022172Y-15207428D02*
X18012648Y-15169333D01*
X18012648Y-15169333D02*
X18012648Y-15121714D01*
X18012648Y-15121714D02*
X18022172Y-15083619D01*
X18022172Y-15083619D02*
X18031696Y-15064571D01*
X18031696Y-15064571D02*
X18041219Y-15055048D01*
X18041219Y-15055048D02*
X18060267Y-15045524D01*
X18365029Y-15245524D02*
X18365029Y-15045524D01*
X18450743Y-15245524D02*
X18450743Y-15140762D01*
X18450743Y-15140762D02*
X18441219Y-15121714D01*
X18441219Y-15121714D02*
X18422172Y-15112190D01*
X18422172Y-15112190D02*
X18393600Y-15112190D01*
X18393600Y-15112190D02*
X18374553Y-15121714D01*
X18374553Y-15121714D02*
X18365029Y-15131238D01*
X18574553Y-15245524D02*
X18555505Y-15236000D01*
X18555505Y-15236000D02*
X18545981Y-15226476D01*
X18545981Y-15226476D02*
X18536458Y-15207428D01*
X18536458Y-15207428D02*
X18536458Y-15150286D01*
X18536458Y-15150286D02*
X18545981Y-15131238D01*
X18545981Y-15131238D02*
X18555505Y-15121714D01*
X18555505Y-15121714D02*
X18574553Y-15112190D01*
X18574553Y-15112190D02*
X18603124Y-15112190D01*
X18603124Y-15112190D02*
X18622172Y-15121714D01*
X18622172Y-15121714D02*
X18631696Y-15131238D01*
X18631696Y-15131238D02*
X18641219Y-15150286D01*
X18641219Y-15150286D02*
X18641219Y-15207428D01*
X18641219Y-15207428D02*
X18631696Y-15226476D01*
X18631696Y-15226476D02*
X18622172Y-15236000D01*
X18622172Y-15236000D02*
X18603124Y-15245524D01*
X18603124Y-15245524D02*
X18574553Y-15245524D01*
X18755505Y-15245524D02*
X18736458Y-15236000D01*
X18736458Y-15236000D02*
X18726934Y-15216952D01*
X18726934Y-15216952D02*
X18726934Y-15045524D01*
X18907886Y-15236000D02*
X18888839Y-15245524D01*
X18888839Y-15245524D02*
X18850743Y-15245524D01*
X18850743Y-15245524D02*
X18831696Y-15236000D01*
X18831696Y-15236000D02*
X18822172Y-15216952D01*
X18822172Y-15216952D02*
X18822172Y-15140762D01*
X18822172Y-15140762D02*
X18831696Y-15121714D01*
X18831696Y-15121714D02*
X18850743Y-15112190D01*
X18850743Y-15112190D02*
X18888839Y-15112190D01*
X18888839Y-15112190D02*
X18907886Y-15121714D01*
X18907886Y-15121714D02*
X18917410Y-15140762D01*
X18917410Y-15140762D02*
X18917410Y-15159809D01*
X18917410Y-15159809D02*
X18822172Y-15178857D01*
X18993600Y-15236000D02*
X19012648Y-15245524D01*
X19012648Y-15245524D02*
X19050743Y-15245524D01*
X19050743Y-15245524D02*
X19069791Y-15236000D01*
X19069791Y-15236000D02*
X19079315Y-15216952D01*
X19079315Y-15216952D02*
X19079315Y-15207428D01*
X19079315Y-15207428D02*
X19069791Y-15188381D01*
X19069791Y-15188381D02*
X19050743Y-15178857D01*
X19050743Y-15178857D02*
X19022172Y-15178857D01*
X19022172Y-15178857D02*
X19003124Y-15169333D01*
X19003124Y-15169333D02*
X18993600Y-15150286D01*
X18993600Y-15150286D02*
X18993600Y-15140762D01*
X18993600Y-15140762D02*
X19003124Y-15121714D01*
X19003124Y-15121714D02*
X19022172Y-15112190D01*
X19022172Y-15112190D02*
X19050743Y-15112190D01*
X19050743Y-15112190D02*
X19069791Y-15121714D01*
X19145981Y-15321714D02*
X19155505Y-15312190D01*
X19155505Y-15312190D02*
X19174553Y-15283619D01*
X19174553Y-15283619D02*
X19184077Y-15264571D01*
X19184077Y-15264571D02*
X19193600Y-15236000D01*
X19193600Y-15236000D02*
X19203124Y-15188381D01*
X19203124Y-15188381D02*
X19203124Y-15150286D01*
X19203124Y-15150286D02*
X19193600Y-15102667D01*
X19193600Y-15102667D02*
X19184077Y-15074095D01*
X19184077Y-15074095D02*
X19174553Y-15055048D01*
X19174553Y-15055048D02*
X19155505Y-15026476D01*
X19155505Y-15026476D02*
X19145981Y-15016952D01*
M02*
