G04 #@! TF.GenerationSoftware,KiCad,Pcbnew,7.0.2-0*
G04 #@! TF.CreationDate,2024-11-24T22:08:16+01:00*
G04 #@! TF.ProjectId,MIDI Box,4d494449-2042-46f7-982e-6b696361645f,rev?*
G04 #@! TF.SameCoordinates,Original*
G04 #@! TF.FileFunction,Legend,Top*
G04 #@! TF.FilePolarity,Positive*
%FSLAX46Y46*%
G04 Gerber Fmt 4.6, Leading zero omitted, Abs format (unit mm)*
G04 Created by KiCad (PCBNEW 7.0.2-0) date 2024-11-24 22:08:16*
%MOMM*%
%LPD*%
G01*
G04 APERTURE LIST*
%ADD10C,0.150000*%
%ADD11C,0.300000*%
%ADD12C,0.120000*%
%ADD13C,1.400000*%
%ADD14O,1.400000X1.400000*%
%ADD15R,1.600000X1.600000*%
%ADD16O,1.600000X1.600000*%
%ADD17R,1.700000X1.700000*%
%ADD18O,1.700000X1.700000*%
%ADD19C,2.100000*%
%ADD20R,2.000000X2.000000*%
%ADD21O,2.000000X2.000000*%
%ADD22C,1.600000*%
G04 APERTURE END LIST*
D10*
X178498476Y-96746952D02*
X178498476Y-97413619D01*
X178260381Y-96366000D02*
X178022286Y-97080285D01*
X178022286Y-97080285D02*
X178641333Y-97080285D01*
X178546095Y-98953619D02*
X178069905Y-98953619D01*
X178069905Y-98953619D02*
X178022286Y-99429809D01*
X178022286Y-99429809D02*
X178069905Y-99382190D01*
X178069905Y-99382190D02*
X178165143Y-99334571D01*
X178165143Y-99334571D02*
X178403238Y-99334571D01*
X178403238Y-99334571D02*
X178498476Y-99382190D01*
X178498476Y-99382190D02*
X178546095Y-99429809D01*
X178546095Y-99429809D02*
X178593714Y-99525047D01*
X178593714Y-99525047D02*
X178593714Y-99763142D01*
X178593714Y-99763142D02*
X178546095Y-99858380D01*
X178546095Y-99858380D02*
X178498476Y-99906000D01*
X178498476Y-99906000D02*
X178403238Y-99953619D01*
X178403238Y-99953619D02*
X178165143Y-99953619D01*
X178165143Y-99953619D02*
X178069905Y-99906000D01*
X178069905Y-99906000D02*
X178022286Y-99858380D01*
X178098486Y-116828857D02*
X178146105Y-116781238D01*
X178146105Y-116781238D02*
X178241343Y-116733619D01*
X178241343Y-116733619D02*
X178479438Y-116733619D01*
X178479438Y-116733619D02*
X178574676Y-116781238D01*
X178574676Y-116781238D02*
X178622295Y-116828857D01*
X178622295Y-116828857D02*
X178669914Y-116924095D01*
X178669914Y-116924095D02*
X178669914Y-117019333D01*
X178669914Y-117019333D02*
X178622295Y-117162190D01*
X178622295Y-117162190D02*
X178050867Y-117733619D01*
X178050867Y-117733619D02*
X178669914Y-117733619D01*
X178498476Y-104366952D02*
X178498476Y-105033619D01*
X178260381Y-103986000D02*
X178022286Y-104700285D01*
X178022286Y-104700285D02*
X178641333Y-104700285D01*
X178073086Y-101588857D02*
X178120705Y-101541238D01*
X178120705Y-101541238D02*
X178215943Y-101493619D01*
X178215943Y-101493619D02*
X178454038Y-101493619D01*
X178454038Y-101493619D02*
X178549276Y-101541238D01*
X178549276Y-101541238D02*
X178596895Y-101588857D01*
X178596895Y-101588857D02*
X178644514Y-101684095D01*
X178644514Y-101684095D02*
X178644514Y-101779333D01*
X178644514Y-101779333D02*
X178596895Y-101922190D01*
X178596895Y-101922190D02*
X178025467Y-102493619D01*
X178025467Y-102493619D02*
X178644514Y-102493619D01*
X178546095Y-121813619D02*
X178069905Y-121813619D01*
X178069905Y-121813619D02*
X178022286Y-122289809D01*
X178022286Y-122289809D02*
X178069905Y-122242190D01*
X178069905Y-122242190D02*
X178165143Y-122194571D01*
X178165143Y-122194571D02*
X178403238Y-122194571D01*
X178403238Y-122194571D02*
X178498476Y-122242190D01*
X178498476Y-122242190D02*
X178546095Y-122289809D01*
X178546095Y-122289809D02*
X178593714Y-122385047D01*
X178593714Y-122385047D02*
X178593714Y-122623142D01*
X178593714Y-122623142D02*
X178546095Y-122718380D01*
X178546095Y-122718380D02*
X178498476Y-122766000D01*
X178498476Y-122766000D02*
X178403238Y-122813619D01*
X178403238Y-122813619D02*
X178165143Y-122813619D01*
X178165143Y-122813619D02*
X178069905Y-122766000D01*
X178069905Y-122766000D02*
X178022286Y-122718380D01*
X178498476Y-111986952D02*
X178498476Y-112653619D01*
X178260381Y-111606000D02*
X178022286Y-112320285D01*
X178022286Y-112320285D02*
X178641333Y-112320285D01*
X178098486Y-109208857D02*
X178146105Y-109161238D01*
X178146105Y-109161238D02*
X178241343Y-109113619D01*
X178241343Y-109113619D02*
X178479438Y-109113619D01*
X178479438Y-109113619D02*
X178574676Y-109161238D01*
X178574676Y-109161238D02*
X178622295Y-109208857D01*
X178622295Y-109208857D02*
X178669914Y-109304095D01*
X178669914Y-109304095D02*
X178669914Y-109399333D01*
X178669914Y-109399333D02*
X178622295Y-109542190D01*
X178622295Y-109542190D02*
X178050867Y-110113619D01*
X178050867Y-110113619D02*
X178669914Y-110113619D01*
X145006952Y-94837333D02*
X145673619Y-94837333D01*
X144626000Y-95075428D02*
X145340285Y-95313523D01*
X145340285Y-95313523D02*
X145340285Y-94694476D01*
X178498476Y-119606952D02*
X178498476Y-120273619D01*
X178260381Y-119226000D02*
X178022286Y-119940285D01*
X178022286Y-119940285D02*
X178641333Y-119940285D01*
X145006952Y-78327333D02*
X145673619Y-78327333D01*
X144626000Y-78565428D02*
X145340285Y-78803523D01*
X145340285Y-78803523D02*
X145340285Y-78184476D01*
X150112304Y-130314723D02*
X150112304Y-129838533D01*
X150398019Y-130409961D02*
X149398019Y-130076628D01*
X149398019Y-130076628D02*
X150398019Y-129743295D01*
X149731352Y-129409961D02*
X150398019Y-129409961D01*
X149826590Y-129409961D02*
X149778971Y-129362342D01*
X149778971Y-129362342D02*
X149731352Y-129267104D01*
X149731352Y-129267104D02*
X149731352Y-129124247D01*
X149731352Y-129124247D02*
X149778971Y-129029009D01*
X149778971Y-129029009D02*
X149874209Y-128981390D01*
X149874209Y-128981390D02*
X150398019Y-128981390D01*
X150398019Y-128076628D02*
X149398019Y-128076628D01*
X150350400Y-128076628D02*
X150398019Y-128171866D01*
X150398019Y-128171866D02*
X150398019Y-128362342D01*
X150398019Y-128362342D02*
X150350400Y-128457580D01*
X150350400Y-128457580D02*
X150302780Y-128505199D01*
X150302780Y-128505199D02*
X150207542Y-128552818D01*
X150207542Y-128552818D02*
X149921828Y-128552818D01*
X149921828Y-128552818D02*
X149826590Y-128505199D01*
X149826590Y-128505199D02*
X149778971Y-128457580D01*
X149778971Y-128457580D02*
X149731352Y-128362342D01*
X149731352Y-128362342D02*
X149731352Y-128171866D01*
X149731352Y-128171866D02*
X149778971Y-128076628D01*
X150398019Y-127600437D02*
X149731352Y-127600437D01*
X149921828Y-127600437D02*
X149826590Y-127552818D01*
X149826590Y-127552818D02*
X149778971Y-127505199D01*
X149778971Y-127505199D02*
X149731352Y-127409961D01*
X149731352Y-127409961D02*
X149731352Y-127314723D01*
X150398019Y-126552818D02*
X149874209Y-126552818D01*
X149874209Y-126552818D02*
X149778971Y-126600437D01*
X149778971Y-126600437D02*
X149731352Y-126695675D01*
X149731352Y-126695675D02*
X149731352Y-126886151D01*
X149731352Y-126886151D02*
X149778971Y-126981389D01*
X150350400Y-126552818D02*
X150398019Y-126648056D01*
X150398019Y-126648056D02*
X150398019Y-126886151D01*
X150398019Y-126886151D02*
X150350400Y-126981389D01*
X150350400Y-126981389D02*
X150255161Y-127029008D01*
X150255161Y-127029008D02*
X150159923Y-127029008D01*
X150159923Y-127029008D02*
X150064685Y-126981389D01*
X150064685Y-126981389D02*
X150017066Y-126886151D01*
X150017066Y-126886151D02*
X150017066Y-126648056D01*
X150017066Y-126648056D02*
X149969447Y-126552818D01*
X149350400Y-126695675D02*
X149493257Y-126838532D01*
X150350400Y-126124246D02*
X150398019Y-126029008D01*
X150398019Y-126029008D02*
X150398019Y-125838532D01*
X150398019Y-125838532D02*
X150350400Y-125743294D01*
X150350400Y-125743294D02*
X150255161Y-125695675D01*
X150255161Y-125695675D02*
X150207542Y-125695675D01*
X150207542Y-125695675D02*
X150112304Y-125743294D01*
X150112304Y-125743294D02*
X150064685Y-125838532D01*
X150064685Y-125838532D02*
X150064685Y-125981389D01*
X150064685Y-125981389D02*
X150017066Y-126076627D01*
X150017066Y-126076627D02*
X149921828Y-126124246D01*
X149921828Y-126124246D02*
X149874209Y-126124246D01*
X149874209Y-126124246D02*
X149778971Y-126076627D01*
X149778971Y-126076627D02*
X149731352Y-125981389D01*
X149731352Y-125981389D02*
X149731352Y-125838532D01*
X149731352Y-125838532D02*
X149778971Y-125743294D01*
X150350400Y-124552817D02*
X150398019Y-124409960D01*
X150398019Y-124409960D02*
X150398019Y-124171865D01*
X150398019Y-124171865D02*
X150350400Y-124076627D01*
X150350400Y-124076627D02*
X150302780Y-124029008D01*
X150302780Y-124029008D02*
X150207542Y-123981389D01*
X150207542Y-123981389D02*
X150112304Y-123981389D01*
X150112304Y-123981389D02*
X150017066Y-124029008D01*
X150017066Y-124029008D02*
X149969447Y-124076627D01*
X149969447Y-124076627D02*
X149921828Y-124171865D01*
X149921828Y-124171865D02*
X149874209Y-124362341D01*
X149874209Y-124362341D02*
X149826590Y-124457579D01*
X149826590Y-124457579D02*
X149778971Y-124505198D01*
X149778971Y-124505198D02*
X149683733Y-124552817D01*
X149683733Y-124552817D02*
X149588495Y-124552817D01*
X149588495Y-124552817D02*
X149493257Y-124505198D01*
X149493257Y-124505198D02*
X149445638Y-124457579D01*
X149445638Y-124457579D02*
X149398019Y-124362341D01*
X149398019Y-124362341D02*
X149398019Y-124124246D01*
X149398019Y-124124246D02*
X149445638Y-123981389D01*
X150398019Y-123409960D02*
X150350400Y-123505198D01*
X150350400Y-123505198D02*
X150302780Y-123552817D01*
X150302780Y-123552817D02*
X150207542Y-123600436D01*
X150207542Y-123600436D02*
X149921828Y-123600436D01*
X149921828Y-123600436D02*
X149826590Y-123552817D01*
X149826590Y-123552817D02*
X149778971Y-123505198D01*
X149778971Y-123505198D02*
X149731352Y-123409960D01*
X149731352Y-123409960D02*
X149731352Y-123267103D01*
X149731352Y-123267103D02*
X149778971Y-123171865D01*
X149778971Y-123171865D02*
X149826590Y-123124246D01*
X149826590Y-123124246D02*
X149921828Y-123076627D01*
X149921828Y-123076627D02*
X150207542Y-123076627D01*
X150207542Y-123076627D02*
X150302780Y-123124246D01*
X150302780Y-123124246D02*
X150350400Y-123171865D01*
X150350400Y-123171865D02*
X150398019Y-123267103D01*
X150398019Y-123267103D02*
X150398019Y-123409960D01*
X150398019Y-122648055D02*
X149731352Y-122648055D01*
X149826590Y-122648055D02*
X149778971Y-122600436D01*
X149778971Y-122600436D02*
X149731352Y-122505198D01*
X149731352Y-122505198D02*
X149731352Y-122362341D01*
X149731352Y-122362341D02*
X149778971Y-122267103D01*
X149778971Y-122267103D02*
X149874209Y-122219484D01*
X149874209Y-122219484D02*
X150398019Y-122219484D01*
X149874209Y-122219484D02*
X149778971Y-122171865D01*
X149778971Y-122171865D02*
X149731352Y-122076627D01*
X149731352Y-122076627D02*
X149731352Y-121933770D01*
X149731352Y-121933770D02*
X149778971Y-121838531D01*
X149778971Y-121838531D02*
X149874209Y-121790912D01*
X149874209Y-121790912D02*
X150398019Y-121790912D01*
X150398019Y-121314722D02*
X149731352Y-121314722D01*
X149398019Y-121314722D02*
X149445638Y-121362341D01*
X149445638Y-121362341D02*
X149493257Y-121314722D01*
X149493257Y-121314722D02*
X149445638Y-121267103D01*
X149445638Y-121267103D02*
X149398019Y-121314722D01*
X149398019Y-121314722D02*
X149493257Y-121314722D01*
X149493257Y-120124246D02*
X149445638Y-120076627D01*
X149445638Y-120076627D02*
X149398019Y-119981389D01*
X149398019Y-119981389D02*
X149398019Y-119743294D01*
X149398019Y-119743294D02*
X149445638Y-119648056D01*
X149445638Y-119648056D02*
X149493257Y-119600437D01*
X149493257Y-119600437D02*
X149588495Y-119552818D01*
X149588495Y-119552818D02*
X149683733Y-119552818D01*
X149683733Y-119552818D02*
X149826590Y-119600437D01*
X149826590Y-119600437D02*
X150398019Y-120171865D01*
X150398019Y-120171865D02*
X150398019Y-119552818D01*
X149398019Y-118933770D02*
X149398019Y-118838532D01*
X149398019Y-118838532D02*
X149445638Y-118743294D01*
X149445638Y-118743294D02*
X149493257Y-118695675D01*
X149493257Y-118695675D02*
X149588495Y-118648056D01*
X149588495Y-118648056D02*
X149778971Y-118600437D01*
X149778971Y-118600437D02*
X150017066Y-118600437D01*
X150017066Y-118600437D02*
X150207542Y-118648056D01*
X150207542Y-118648056D02*
X150302780Y-118695675D01*
X150302780Y-118695675D02*
X150350400Y-118743294D01*
X150350400Y-118743294D02*
X150398019Y-118838532D01*
X150398019Y-118838532D02*
X150398019Y-118933770D01*
X150398019Y-118933770D02*
X150350400Y-119029008D01*
X150350400Y-119029008D02*
X150302780Y-119076627D01*
X150302780Y-119076627D02*
X150207542Y-119124246D01*
X150207542Y-119124246D02*
X150017066Y-119171865D01*
X150017066Y-119171865D02*
X149778971Y-119171865D01*
X149778971Y-119171865D02*
X149588495Y-119124246D01*
X149588495Y-119124246D02*
X149493257Y-119076627D01*
X149493257Y-119076627D02*
X149445638Y-119029008D01*
X149445638Y-119029008D02*
X149398019Y-118933770D01*
X149493257Y-118219484D02*
X149445638Y-118171865D01*
X149445638Y-118171865D02*
X149398019Y-118076627D01*
X149398019Y-118076627D02*
X149398019Y-117838532D01*
X149398019Y-117838532D02*
X149445638Y-117743294D01*
X149445638Y-117743294D02*
X149493257Y-117695675D01*
X149493257Y-117695675D02*
X149588495Y-117648056D01*
X149588495Y-117648056D02*
X149683733Y-117648056D01*
X149683733Y-117648056D02*
X149826590Y-117695675D01*
X149826590Y-117695675D02*
X150398019Y-118267103D01*
X150398019Y-118267103D02*
X150398019Y-117648056D01*
X149731352Y-116790913D02*
X150398019Y-116790913D01*
X149350400Y-117029008D02*
X150064685Y-117267103D01*
X150064685Y-117267103D02*
X150064685Y-116648056D01*
D11*
X145722428Y-130452857D02*
X144222428Y-130452857D01*
X144222428Y-130452857D02*
X145293857Y-129952857D01*
X145293857Y-129952857D02*
X144222428Y-129452857D01*
X144222428Y-129452857D02*
X145722428Y-129452857D01*
X145722428Y-128738571D02*
X144222428Y-128738571D01*
X145722428Y-128024285D02*
X144222428Y-128024285D01*
X144222428Y-128024285D02*
X144222428Y-127667142D01*
X144222428Y-127667142D02*
X144293857Y-127452856D01*
X144293857Y-127452856D02*
X144436714Y-127309999D01*
X144436714Y-127309999D02*
X144579571Y-127238570D01*
X144579571Y-127238570D02*
X144865285Y-127167142D01*
X144865285Y-127167142D02*
X145079571Y-127167142D01*
X145079571Y-127167142D02*
X145365285Y-127238570D01*
X145365285Y-127238570D02*
X145508142Y-127309999D01*
X145508142Y-127309999D02*
X145651000Y-127452856D01*
X145651000Y-127452856D02*
X145722428Y-127667142D01*
X145722428Y-127667142D02*
X145722428Y-128024285D01*
X145722428Y-126524285D02*
X144222428Y-126524285D01*
X145722428Y-124667142D02*
X144222428Y-124667142D01*
X144222428Y-124667142D02*
X145293857Y-124167142D01*
X145293857Y-124167142D02*
X144222428Y-123667142D01*
X144222428Y-123667142D02*
X145722428Y-123667142D01*
X145651000Y-122381427D02*
X145722428Y-122524284D01*
X145722428Y-122524284D02*
X145722428Y-122809999D01*
X145722428Y-122809999D02*
X145651000Y-122952856D01*
X145651000Y-122952856D02*
X145508142Y-123024284D01*
X145508142Y-123024284D02*
X144936714Y-123024284D01*
X144936714Y-123024284D02*
X144793857Y-122952856D01*
X144793857Y-122952856D02*
X144722428Y-122809999D01*
X144722428Y-122809999D02*
X144722428Y-122524284D01*
X144722428Y-122524284D02*
X144793857Y-122381427D01*
X144793857Y-122381427D02*
X144936714Y-122309999D01*
X144936714Y-122309999D02*
X145079571Y-122309999D01*
X145079571Y-122309999D02*
X145222428Y-123024284D01*
X145722428Y-121667142D02*
X144722428Y-121667142D01*
X145008142Y-121667142D02*
X144865285Y-121595713D01*
X144865285Y-121595713D02*
X144793857Y-121524285D01*
X144793857Y-121524285D02*
X144722428Y-121381427D01*
X144722428Y-121381427D02*
X144722428Y-121238570D01*
X144722428Y-120095714D02*
X145936714Y-120095714D01*
X145936714Y-120095714D02*
X146079571Y-120167142D01*
X146079571Y-120167142D02*
X146151000Y-120238571D01*
X146151000Y-120238571D02*
X146222428Y-120381428D01*
X146222428Y-120381428D02*
X146222428Y-120595714D01*
X146222428Y-120595714D02*
X146151000Y-120738571D01*
X145651000Y-120095714D02*
X145722428Y-120238571D01*
X145722428Y-120238571D02*
X145722428Y-120524285D01*
X145722428Y-120524285D02*
X145651000Y-120667142D01*
X145651000Y-120667142D02*
X145579571Y-120738571D01*
X145579571Y-120738571D02*
X145436714Y-120809999D01*
X145436714Y-120809999D02*
X145008142Y-120809999D01*
X145008142Y-120809999D02*
X144865285Y-120738571D01*
X144865285Y-120738571D02*
X144793857Y-120667142D01*
X144793857Y-120667142D02*
X144722428Y-120524285D01*
X144722428Y-120524285D02*
X144722428Y-120238571D01*
X144722428Y-120238571D02*
X144793857Y-120095714D01*
X145651000Y-118809999D02*
X145722428Y-118952856D01*
X145722428Y-118952856D02*
X145722428Y-119238571D01*
X145722428Y-119238571D02*
X145651000Y-119381428D01*
X145651000Y-119381428D02*
X145508142Y-119452856D01*
X145508142Y-119452856D02*
X144936714Y-119452856D01*
X144936714Y-119452856D02*
X144793857Y-119381428D01*
X144793857Y-119381428D02*
X144722428Y-119238571D01*
X144722428Y-119238571D02*
X144722428Y-118952856D01*
X144722428Y-118952856D02*
X144793857Y-118809999D01*
X144793857Y-118809999D02*
X144936714Y-118738571D01*
X144936714Y-118738571D02*
X145079571Y-118738571D01*
X145079571Y-118738571D02*
X145222428Y-119452856D01*
X145722428Y-118095714D02*
X144722428Y-118095714D01*
X145008142Y-118095714D02*
X144865285Y-118024285D01*
X144865285Y-118024285D02*
X144793857Y-117952857D01*
X144793857Y-117952857D02*
X144722428Y-117809999D01*
X144722428Y-117809999D02*
X144722428Y-117667142D01*
X148152428Y-129595714D02*
X147438142Y-130095714D01*
X148152428Y-130452857D02*
X146652428Y-130452857D01*
X146652428Y-130452857D02*
X146652428Y-129881428D01*
X146652428Y-129881428D02*
X146723857Y-129738571D01*
X146723857Y-129738571D02*
X146795285Y-129667142D01*
X146795285Y-129667142D02*
X146938142Y-129595714D01*
X146938142Y-129595714D02*
X147152428Y-129595714D01*
X147152428Y-129595714D02*
X147295285Y-129667142D01*
X147295285Y-129667142D02*
X147366714Y-129738571D01*
X147366714Y-129738571D02*
X147438142Y-129881428D01*
X147438142Y-129881428D02*
X147438142Y-130452857D01*
X148081000Y-128381428D02*
X148152428Y-128524285D01*
X148152428Y-128524285D02*
X148152428Y-128810000D01*
X148152428Y-128810000D02*
X148081000Y-128952857D01*
X148081000Y-128952857D02*
X147938142Y-129024285D01*
X147938142Y-129024285D02*
X147366714Y-129024285D01*
X147366714Y-129024285D02*
X147223857Y-128952857D01*
X147223857Y-128952857D02*
X147152428Y-128810000D01*
X147152428Y-128810000D02*
X147152428Y-128524285D01*
X147152428Y-128524285D02*
X147223857Y-128381428D01*
X147223857Y-128381428D02*
X147366714Y-128310000D01*
X147366714Y-128310000D02*
X147509571Y-128310000D01*
X147509571Y-128310000D02*
X147652428Y-129024285D01*
X147152428Y-127810000D02*
X148152428Y-127452857D01*
X148152428Y-127452857D02*
X147152428Y-127095714D01*
X148009571Y-126524286D02*
X148081000Y-126452857D01*
X148081000Y-126452857D02*
X148152428Y-126524286D01*
X148152428Y-126524286D02*
X148081000Y-126595714D01*
X148081000Y-126595714D02*
X148009571Y-126524286D01*
X148009571Y-126524286D02*
X148152428Y-126524286D01*
X147223857Y-126524286D02*
X147295285Y-126452857D01*
X147295285Y-126452857D02*
X147366714Y-126524286D01*
X147366714Y-126524286D02*
X147295285Y-126595714D01*
X147295285Y-126595714D02*
X147223857Y-126524286D01*
X147223857Y-126524286D02*
X147366714Y-126524286D01*
X147581000Y-124667143D02*
X147581000Y-123524286D01*
D10*
X178546095Y-106573619D02*
X178069905Y-106573619D01*
X178069905Y-106573619D02*
X178022286Y-107049809D01*
X178022286Y-107049809D02*
X178069905Y-107002190D01*
X178069905Y-107002190D02*
X178165143Y-106954571D01*
X178165143Y-106954571D02*
X178403238Y-106954571D01*
X178403238Y-106954571D02*
X178498476Y-107002190D01*
X178498476Y-107002190D02*
X178546095Y-107049809D01*
X178546095Y-107049809D02*
X178593714Y-107145047D01*
X178593714Y-107145047D02*
X178593714Y-107383142D01*
X178593714Y-107383142D02*
X178546095Y-107478380D01*
X178546095Y-107478380D02*
X178498476Y-107526000D01*
X178498476Y-107526000D02*
X178403238Y-107573619D01*
X178403238Y-107573619D02*
X178165143Y-107573619D01*
X178165143Y-107573619D02*
X178069905Y-107526000D01*
X178069905Y-107526000D02*
X178022286Y-107478380D01*
X147213619Y-78279714D02*
X147213619Y-78755904D01*
X147213619Y-78755904D02*
X147689809Y-78803523D01*
X147689809Y-78803523D02*
X147642190Y-78755904D01*
X147642190Y-78755904D02*
X147594571Y-78660666D01*
X147594571Y-78660666D02*
X147594571Y-78422571D01*
X147594571Y-78422571D02*
X147642190Y-78327333D01*
X147642190Y-78327333D02*
X147689809Y-78279714D01*
X147689809Y-78279714D02*
X147785047Y-78232095D01*
X147785047Y-78232095D02*
X148023142Y-78232095D01*
X148023142Y-78232095D02*
X148118380Y-78279714D01*
X148118380Y-78279714D02*
X148166000Y-78327333D01*
X148166000Y-78327333D02*
X148213619Y-78422571D01*
X148213619Y-78422571D02*
X148213619Y-78660666D01*
X148213619Y-78660666D02*
X148166000Y-78755904D01*
X148166000Y-78755904D02*
X148118380Y-78803523D01*
X178022286Y-93968857D02*
X178069905Y-93921238D01*
X178069905Y-93921238D02*
X178165143Y-93873619D01*
X178165143Y-93873619D02*
X178403238Y-93873619D01*
X178403238Y-93873619D02*
X178498476Y-93921238D01*
X178498476Y-93921238D02*
X178546095Y-93968857D01*
X178546095Y-93968857D02*
X178593714Y-94064095D01*
X178593714Y-94064095D02*
X178593714Y-94159333D01*
X178593714Y-94159333D02*
X178546095Y-94302190D01*
X178546095Y-94302190D02*
X177974667Y-94873619D01*
X177974667Y-94873619D02*
X178593714Y-94873619D01*
X178546095Y-114193619D02*
X178069905Y-114193619D01*
X178069905Y-114193619D02*
X178022286Y-114669809D01*
X178022286Y-114669809D02*
X178069905Y-114622190D01*
X178069905Y-114622190D02*
X178165143Y-114574571D01*
X178165143Y-114574571D02*
X178403238Y-114574571D01*
X178403238Y-114574571D02*
X178498476Y-114622190D01*
X178498476Y-114622190D02*
X178546095Y-114669809D01*
X178546095Y-114669809D02*
X178593714Y-114765047D01*
X178593714Y-114765047D02*
X178593714Y-115003142D01*
X178593714Y-115003142D02*
X178546095Y-115098380D01*
X178546095Y-115098380D02*
X178498476Y-115146000D01*
X178498476Y-115146000D02*
X178403238Y-115193619D01*
X178403238Y-115193619D02*
X178165143Y-115193619D01*
X178165143Y-115193619D02*
X178069905Y-115146000D01*
X178069905Y-115146000D02*
X178022286Y-115098380D01*
X147213619Y-94789714D02*
X147213619Y-95265904D01*
X147213619Y-95265904D02*
X147689809Y-95313523D01*
X147689809Y-95313523D02*
X147642190Y-95265904D01*
X147642190Y-95265904D02*
X147594571Y-95170666D01*
X147594571Y-95170666D02*
X147594571Y-94932571D01*
X147594571Y-94932571D02*
X147642190Y-94837333D01*
X147642190Y-94837333D02*
X147689809Y-94789714D01*
X147689809Y-94789714D02*
X147785047Y-94742095D01*
X147785047Y-94742095D02*
X148023142Y-94742095D01*
X148023142Y-94742095D02*
X148118380Y-94789714D01*
X148118380Y-94789714D02*
X148166000Y-94837333D01*
X148166000Y-94837333D02*
X148213619Y-94932571D01*
X148213619Y-94932571D02*
X148213619Y-95170666D01*
X148213619Y-95170666D02*
X148166000Y-95265904D01*
X148166000Y-95265904D02*
X148118380Y-95313523D01*
X159345333Y-84536619D02*
X159012000Y-84060428D01*
X158773905Y-84536619D02*
X158773905Y-83536619D01*
X158773905Y-83536619D02*
X159154857Y-83536619D01*
X159154857Y-83536619D02*
X159250095Y-83584238D01*
X159250095Y-83584238D02*
X159297714Y-83631857D01*
X159297714Y-83631857D02*
X159345333Y-83727095D01*
X159345333Y-83727095D02*
X159345333Y-83869952D01*
X159345333Y-83869952D02*
X159297714Y-83965190D01*
X159297714Y-83965190D02*
X159250095Y-84012809D01*
X159250095Y-84012809D02*
X159154857Y-84060428D01*
X159154857Y-84060428D02*
X158773905Y-84060428D01*
X159821524Y-84536619D02*
X160012000Y-84536619D01*
X160012000Y-84536619D02*
X160107238Y-84489000D01*
X160107238Y-84489000D02*
X160154857Y-84441380D01*
X160154857Y-84441380D02*
X160250095Y-84298523D01*
X160250095Y-84298523D02*
X160297714Y-84108047D01*
X160297714Y-84108047D02*
X160297714Y-83727095D01*
X160297714Y-83727095D02*
X160250095Y-83631857D01*
X160250095Y-83631857D02*
X160202476Y-83584238D01*
X160202476Y-83584238D02*
X160107238Y-83536619D01*
X160107238Y-83536619D02*
X159916762Y-83536619D01*
X159916762Y-83536619D02*
X159821524Y-83584238D01*
X159821524Y-83584238D02*
X159773905Y-83631857D01*
X159773905Y-83631857D02*
X159726286Y-83727095D01*
X159726286Y-83727095D02*
X159726286Y-83965190D01*
X159726286Y-83965190D02*
X159773905Y-84060428D01*
X159773905Y-84060428D02*
X159821524Y-84108047D01*
X159821524Y-84108047D02*
X159916762Y-84155666D01*
X159916762Y-84155666D02*
X160107238Y-84155666D01*
X160107238Y-84155666D02*
X160202476Y-84108047D01*
X160202476Y-84108047D02*
X160250095Y-84060428D01*
X160250095Y-84060428D02*
X160297714Y-83965190D01*
X160020095Y-115496619D02*
X160020095Y-116306142D01*
X160020095Y-116306142D02*
X160067714Y-116401380D01*
X160067714Y-116401380D02*
X160115333Y-116449000D01*
X160115333Y-116449000D02*
X160210571Y-116496619D01*
X160210571Y-116496619D02*
X160401047Y-116496619D01*
X160401047Y-116496619D02*
X160496285Y-116449000D01*
X160496285Y-116449000D02*
X160543904Y-116401380D01*
X160543904Y-116401380D02*
X160591523Y-116306142D01*
X160591523Y-116306142D02*
X160591523Y-115496619D01*
X160972476Y-115496619D02*
X161591523Y-115496619D01*
X161591523Y-115496619D02*
X161258190Y-115877571D01*
X161258190Y-115877571D02*
X161401047Y-115877571D01*
X161401047Y-115877571D02*
X161496285Y-115925190D01*
X161496285Y-115925190D02*
X161543904Y-115972809D01*
X161543904Y-115972809D02*
X161591523Y-116068047D01*
X161591523Y-116068047D02*
X161591523Y-116306142D01*
X161591523Y-116306142D02*
X161543904Y-116401380D01*
X161543904Y-116401380D02*
X161496285Y-116449000D01*
X161496285Y-116449000D02*
X161401047Y-116496619D01*
X161401047Y-116496619D02*
X161115333Y-116496619D01*
X161115333Y-116496619D02*
X161020095Y-116449000D01*
X161020095Y-116449000D02*
X160972476Y-116401380D01*
X175125142Y-83266619D02*
X174791809Y-82790428D01*
X174553714Y-83266619D02*
X174553714Y-82266619D01*
X174553714Y-82266619D02*
X174934666Y-82266619D01*
X174934666Y-82266619D02*
X175029904Y-82314238D01*
X175029904Y-82314238D02*
X175077523Y-82361857D01*
X175077523Y-82361857D02*
X175125142Y-82457095D01*
X175125142Y-82457095D02*
X175125142Y-82599952D01*
X175125142Y-82599952D02*
X175077523Y-82695190D01*
X175077523Y-82695190D02*
X175029904Y-82742809D01*
X175029904Y-82742809D02*
X174934666Y-82790428D01*
X174934666Y-82790428D02*
X174553714Y-82790428D01*
X176077523Y-83266619D02*
X175506095Y-83266619D01*
X175791809Y-83266619D02*
X175791809Y-82266619D01*
X175791809Y-82266619D02*
X175696571Y-82409476D01*
X175696571Y-82409476D02*
X175601333Y-82504714D01*
X175601333Y-82504714D02*
X175506095Y-82552333D01*
X176410857Y-82266619D02*
X177077523Y-82266619D01*
X177077523Y-82266619D02*
X176648952Y-83266619D01*
X175125142Y-87838619D02*
X174791809Y-87362428D01*
X174553714Y-87838619D02*
X174553714Y-86838619D01*
X174553714Y-86838619D02*
X174934666Y-86838619D01*
X174934666Y-86838619D02*
X175029904Y-86886238D01*
X175029904Y-86886238D02*
X175077523Y-86933857D01*
X175077523Y-86933857D02*
X175125142Y-87029095D01*
X175125142Y-87029095D02*
X175125142Y-87171952D01*
X175125142Y-87171952D02*
X175077523Y-87267190D01*
X175077523Y-87267190D02*
X175029904Y-87314809D01*
X175029904Y-87314809D02*
X174934666Y-87362428D01*
X174934666Y-87362428D02*
X174553714Y-87362428D01*
X176077523Y-87838619D02*
X175506095Y-87838619D01*
X175791809Y-87838619D02*
X175791809Y-86838619D01*
X175791809Y-86838619D02*
X175696571Y-86981476D01*
X175696571Y-86981476D02*
X175601333Y-87076714D01*
X175601333Y-87076714D02*
X175506095Y-87124333D01*
X176982285Y-86838619D02*
X176506095Y-86838619D01*
X176506095Y-86838619D02*
X176458476Y-87314809D01*
X176458476Y-87314809D02*
X176506095Y-87267190D01*
X176506095Y-87267190D02*
X176601333Y-87219571D01*
X176601333Y-87219571D02*
X176839428Y-87219571D01*
X176839428Y-87219571D02*
X176934666Y-87267190D01*
X176934666Y-87267190D02*
X176982285Y-87314809D01*
X176982285Y-87314809D02*
X177029904Y-87410047D01*
X177029904Y-87410047D02*
X177029904Y-87648142D01*
X177029904Y-87648142D02*
X176982285Y-87743380D01*
X176982285Y-87743380D02*
X176934666Y-87791000D01*
X176934666Y-87791000D02*
X176839428Y-87838619D01*
X176839428Y-87838619D02*
X176601333Y-87838619D01*
X176601333Y-87838619D02*
X176506095Y-87791000D01*
X176506095Y-87791000D02*
X176458476Y-87743380D01*
X154132619Y-121800857D02*
X153656428Y-122134190D01*
X154132619Y-122372285D02*
X153132619Y-122372285D01*
X153132619Y-122372285D02*
X153132619Y-121991333D01*
X153132619Y-121991333D02*
X153180238Y-121896095D01*
X153180238Y-121896095D02*
X153227857Y-121848476D01*
X153227857Y-121848476D02*
X153323095Y-121800857D01*
X153323095Y-121800857D02*
X153465952Y-121800857D01*
X153465952Y-121800857D02*
X153561190Y-121848476D01*
X153561190Y-121848476D02*
X153608809Y-121896095D01*
X153608809Y-121896095D02*
X153656428Y-121991333D01*
X153656428Y-121991333D02*
X153656428Y-122372285D01*
X154132619Y-120848476D02*
X154132619Y-121419904D01*
X154132619Y-121134190D02*
X153132619Y-121134190D01*
X153132619Y-121134190D02*
X153275476Y-121229428D01*
X153275476Y-121229428D02*
X153370714Y-121324666D01*
X153370714Y-121324666D02*
X153418333Y-121419904D01*
X153227857Y-120467523D02*
X153180238Y-120419904D01*
X153180238Y-120419904D02*
X153132619Y-120324666D01*
X153132619Y-120324666D02*
X153132619Y-120086571D01*
X153132619Y-120086571D02*
X153180238Y-119991333D01*
X153180238Y-119991333D02*
X153227857Y-119943714D01*
X153227857Y-119943714D02*
X153323095Y-119896095D01*
X153323095Y-119896095D02*
X153418333Y-119896095D01*
X153418333Y-119896095D02*
X153561190Y-119943714D01*
X153561190Y-119943714D02*
X154132619Y-120515142D01*
X154132619Y-120515142D02*
X154132619Y-119896095D01*
X159345333Y-104856619D02*
X159012000Y-104380428D01*
X158773905Y-104856619D02*
X158773905Y-103856619D01*
X158773905Y-103856619D02*
X159154857Y-103856619D01*
X159154857Y-103856619D02*
X159250095Y-103904238D01*
X159250095Y-103904238D02*
X159297714Y-103951857D01*
X159297714Y-103951857D02*
X159345333Y-104047095D01*
X159345333Y-104047095D02*
X159345333Y-104189952D01*
X159345333Y-104189952D02*
X159297714Y-104285190D01*
X159297714Y-104285190D02*
X159250095Y-104332809D01*
X159250095Y-104332809D02*
X159154857Y-104380428D01*
X159154857Y-104380428D02*
X158773905Y-104380428D01*
X160202476Y-103856619D02*
X160012000Y-103856619D01*
X160012000Y-103856619D02*
X159916762Y-103904238D01*
X159916762Y-103904238D02*
X159869143Y-103951857D01*
X159869143Y-103951857D02*
X159773905Y-104094714D01*
X159773905Y-104094714D02*
X159726286Y-104285190D01*
X159726286Y-104285190D02*
X159726286Y-104666142D01*
X159726286Y-104666142D02*
X159773905Y-104761380D01*
X159773905Y-104761380D02*
X159821524Y-104809000D01*
X159821524Y-104809000D02*
X159916762Y-104856619D01*
X159916762Y-104856619D02*
X160107238Y-104856619D01*
X160107238Y-104856619D02*
X160202476Y-104809000D01*
X160202476Y-104809000D02*
X160250095Y-104761380D01*
X160250095Y-104761380D02*
X160297714Y-104666142D01*
X160297714Y-104666142D02*
X160297714Y-104428047D01*
X160297714Y-104428047D02*
X160250095Y-104332809D01*
X160250095Y-104332809D02*
X160202476Y-104285190D01*
X160202476Y-104285190D02*
X160107238Y-104237571D01*
X160107238Y-104237571D02*
X159916762Y-104237571D01*
X159916762Y-104237571D02*
X159821524Y-104285190D01*
X159821524Y-104285190D02*
X159773905Y-104332809D01*
X159773905Y-104332809D02*
X159726286Y-104428047D01*
X175125142Y-80980619D02*
X174791809Y-80504428D01*
X174553714Y-80980619D02*
X174553714Y-79980619D01*
X174553714Y-79980619D02*
X174934666Y-79980619D01*
X174934666Y-79980619D02*
X175029904Y-80028238D01*
X175029904Y-80028238D02*
X175077523Y-80075857D01*
X175077523Y-80075857D02*
X175125142Y-80171095D01*
X175125142Y-80171095D02*
X175125142Y-80313952D01*
X175125142Y-80313952D02*
X175077523Y-80409190D01*
X175077523Y-80409190D02*
X175029904Y-80456809D01*
X175029904Y-80456809D02*
X174934666Y-80504428D01*
X174934666Y-80504428D02*
X174553714Y-80504428D01*
X176077523Y-80980619D02*
X175506095Y-80980619D01*
X175791809Y-80980619D02*
X175791809Y-79980619D01*
X175791809Y-79980619D02*
X175696571Y-80123476D01*
X175696571Y-80123476D02*
X175601333Y-80218714D01*
X175601333Y-80218714D02*
X175506095Y-80266333D01*
X176648952Y-80409190D02*
X176553714Y-80361571D01*
X176553714Y-80361571D02*
X176506095Y-80313952D01*
X176506095Y-80313952D02*
X176458476Y-80218714D01*
X176458476Y-80218714D02*
X176458476Y-80171095D01*
X176458476Y-80171095D02*
X176506095Y-80075857D01*
X176506095Y-80075857D02*
X176553714Y-80028238D01*
X176553714Y-80028238D02*
X176648952Y-79980619D01*
X176648952Y-79980619D02*
X176839428Y-79980619D01*
X176839428Y-79980619D02*
X176934666Y-80028238D01*
X176934666Y-80028238D02*
X176982285Y-80075857D01*
X176982285Y-80075857D02*
X177029904Y-80171095D01*
X177029904Y-80171095D02*
X177029904Y-80218714D01*
X177029904Y-80218714D02*
X176982285Y-80313952D01*
X176982285Y-80313952D02*
X176934666Y-80361571D01*
X176934666Y-80361571D02*
X176839428Y-80409190D01*
X176839428Y-80409190D02*
X176648952Y-80409190D01*
X176648952Y-80409190D02*
X176553714Y-80456809D01*
X176553714Y-80456809D02*
X176506095Y-80504428D01*
X176506095Y-80504428D02*
X176458476Y-80599666D01*
X176458476Y-80599666D02*
X176458476Y-80790142D01*
X176458476Y-80790142D02*
X176506095Y-80885380D01*
X176506095Y-80885380D02*
X176553714Y-80933000D01*
X176553714Y-80933000D02*
X176648952Y-80980619D01*
X176648952Y-80980619D02*
X176839428Y-80980619D01*
X176839428Y-80980619D02*
X176934666Y-80933000D01*
X176934666Y-80933000D02*
X176982285Y-80885380D01*
X176982285Y-80885380D02*
X177029904Y-80790142D01*
X177029904Y-80790142D02*
X177029904Y-80599666D01*
X177029904Y-80599666D02*
X176982285Y-80504428D01*
X176982285Y-80504428D02*
X176934666Y-80456809D01*
X176934666Y-80456809D02*
X176839428Y-80409190D01*
X154132619Y-129166857D02*
X153656428Y-129500190D01*
X154132619Y-129738285D02*
X153132619Y-129738285D01*
X153132619Y-129738285D02*
X153132619Y-129357333D01*
X153132619Y-129357333D02*
X153180238Y-129262095D01*
X153180238Y-129262095D02*
X153227857Y-129214476D01*
X153227857Y-129214476D02*
X153323095Y-129166857D01*
X153323095Y-129166857D02*
X153465952Y-129166857D01*
X153465952Y-129166857D02*
X153561190Y-129214476D01*
X153561190Y-129214476D02*
X153608809Y-129262095D01*
X153608809Y-129262095D02*
X153656428Y-129357333D01*
X153656428Y-129357333D02*
X153656428Y-129738285D01*
X154132619Y-128214476D02*
X154132619Y-128785904D01*
X154132619Y-128500190D02*
X153132619Y-128500190D01*
X153132619Y-128500190D02*
X153275476Y-128595428D01*
X153275476Y-128595428D02*
X153370714Y-128690666D01*
X153370714Y-128690666D02*
X153418333Y-128785904D01*
X153132619Y-127881142D02*
X153132619Y-127262095D01*
X153132619Y-127262095D02*
X153513571Y-127595428D01*
X153513571Y-127595428D02*
X153513571Y-127452571D01*
X153513571Y-127452571D02*
X153561190Y-127357333D01*
X153561190Y-127357333D02*
X153608809Y-127309714D01*
X153608809Y-127309714D02*
X153704047Y-127262095D01*
X153704047Y-127262095D02*
X153942142Y-127262095D01*
X153942142Y-127262095D02*
X154037380Y-127309714D01*
X154037380Y-127309714D02*
X154085000Y-127357333D01*
X154085000Y-127357333D02*
X154132619Y-127452571D01*
X154132619Y-127452571D02*
X154132619Y-127738285D01*
X154132619Y-127738285D02*
X154085000Y-127833523D01*
X154085000Y-127833523D02*
X154037380Y-127881142D01*
X176196666Y-91620619D02*
X176196666Y-92334904D01*
X176196666Y-92334904D02*
X176149047Y-92477761D01*
X176149047Y-92477761D02*
X176053809Y-92573000D01*
X176053809Y-92573000D02*
X175910952Y-92620619D01*
X175910952Y-92620619D02*
X175815714Y-92620619D01*
X176577619Y-91620619D02*
X177244285Y-91620619D01*
X177244285Y-91620619D02*
X176815714Y-92620619D01*
X171658619Y-129420857D02*
X171182428Y-129754190D01*
X171658619Y-129992285D02*
X170658619Y-129992285D01*
X170658619Y-129992285D02*
X170658619Y-129611333D01*
X170658619Y-129611333D02*
X170706238Y-129516095D01*
X170706238Y-129516095D02*
X170753857Y-129468476D01*
X170753857Y-129468476D02*
X170849095Y-129420857D01*
X170849095Y-129420857D02*
X170991952Y-129420857D01*
X170991952Y-129420857D02*
X171087190Y-129468476D01*
X171087190Y-129468476D02*
X171134809Y-129516095D01*
X171134809Y-129516095D02*
X171182428Y-129611333D01*
X171182428Y-129611333D02*
X171182428Y-129992285D01*
X171658619Y-128468476D02*
X171658619Y-129039904D01*
X171658619Y-128754190D02*
X170658619Y-128754190D01*
X170658619Y-128754190D02*
X170801476Y-128849428D01*
X170801476Y-128849428D02*
X170896714Y-128944666D01*
X170896714Y-128944666D02*
X170944333Y-129039904D01*
X170991952Y-127611333D02*
X171658619Y-127611333D01*
X170611000Y-127849428D02*
X171325285Y-128087523D01*
X171325285Y-128087523D02*
X171325285Y-127468476D01*
X159345333Y-79456619D02*
X159012000Y-78980428D01*
X158773905Y-79456619D02*
X158773905Y-78456619D01*
X158773905Y-78456619D02*
X159154857Y-78456619D01*
X159154857Y-78456619D02*
X159250095Y-78504238D01*
X159250095Y-78504238D02*
X159297714Y-78551857D01*
X159297714Y-78551857D02*
X159345333Y-78647095D01*
X159345333Y-78647095D02*
X159345333Y-78789952D01*
X159345333Y-78789952D02*
X159297714Y-78885190D01*
X159297714Y-78885190D02*
X159250095Y-78932809D01*
X159250095Y-78932809D02*
X159154857Y-78980428D01*
X159154857Y-78980428D02*
X158773905Y-78980428D01*
X160250095Y-78456619D02*
X159773905Y-78456619D01*
X159773905Y-78456619D02*
X159726286Y-78932809D01*
X159726286Y-78932809D02*
X159773905Y-78885190D01*
X159773905Y-78885190D02*
X159869143Y-78837571D01*
X159869143Y-78837571D02*
X160107238Y-78837571D01*
X160107238Y-78837571D02*
X160202476Y-78885190D01*
X160202476Y-78885190D02*
X160250095Y-78932809D01*
X160250095Y-78932809D02*
X160297714Y-79028047D01*
X160297714Y-79028047D02*
X160297714Y-79266142D01*
X160297714Y-79266142D02*
X160250095Y-79361380D01*
X160250095Y-79361380D02*
X160202476Y-79409000D01*
X160202476Y-79409000D02*
X160107238Y-79456619D01*
X160107238Y-79456619D02*
X159869143Y-79456619D01*
X159869143Y-79456619D02*
X159773905Y-79409000D01*
X159773905Y-79409000D02*
X159726286Y-79361380D01*
X166036666Y-60930619D02*
X166036666Y-61644904D01*
X166036666Y-61644904D02*
X165989047Y-61787761D01*
X165989047Y-61787761D02*
X165893809Y-61883000D01*
X165893809Y-61883000D02*
X165750952Y-61930619D01*
X165750952Y-61930619D02*
X165655714Y-61930619D01*
X166941428Y-61263952D02*
X166941428Y-61930619D01*
X166703333Y-60883000D02*
X166465238Y-61597285D01*
X166465238Y-61597285D02*
X167084285Y-61597285D01*
X160020095Y-86286619D02*
X160020095Y-87096142D01*
X160020095Y-87096142D02*
X160067714Y-87191380D01*
X160067714Y-87191380D02*
X160115333Y-87239000D01*
X160115333Y-87239000D02*
X160210571Y-87286619D01*
X160210571Y-87286619D02*
X160401047Y-87286619D01*
X160401047Y-87286619D02*
X160496285Y-87239000D01*
X160496285Y-87239000D02*
X160543904Y-87191380D01*
X160543904Y-87191380D02*
X160591523Y-87096142D01*
X160591523Y-87096142D02*
X160591523Y-86286619D01*
X161020095Y-86381857D02*
X161067714Y-86334238D01*
X161067714Y-86334238D02*
X161162952Y-86286619D01*
X161162952Y-86286619D02*
X161401047Y-86286619D01*
X161401047Y-86286619D02*
X161496285Y-86334238D01*
X161496285Y-86334238D02*
X161543904Y-86381857D01*
X161543904Y-86381857D02*
X161591523Y-86477095D01*
X161591523Y-86477095D02*
X161591523Y-86572333D01*
X161591523Y-86572333D02*
X161543904Y-86715190D01*
X161543904Y-86715190D02*
X160972476Y-87286619D01*
X160972476Y-87286619D02*
X161591523Y-87286619D01*
X145242619Y-86780666D02*
X144766428Y-87113999D01*
X145242619Y-87352094D02*
X144242619Y-87352094D01*
X144242619Y-87352094D02*
X144242619Y-86971142D01*
X144242619Y-86971142D02*
X144290238Y-86875904D01*
X144290238Y-86875904D02*
X144337857Y-86828285D01*
X144337857Y-86828285D02*
X144433095Y-86780666D01*
X144433095Y-86780666D02*
X144575952Y-86780666D01*
X144575952Y-86780666D02*
X144671190Y-86828285D01*
X144671190Y-86828285D02*
X144718809Y-86875904D01*
X144718809Y-86875904D02*
X144766428Y-86971142D01*
X144766428Y-86971142D02*
X144766428Y-87352094D01*
X144337857Y-86399713D02*
X144290238Y-86352094D01*
X144290238Y-86352094D02*
X144242619Y-86256856D01*
X144242619Y-86256856D02*
X144242619Y-86018761D01*
X144242619Y-86018761D02*
X144290238Y-85923523D01*
X144290238Y-85923523D02*
X144337857Y-85875904D01*
X144337857Y-85875904D02*
X144433095Y-85828285D01*
X144433095Y-85828285D02*
X144528333Y-85828285D01*
X144528333Y-85828285D02*
X144671190Y-85875904D01*
X144671190Y-85875904D02*
X145242619Y-86447332D01*
X145242619Y-86447332D02*
X145242619Y-85828285D01*
X154606666Y-60930619D02*
X154606666Y-61644904D01*
X154606666Y-61644904D02*
X154559047Y-61787761D01*
X154559047Y-61787761D02*
X154463809Y-61883000D01*
X154463809Y-61883000D02*
X154320952Y-61930619D01*
X154320952Y-61930619D02*
X154225714Y-61930619D01*
X154987619Y-60930619D02*
X155606666Y-60930619D01*
X155606666Y-60930619D02*
X155273333Y-61311571D01*
X155273333Y-61311571D02*
X155416190Y-61311571D01*
X155416190Y-61311571D02*
X155511428Y-61359190D01*
X155511428Y-61359190D02*
X155559047Y-61406809D01*
X155559047Y-61406809D02*
X155606666Y-61502047D01*
X155606666Y-61502047D02*
X155606666Y-61740142D01*
X155606666Y-61740142D02*
X155559047Y-61835380D01*
X155559047Y-61835380D02*
X155511428Y-61883000D01*
X155511428Y-61883000D02*
X155416190Y-61930619D01*
X155416190Y-61930619D02*
X155130476Y-61930619D01*
X155130476Y-61930619D02*
X155035238Y-61883000D01*
X155035238Y-61883000D02*
X154987619Y-61835380D01*
X159345333Y-81996619D02*
X159012000Y-81520428D01*
X158773905Y-81996619D02*
X158773905Y-80996619D01*
X158773905Y-80996619D02*
X159154857Y-80996619D01*
X159154857Y-80996619D02*
X159250095Y-81044238D01*
X159250095Y-81044238D02*
X159297714Y-81091857D01*
X159297714Y-81091857D02*
X159345333Y-81187095D01*
X159345333Y-81187095D02*
X159345333Y-81329952D01*
X159345333Y-81329952D02*
X159297714Y-81425190D01*
X159297714Y-81425190D02*
X159250095Y-81472809D01*
X159250095Y-81472809D02*
X159154857Y-81520428D01*
X159154857Y-81520428D02*
X158773905Y-81520428D01*
X159678667Y-80996619D02*
X160345333Y-80996619D01*
X160345333Y-80996619D02*
X159916762Y-81996619D01*
X160020095Y-60886619D02*
X160020095Y-61696142D01*
X160020095Y-61696142D02*
X160067714Y-61791380D01*
X160067714Y-61791380D02*
X160115333Y-61839000D01*
X160115333Y-61839000D02*
X160210571Y-61886619D01*
X160210571Y-61886619D02*
X160401047Y-61886619D01*
X160401047Y-61886619D02*
X160496285Y-61839000D01*
X160496285Y-61839000D02*
X160543904Y-61791380D01*
X160543904Y-61791380D02*
X160591523Y-61696142D01*
X160591523Y-61696142D02*
X160591523Y-60886619D01*
X161591523Y-61886619D02*
X161020095Y-61886619D01*
X161305809Y-61886619D02*
X161305809Y-60886619D01*
X161305809Y-60886619D02*
X161210571Y-61029476D01*
X161210571Y-61029476D02*
X161115333Y-61124714D01*
X161115333Y-61124714D02*
X161020095Y-61172333D01*
X142420619Y-93297333D02*
X143134904Y-93297333D01*
X143134904Y-93297333D02*
X143277761Y-93344952D01*
X143277761Y-93344952D02*
X143373000Y-93440190D01*
X143373000Y-93440190D02*
X143420619Y-93583047D01*
X143420619Y-93583047D02*
X143420619Y-93678285D01*
X142515857Y-92868761D02*
X142468238Y-92821142D01*
X142468238Y-92821142D02*
X142420619Y-92725904D01*
X142420619Y-92725904D02*
X142420619Y-92487809D01*
X142420619Y-92487809D02*
X142468238Y-92392571D01*
X142468238Y-92392571D02*
X142515857Y-92344952D01*
X142515857Y-92344952D02*
X142611095Y-92297333D01*
X142611095Y-92297333D02*
X142706333Y-92297333D01*
X142706333Y-92297333D02*
X142849190Y-92344952D01*
X142849190Y-92344952D02*
X143420619Y-92916380D01*
X143420619Y-92916380D02*
X143420619Y-92297333D01*
X148290619Y-87352094D02*
X147290619Y-87352094D01*
X147290619Y-87352094D02*
X147290619Y-87113999D01*
X147290619Y-87113999D02*
X147338238Y-86971142D01*
X147338238Y-86971142D02*
X147433476Y-86875904D01*
X147433476Y-86875904D02*
X147528714Y-86828285D01*
X147528714Y-86828285D02*
X147719190Y-86780666D01*
X147719190Y-86780666D02*
X147862047Y-86780666D01*
X147862047Y-86780666D02*
X148052523Y-86828285D01*
X148052523Y-86828285D02*
X148147761Y-86875904D01*
X148147761Y-86875904D02*
X148243000Y-86971142D01*
X148243000Y-86971142D02*
X148290619Y-87113999D01*
X148290619Y-87113999D02*
X148290619Y-87352094D01*
X147385857Y-86399713D02*
X147338238Y-86352094D01*
X147338238Y-86352094D02*
X147290619Y-86256856D01*
X147290619Y-86256856D02*
X147290619Y-86018761D01*
X147290619Y-86018761D02*
X147338238Y-85923523D01*
X147338238Y-85923523D02*
X147385857Y-85875904D01*
X147385857Y-85875904D02*
X147481095Y-85828285D01*
X147481095Y-85828285D02*
X147576333Y-85828285D01*
X147576333Y-85828285D02*
X147719190Y-85875904D01*
X147719190Y-85875904D02*
X148290619Y-86447332D01*
X148290619Y-86447332D02*
X148290619Y-85828285D01*
X150290619Y-84180219D02*
X149290619Y-84180219D01*
X150290619Y-83608791D02*
X149719190Y-84037362D01*
X149290619Y-83608791D02*
X149862047Y-84180219D01*
X159345333Y-76916619D02*
X159012000Y-76440428D01*
X158773905Y-76916619D02*
X158773905Y-75916619D01*
X158773905Y-75916619D02*
X159154857Y-75916619D01*
X159154857Y-75916619D02*
X159250095Y-75964238D01*
X159250095Y-75964238D02*
X159297714Y-76011857D01*
X159297714Y-76011857D02*
X159345333Y-76107095D01*
X159345333Y-76107095D02*
X159345333Y-76249952D01*
X159345333Y-76249952D02*
X159297714Y-76345190D01*
X159297714Y-76345190D02*
X159250095Y-76392809D01*
X159250095Y-76392809D02*
X159154857Y-76440428D01*
X159154857Y-76440428D02*
X158773905Y-76440428D01*
X159678667Y-75916619D02*
X160297714Y-75916619D01*
X160297714Y-75916619D02*
X159964381Y-76297571D01*
X159964381Y-76297571D02*
X160107238Y-76297571D01*
X160107238Y-76297571D02*
X160202476Y-76345190D01*
X160202476Y-76345190D02*
X160250095Y-76392809D01*
X160250095Y-76392809D02*
X160297714Y-76488047D01*
X160297714Y-76488047D02*
X160297714Y-76726142D01*
X160297714Y-76726142D02*
X160250095Y-76821380D01*
X160250095Y-76821380D02*
X160202476Y-76869000D01*
X160202476Y-76869000D02*
X160107238Y-76916619D01*
X160107238Y-76916619D02*
X159821524Y-76916619D01*
X159821524Y-76916619D02*
X159726286Y-76869000D01*
X159726286Y-76869000D02*
X159678667Y-76821380D01*
X175125142Y-85552619D02*
X174791809Y-85076428D01*
X174553714Y-85552619D02*
X174553714Y-84552619D01*
X174553714Y-84552619D02*
X174934666Y-84552619D01*
X174934666Y-84552619D02*
X175029904Y-84600238D01*
X175029904Y-84600238D02*
X175077523Y-84647857D01*
X175077523Y-84647857D02*
X175125142Y-84743095D01*
X175125142Y-84743095D02*
X175125142Y-84885952D01*
X175125142Y-84885952D02*
X175077523Y-84981190D01*
X175077523Y-84981190D02*
X175029904Y-85028809D01*
X175029904Y-85028809D02*
X174934666Y-85076428D01*
X174934666Y-85076428D02*
X174553714Y-85076428D01*
X176077523Y-85552619D02*
X175506095Y-85552619D01*
X175791809Y-85552619D02*
X175791809Y-84552619D01*
X175791809Y-84552619D02*
X175696571Y-84695476D01*
X175696571Y-84695476D02*
X175601333Y-84790714D01*
X175601333Y-84790714D02*
X175506095Y-84838333D01*
X176934666Y-84552619D02*
X176744190Y-84552619D01*
X176744190Y-84552619D02*
X176648952Y-84600238D01*
X176648952Y-84600238D02*
X176601333Y-84647857D01*
X176601333Y-84647857D02*
X176506095Y-84790714D01*
X176506095Y-84790714D02*
X176458476Y-84981190D01*
X176458476Y-84981190D02*
X176458476Y-85362142D01*
X176458476Y-85362142D02*
X176506095Y-85457380D01*
X176506095Y-85457380D02*
X176553714Y-85505000D01*
X176553714Y-85505000D02*
X176648952Y-85552619D01*
X176648952Y-85552619D02*
X176839428Y-85552619D01*
X176839428Y-85552619D02*
X176934666Y-85505000D01*
X176934666Y-85505000D02*
X176982285Y-85457380D01*
X176982285Y-85457380D02*
X177029904Y-85362142D01*
X177029904Y-85362142D02*
X177029904Y-85124047D01*
X177029904Y-85124047D02*
X176982285Y-85028809D01*
X176982285Y-85028809D02*
X176934666Y-84981190D01*
X176934666Y-84981190D02*
X176839428Y-84933571D01*
X176839428Y-84933571D02*
X176648952Y-84933571D01*
X176648952Y-84933571D02*
X176553714Y-84981190D01*
X176553714Y-84981190D02*
X176506095Y-85028809D01*
X176506095Y-85028809D02*
X176458476Y-85124047D01*
X159345333Y-102316619D02*
X159012000Y-101840428D01*
X158773905Y-102316619D02*
X158773905Y-101316619D01*
X158773905Y-101316619D02*
X159154857Y-101316619D01*
X159154857Y-101316619D02*
X159250095Y-101364238D01*
X159250095Y-101364238D02*
X159297714Y-101411857D01*
X159297714Y-101411857D02*
X159345333Y-101507095D01*
X159345333Y-101507095D02*
X159345333Y-101649952D01*
X159345333Y-101649952D02*
X159297714Y-101745190D01*
X159297714Y-101745190D02*
X159250095Y-101792809D01*
X159250095Y-101792809D02*
X159154857Y-101840428D01*
X159154857Y-101840428D02*
X158773905Y-101840428D01*
X160202476Y-101649952D02*
X160202476Y-102316619D01*
X159964381Y-101269000D02*
X159726286Y-101983285D01*
X159726286Y-101983285D02*
X160345333Y-101983285D01*
X158869142Y-109936619D02*
X158535809Y-109460428D01*
X158297714Y-109936619D02*
X158297714Y-108936619D01*
X158297714Y-108936619D02*
X158678666Y-108936619D01*
X158678666Y-108936619D02*
X158773904Y-108984238D01*
X158773904Y-108984238D02*
X158821523Y-109031857D01*
X158821523Y-109031857D02*
X158869142Y-109127095D01*
X158869142Y-109127095D02*
X158869142Y-109269952D01*
X158869142Y-109269952D02*
X158821523Y-109365190D01*
X158821523Y-109365190D02*
X158773904Y-109412809D01*
X158773904Y-109412809D02*
X158678666Y-109460428D01*
X158678666Y-109460428D02*
X158297714Y-109460428D01*
X159821523Y-109936619D02*
X159250095Y-109936619D01*
X159535809Y-109936619D02*
X159535809Y-108936619D01*
X159535809Y-108936619D02*
X159440571Y-109079476D01*
X159440571Y-109079476D02*
X159345333Y-109174714D01*
X159345333Y-109174714D02*
X159250095Y-109222333D01*
X160440571Y-108936619D02*
X160535809Y-108936619D01*
X160535809Y-108936619D02*
X160631047Y-108984238D01*
X160631047Y-108984238D02*
X160678666Y-109031857D01*
X160678666Y-109031857D02*
X160726285Y-109127095D01*
X160726285Y-109127095D02*
X160773904Y-109317571D01*
X160773904Y-109317571D02*
X160773904Y-109555666D01*
X160773904Y-109555666D02*
X160726285Y-109746142D01*
X160726285Y-109746142D02*
X160678666Y-109841380D01*
X160678666Y-109841380D02*
X160631047Y-109889000D01*
X160631047Y-109889000D02*
X160535809Y-109936619D01*
X160535809Y-109936619D02*
X160440571Y-109936619D01*
X160440571Y-109936619D02*
X160345333Y-109889000D01*
X160345333Y-109889000D02*
X160297714Y-109841380D01*
X160297714Y-109841380D02*
X160250095Y-109746142D01*
X160250095Y-109746142D02*
X160202476Y-109555666D01*
X160202476Y-109555666D02*
X160202476Y-109317571D01*
X160202476Y-109317571D02*
X160250095Y-109127095D01*
X160250095Y-109127095D02*
X160297714Y-109031857D01*
X160297714Y-109031857D02*
X160345333Y-108984238D01*
X160345333Y-108984238D02*
X160440571Y-108936619D01*
X148290619Y-70842094D02*
X147290619Y-70842094D01*
X147290619Y-70842094D02*
X147290619Y-70603999D01*
X147290619Y-70603999D02*
X147338238Y-70461142D01*
X147338238Y-70461142D02*
X147433476Y-70365904D01*
X147433476Y-70365904D02*
X147528714Y-70318285D01*
X147528714Y-70318285D02*
X147719190Y-70270666D01*
X147719190Y-70270666D02*
X147862047Y-70270666D01*
X147862047Y-70270666D02*
X148052523Y-70318285D01*
X148052523Y-70318285D02*
X148147761Y-70365904D01*
X148147761Y-70365904D02*
X148243000Y-70461142D01*
X148243000Y-70461142D02*
X148290619Y-70603999D01*
X148290619Y-70603999D02*
X148290619Y-70842094D01*
X148290619Y-69318285D02*
X148290619Y-69889713D01*
X148290619Y-69603999D02*
X147290619Y-69603999D01*
X147290619Y-69603999D02*
X147433476Y-69699237D01*
X147433476Y-69699237D02*
X147528714Y-69794475D01*
X147528714Y-69794475D02*
X147576333Y-69889713D01*
X150290619Y-67825904D02*
X149290619Y-67825904D01*
X150290619Y-67254476D02*
X149719190Y-67683047D01*
X149290619Y-67254476D02*
X149862047Y-67825904D01*
X145242619Y-70270666D02*
X144766428Y-70603999D01*
X145242619Y-70842094D02*
X144242619Y-70842094D01*
X144242619Y-70842094D02*
X144242619Y-70461142D01*
X144242619Y-70461142D02*
X144290238Y-70365904D01*
X144290238Y-70365904D02*
X144337857Y-70318285D01*
X144337857Y-70318285D02*
X144433095Y-70270666D01*
X144433095Y-70270666D02*
X144575952Y-70270666D01*
X144575952Y-70270666D02*
X144671190Y-70318285D01*
X144671190Y-70318285D02*
X144718809Y-70365904D01*
X144718809Y-70365904D02*
X144766428Y-70461142D01*
X144766428Y-70461142D02*
X144766428Y-70842094D01*
X145242619Y-69318285D02*
X145242619Y-69889713D01*
X145242619Y-69603999D02*
X144242619Y-69603999D01*
X144242619Y-69603999D02*
X144385476Y-69699237D01*
X144385476Y-69699237D02*
X144480714Y-69794475D01*
X144480714Y-69794475D02*
X144528333Y-69889713D01*
X170801380Y-117768666D02*
X170849000Y-117816285D01*
X170849000Y-117816285D02*
X170896619Y-117959142D01*
X170896619Y-117959142D02*
X170896619Y-118054380D01*
X170896619Y-118054380D02*
X170849000Y-118197237D01*
X170849000Y-118197237D02*
X170753761Y-118292475D01*
X170753761Y-118292475D02*
X170658523Y-118340094D01*
X170658523Y-118340094D02*
X170468047Y-118387713D01*
X170468047Y-118387713D02*
X170325190Y-118387713D01*
X170325190Y-118387713D02*
X170134714Y-118340094D01*
X170134714Y-118340094D02*
X170039476Y-118292475D01*
X170039476Y-118292475D02*
X169944238Y-118197237D01*
X169944238Y-118197237D02*
X169896619Y-118054380D01*
X169896619Y-118054380D02*
X169896619Y-117959142D01*
X169896619Y-117959142D02*
X169944238Y-117816285D01*
X169944238Y-117816285D02*
X169991857Y-117768666D01*
X170896619Y-116816285D02*
X170896619Y-117387713D01*
X170896619Y-117101999D02*
X169896619Y-117101999D01*
X169896619Y-117101999D02*
X170039476Y-117197237D01*
X170039476Y-117197237D02*
X170134714Y-117292475D01*
X170134714Y-117292475D02*
X170182333Y-117387713D01*
X142420619Y-76787333D02*
X143134904Y-76787333D01*
X143134904Y-76787333D02*
X143277761Y-76834952D01*
X143277761Y-76834952D02*
X143373000Y-76930190D01*
X143373000Y-76930190D02*
X143420619Y-77073047D01*
X143420619Y-77073047D02*
X143420619Y-77168285D01*
X143420619Y-75787333D02*
X143420619Y-76358761D01*
X143420619Y-76073047D02*
X142420619Y-76073047D01*
X142420619Y-76073047D02*
X142563476Y-76168285D01*
X142563476Y-76168285D02*
X142658714Y-76263523D01*
X142658714Y-76263523D02*
X142706333Y-76358761D01*
X169118619Y-129420857D02*
X168642428Y-129754190D01*
X169118619Y-129992285D02*
X168118619Y-129992285D01*
X168118619Y-129992285D02*
X168118619Y-129611333D01*
X168118619Y-129611333D02*
X168166238Y-129516095D01*
X168166238Y-129516095D02*
X168213857Y-129468476D01*
X168213857Y-129468476D02*
X168309095Y-129420857D01*
X168309095Y-129420857D02*
X168451952Y-129420857D01*
X168451952Y-129420857D02*
X168547190Y-129468476D01*
X168547190Y-129468476D02*
X168594809Y-129516095D01*
X168594809Y-129516095D02*
X168642428Y-129611333D01*
X168642428Y-129611333D02*
X168642428Y-129992285D01*
X169118619Y-128468476D02*
X169118619Y-129039904D01*
X169118619Y-128754190D02*
X168118619Y-128754190D01*
X168118619Y-128754190D02*
X168261476Y-128849428D01*
X168261476Y-128849428D02*
X168356714Y-128944666D01*
X168356714Y-128944666D02*
X168404333Y-129039904D01*
X169118619Y-127516095D02*
X169118619Y-128087523D01*
X169118619Y-127801809D02*
X168118619Y-127801809D01*
X168118619Y-127801809D02*
X168261476Y-127897047D01*
X168261476Y-127897047D02*
X168356714Y-127992285D01*
X168356714Y-127992285D02*
X168404333Y-128087523D01*
X159345333Y-107396619D02*
X159012000Y-106920428D01*
X158773905Y-107396619D02*
X158773905Y-106396619D01*
X158773905Y-106396619D02*
X159154857Y-106396619D01*
X159154857Y-106396619D02*
X159250095Y-106444238D01*
X159250095Y-106444238D02*
X159297714Y-106491857D01*
X159297714Y-106491857D02*
X159345333Y-106587095D01*
X159345333Y-106587095D02*
X159345333Y-106729952D01*
X159345333Y-106729952D02*
X159297714Y-106825190D01*
X159297714Y-106825190D02*
X159250095Y-106872809D01*
X159250095Y-106872809D02*
X159154857Y-106920428D01*
X159154857Y-106920428D02*
X158773905Y-106920428D01*
X159916762Y-106825190D02*
X159821524Y-106777571D01*
X159821524Y-106777571D02*
X159773905Y-106729952D01*
X159773905Y-106729952D02*
X159726286Y-106634714D01*
X159726286Y-106634714D02*
X159726286Y-106587095D01*
X159726286Y-106587095D02*
X159773905Y-106491857D01*
X159773905Y-106491857D02*
X159821524Y-106444238D01*
X159821524Y-106444238D02*
X159916762Y-106396619D01*
X159916762Y-106396619D02*
X160107238Y-106396619D01*
X160107238Y-106396619D02*
X160202476Y-106444238D01*
X160202476Y-106444238D02*
X160250095Y-106491857D01*
X160250095Y-106491857D02*
X160297714Y-106587095D01*
X160297714Y-106587095D02*
X160297714Y-106634714D01*
X160297714Y-106634714D02*
X160250095Y-106729952D01*
X160250095Y-106729952D02*
X160202476Y-106777571D01*
X160202476Y-106777571D02*
X160107238Y-106825190D01*
X160107238Y-106825190D02*
X159916762Y-106825190D01*
X159916762Y-106825190D02*
X159821524Y-106872809D01*
X159821524Y-106872809D02*
X159773905Y-106920428D01*
X159773905Y-106920428D02*
X159726286Y-107015666D01*
X159726286Y-107015666D02*
X159726286Y-107206142D01*
X159726286Y-107206142D02*
X159773905Y-107301380D01*
X159773905Y-107301380D02*
X159821524Y-107349000D01*
X159821524Y-107349000D02*
X159916762Y-107396619D01*
X159916762Y-107396619D02*
X160107238Y-107396619D01*
X160107238Y-107396619D02*
X160202476Y-107349000D01*
X160202476Y-107349000D02*
X160250095Y-107301380D01*
X160250095Y-107301380D02*
X160297714Y-107206142D01*
X160297714Y-107206142D02*
X160297714Y-107015666D01*
X160297714Y-107015666D02*
X160250095Y-106920428D01*
X160250095Y-106920428D02*
X160202476Y-106872809D01*
X160202476Y-106872809D02*
X160107238Y-106825190D01*
D12*
X157592000Y-83154000D02*
X161432000Y-83154000D01*
X157592000Y-84994000D02*
X161432000Y-84994000D01*
X155642000Y-116974000D02*
X155642000Y-134994000D01*
X155642000Y-134994000D02*
X165922000Y-134994000D01*
X158132000Y-117034000D02*
X158132000Y-134934000D01*
X158132000Y-134934000D02*
X163432000Y-134934000D01*
X159782000Y-117034000D02*
X158132000Y-117034000D01*
X163432000Y-117034000D02*
X161782000Y-117034000D01*
X163432000Y-134934000D02*
X163432000Y-117034000D01*
X165922000Y-116974000D02*
X155642000Y-116974000D01*
X165922000Y-134994000D02*
X165922000Y-116974000D01*
X159782000Y-117034000D02*
G75*
G03*
X161782000Y-117034000I1000000J0D01*
G01*
X173848000Y-81884000D02*
X177688000Y-81884000D01*
X173848000Y-83724000D02*
X177688000Y-83724000D01*
X173848000Y-86456000D02*
X177688000Y-86456000D01*
X173848000Y-88296000D02*
X177688000Y-88296000D01*
X152750000Y-123078000D02*
X152750000Y-119238000D01*
X154590000Y-123078000D02*
X154590000Y-119238000D01*
X161432000Y-105314000D02*
X157592000Y-105314000D01*
X161432000Y-103474000D02*
X157592000Y-103474000D01*
X173848000Y-79598000D02*
X177688000Y-79598000D01*
X173848000Y-81438000D02*
X177688000Y-81438000D01*
X152750000Y-130444000D02*
X152750000Y-126604000D01*
X154590000Y-130444000D02*
X154590000Y-126604000D01*
X175200000Y-93158000D02*
X176530000Y-93158000D01*
X175200000Y-94488000D02*
X175200000Y-93158000D01*
X175200000Y-95758000D02*
X175200000Y-123758000D01*
X175200000Y-95758000D02*
X177860000Y-95758000D01*
X175200000Y-123758000D02*
X177860000Y-123758000D01*
X177860000Y-95758000D02*
X177860000Y-123758000D01*
X170276000Y-130698000D02*
X170276000Y-126858000D01*
X172116000Y-130698000D02*
X172116000Y-126858000D01*
X161432000Y-79914000D02*
X157592000Y-79914000D01*
X161432000Y-78074000D02*
X157592000Y-78074000D01*
X168342000Y-63754000D02*
X168342000Y-112074000D01*
X168342000Y-63754000D02*
X171002000Y-63754000D01*
X168342000Y-112074000D02*
X171002000Y-112074000D01*
X169672000Y-61154000D02*
X171002000Y-61154000D01*
X171002000Y-61154000D02*
X171002000Y-62484000D01*
X171002000Y-63754000D02*
X171002000Y-112074000D01*
X155642000Y-87764000D02*
X155642000Y-98164000D01*
X155642000Y-98164000D02*
X165922000Y-98164000D01*
X158132000Y-87824000D02*
X158132000Y-98104000D01*
X158132000Y-98104000D02*
X163432000Y-98104000D01*
X159782000Y-87824000D02*
X158132000Y-87824000D01*
X163432000Y-87824000D02*
X161782000Y-87824000D01*
X163432000Y-98104000D02*
X163432000Y-87824000D01*
X165922000Y-87764000D02*
X155642000Y-87764000D01*
X165922000Y-98164000D02*
X165922000Y-87764000D01*
X159782000Y-87824000D02*
G75*
G03*
X161782000Y-87824000I1000000J0D01*
G01*
X143860000Y-88534000D02*
X143860000Y-84694000D01*
X145700000Y-88534000D02*
X145700000Y-84694000D01*
X150562000Y-63754000D02*
X150562000Y-112074000D01*
X150562000Y-63754000D02*
X153222000Y-63754000D01*
X150562000Y-112074000D02*
X153222000Y-112074000D01*
X151892000Y-61154000D02*
X153222000Y-61154000D01*
X153222000Y-61154000D02*
X153222000Y-62484000D01*
X153222000Y-63754000D02*
X153222000Y-112074000D01*
X157592000Y-80614000D02*
X161432000Y-80614000D01*
X157592000Y-82454000D02*
X161432000Y-82454000D01*
X155642000Y-62364000D02*
X155642000Y-72764000D01*
X155642000Y-72764000D02*
X165922000Y-72764000D01*
X158132000Y-62424000D02*
X158132000Y-72704000D01*
X158132000Y-72704000D02*
X163432000Y-72704000D01*
X159782000Y-62424000D02*
X158132000Y-62424000D01*
X163432000Y-62424000D02*
X161782000Y-62424000D01*
X163432000Y-72704000D02*
X163432000Y-62424000D01*
X165922000Y-62364000D02*
X155642000Y-62364000D01*
X165922000Y-72764000D02*
X165922000Y-62364000D01*
X159782000Y-62424000D02*
G75*
G03*
X161782000Y-62424000I1000000J0D01*
G01*
X143958000Y-94294000D02*
X143958000Y-92964000D01*
X145288000Y-94294000D02*
X143958000Y-94294000D01*
X146558000Y-94294000D02*
X149158000Y-94294000D01*
X146558000Y-94294000D02*
X146558000Y-91634000D01*
X149158000Y-94294000D02*
X149158000Y-91634000D01*
X146558000Y-91634000D02*
X149158000Y-91634000D01*
X149248000Y-84738315D02*
X149248000Y-88178315D01*
X149068000Y-84738315D02*
X149248000Y-84738315D01*
X146588000Y-84738315D02*
X146408000Y-84738315D01*
X146408000Y-84738315D02*
X146408000Y-88178315D01*
X149248000Y-85218315D02*
X146408000Y-85218315D01*
X149248000Y-85338315D02*
X146408000Y-85338315D01*
X149248000Y-85458315D02*
X146408000Y-85458315D01*
X149248000Y-88178315D02*
X149068000Y-88178315D01*
X146408000Y-88178315D02*
X146588000Y-88178315D01*
X161432000Y-77374000D02*
X157592000Y-77374000D01*
X161432000Y-75534000D02*
X157592000Y-75534000D01*
X173848000Y-84170000D02*
X177688000Y-84170000D01*
X173848000Y-86010000D02*
X177688000Y-86010000D01*
X161432000Y-102774000D02*
X157592000Y-102774000D01*
X161432000Y-100934000D02*
X157592000Y-100934000D01*
X157592000Y-108554000D02*
X161432000Y-108554000D01*
X157592000Y-110394000D02*
X161432000Y-110394000D01*
X149248000Y-68384000D02*
X149248000Y-71824000D01*
X149068000Y-68384000D02*
X149248000Y-68384000D01*
X146588000Y-68384000D02*
X146408000Y-68384000D01*
X146408000Y-68384000D02*
X146408000Y-71824000D01*
X149248000Y-68864000D02*
X146408000Y-68864000D01*
X149248000Y-68984000D02*
X146408000Y-68984000D01*
X149248000Y-69104000D02*
X146408000Y-69104000D01*
X149248000Y-71824000D02*
X149068000Y-71824000D01*
X146408000Y-71824000D02*
X146588000Y-71824000D01*
X143860000Y-72278000D02*
X143860000Y-68438000D01*
X145700000Y-72278000D02*
X145700000Y-68438000D01*
X169572000Y-116524000D02*
X169327000Y-116524000D01*
X169572000Y-116524000D02*
X169572000Y-120164000D01*
X167477000Y-116524000D02*
X167232000Y-116524000D01*
X167232000Y-116524000D02*
X167232000Y-120164000D01*
X169572000Y-120164000D02*
X169327000Y-120164000D01*
X167477000Y-120164000D02*
X167232000Y-120164000D01*
X143958000Y-77784000D02*
X143958000Y-76454000D01*
X145288000Y-77784000D02*
X143958000Y-77784000D01*
X146558000Y-77784000D02*
X149158000Y-77784000D01*
X146558000Y-77784000D02*
X146558000Y-75124000D01*
X149158000Y-77784000D02*
X149158000Y-75124000D01*
X146558000Y-75124000D02*
X149158000Y-75124000D01*
X167736000Y-130698000D02*
X167736000Y-126858000D01*
X169576000Y-130698000D02*
X169576000Y-126858000D01*
X157592000Y-106014000D02*
X161432000Y-106014000D01*
X157592000Y-107854000D02*
X161432000Y-107854000D01*
%LPC*%
D13*
X156972000Y-84074000D03*
D14*
X162052000Y-84074000D03*
D15*
X156972000Y-118364000D03*
D16*
X156972000Y-120904000D03*
X156972000Y-123444000D03*
X156972000Y-125984000D03*
X156972000Y-128524000D03*
X156972000Y-131064000D03*
X156972000Y-133604000D03*
X164592000Y-133604000D03*
X164592000Y-131064000D03*
X164592000Y-128524000D03*
X164592000Y-125984000D03*
X164592000Y-123444000D03*
X164592000Y-120904000D03*
X164592000Y-118364000D03*
D13*
X173228000Y-82804000D03*
D14*
X178308000Y-82804000D03*
D13*
X173228000Y-87376000D03*
D14*
X178308000Y-87376000D03*
D13*
X153670000Y-123698000D03*
D14*
X153670000Y-118618000D03*
D13*
X162052000Y-104394000D03*
D14*
X156972000Y-104394000D03*
D13*
X173228000Y-80518000D03*
D14*
X178308000Y-80518000D03*
D13*
X153670000Y-131064000D03*
D14*
X153670000Y-125984000D03*
D17*
X176530000Y-94488000D03*
D18*
X176530000Y-97028000D03*
X176530000Y-99568000D03*
X176530000Y-102108000D03*
X176530000Y-104648000D03*
X176530000Y-107188000D03*
X176530000Y-109728000D03*
X176530000Y-112268000D03*
X176530000Y-114808000D03*
X176530000Y-117348000D03*
X176530000Y-119888000D03*
X176530000Y-122428000D03*
D13*
X171196000Y-131318000D03*
D14*
X171196000Y-126238000D03*
D13*
X162052000Y-78994000D03*
D14*
X156972000Y-78994000D03*
D17*
X169672000Y-62484000D03*
D18*
X169672000Y-65024000D03*
X169672000Y-67564000D03*
X169672000Y-70104000D03*
X169672000Y-72644000D03*
X169672000Y-75184000D03*
X169672000Y-77724000D03*
X169672000Y-80264000D03*
X169672000Y-82804000D03*
X169672000Y-85344000D03*
X169672000Y-87884000D03*
X169672000Y-90424000D03*
X169672000Y-92964000D03*
X169672000Y-95504000D03*
X169672000Y-98044000D03*
X169672000Y-100584000D03*
X169672000Y-103124000D03*
X169672000Y-105664000D03*
X169672000Y-108204000D03*
X169672000Y-110744000D03*
D15*
X156972000Y-89154000D03*
D16*
X156972000Y-91694000D03*
X156972000Y-94234000D03*
X156972000Y-96774000D03*
X164592000Y-96774000D03*
X164592000Y-94234000D03*
X164592000Y-91694000D03*
X164592000Y-89154000D03*
D13*
X144780000Y-89154000D03*
D14*
X144780000Y-84074000D03*
D17*
X151892000Y-62484000D03*
D18*
X151892000Y-65024000D03*
X151892000Y-67564000D03*
X151892000Y-70104000D03*
X151892000Y-72644000D03*
X151892000Y-75184000D03*
X151892000Y-77724000D03*
X151892000Y-80264000D03*
X151892000Y-82804000D03*
X151892000Y-85344000D03*
X151892000Y-87884000D03*
X151892000Y-90424000D03*
X151892000Y-92964000D03*
X151892000Y-95504000D03*
X151892000Y-98044000D03*
X151892000Y-100584000D03*
X151892000Y-103124000D03*
X151892000Y-105664000D03*
X151892000Y-108204000D03*
X151892000Y-110744000D03*
D19*
X177800000Y-134112000D03*
D13*
X156972000Y-81534000D03*
D14*
X162052000Y-81534000D03*
D15*
X156972000Y-63754000D03*
D16*
X156972000Y-66294000D03*
X156972000Y-68834000D03*
X156972000Y-71374000D03*
X164592000Y-71374000D03*
X164592000Y-68834000D03*
X164592000Y-66294000D03*
X164592000Y-63754000D03*
D17*
X145288000Y-92964000D03*
D18*
X147828000Y-92964000D03*
D20*
X147828000Y-83918315D03*
D21*
X147828000Y-88998315D03*
D19*
X145288000Y-134112000D03*
D13*
X162052000Y-76454000D03*
D14*
X156972000Y-76454000D03*
D19*
X145288000Y-63754000D03*
D13*
X173228000Y-85090000D03*
D14*
X178308000Y-85090000D03*
D13*
X162052000Y-101854000D03*
D14*
X156972000Y-101854000D03*
D13*
X156972000Y-109474000D03*
D14*
X162052000Y-109474000D03*
D20*
X147828000Y-67564000D03*
D21*
X147828000Y-72644000D03*
D13*
X144780000Y-72898000D03*
D14*
X144780000Y-67818000D03*
D22*
X168402000Y-117094000D03*
X168402000Y-119594000D03*
D19*
X177800000Y-63754000D03*
D17*
X145288000Y-76454000D03*
D18*
X147828000Y-76454000D03*
D13*
X168656000Y-131318000D03*
D14*
X168656000Y-126238000D03*
D13*
X156972000Y-106934000D03*
D14*
X162052000Y-106934000D03*
%LPD*%
M02*
